G04 #@! TF.GenerationSoftware,KiCad,Pcbnew,5.1.9*
G04 #@! TF.CreationDate,2021-04-28T13:54:20+02:00*
G04 #@! TF.ProjectId,Radar,52616461-722e-46b6-9963-61645f706362,rev?*
G04 #@! TF.SameCoordinates,Original*
G04 #@! TF.FileFunction,Copper,L3,Inr*
G04 #@! TF.FilePolarity,Positive*
%FSLAX46Y46*%
G04 Gerber Fmt 4.6, Leading zero omitted, Abs format (unit mm)*
G04 Created by KiCad (PCBNEW 5.1.9) date 2021-04-28 13:54:20*
%MOMM*%
%LPD*%
G01*
G04 APERTURE LIST*
G04 #@! TA.AperFunction,ComponentPad*
%ADD10O,1.700000X1.700000*%
G04 #@! TD*
G04 #@! TA.AperFunction,ComponentPad*
%ADD11R,1.700000X1.700000*%
G04 #@! TD*
G04 #@! TA.AperFunction,ComponentPad*
%ADD12C,2.250000*%
G04 #@! TD*
G04 #@! TA.AperFunction,ComponentPad*
%ADD13C,2.050000*%
G04 #@! TD*
G04 #@! TA.AperFunction,ComponentPad*
%ADD14C,1.700000*%
G04 #@! TD*
G04 #@! TA.AperFunction,ViaPad*
%ADD15C,0.800000*%
G04 #@! TD*
G04 #@! TA.AperFunction,Conductor*
%ADD16C,0.254000*%
G04 #@! TD*
G04 #@! TA.AperFunction,Conductor*
%ADD17C,0.100000*%
G04 #@! TD*
G04 APERTURE END LIST*
D10*
X152540000Y-91080000D03*
X150000000Y-91080000D03*
X152540000Y-88540000D03*
X150000000Y-88540000D03*
X152540000Y-86000000D03*
D11*
X150000000Y-86000000D03*
D12*
X163860000Y-35260000D03*
X168940000Y-35260000D03*
X168940000Y-40340000D03*
X163860000Y-40340000D03*
D13*
X166400000Y-37800000D03*
D12*
X151340000Y-40140000D03*
X146260000Y-40140000D03*
X146260000Y-35060000D03*
X151340000Y-35060000D03*
D13*
X148800000Y-37600000D03*
D12*
X151460000Y-54990000D03*
X151460000Y-49910000D03*
X156540000Y-49910000D03*
X156540000Y-54990000D03*
D13*
X154000000Y-52450000D03*
D12*
X173340000Y-52260000D03*
X173340000Y-57340000D03*
X168260000Y-57340000D03*
X168260000Y-52260000D03*
D13*
X170800000Y-54800000D03*
D12*
X152340000Y-81540000D03*
X147260000Y-81540000D03*
X147260000Y-76460000D03*
X152340000Y-76460000D03*
D13*
X149800000Y-79000000D03*
D12*
X146140000Y-49870000D03*
X146140000Y-54950000D03*
X141060000Y-54950000D03*
X141060000Y-49870000D03*
D13*
X143600000Y-52410000D03*
D14*
X142340000Y-87260000D03*
X139800000Y-87260000D03*
X137260000Y-87260000D03*
X134720000Y-87260000D03*
X132180000Y-87260000D03*
X142340000Y-89800000D03*
X139800000Y-89800000D03*
X137260000Y-89800000D03*
X134720000Y-89800000D03*
G04 #@! TA.AperFunction,ComponentPad*
G36*
G01*
X132780000Y-90650000D02*
X131580000Y-90650000D01*
G75*
G02*
X131330000Y-90400000I0J250000D01*
G01*
X131330000Y-89200000D01*
G75*
G02*
X131580000Y-88950000I250000J0D01*
G01*
X132780000Y-88950000D01*
G75*
G02*
X133030000Y-89200000I0J-250000D01*
G01*
X133030000Y-90400000D01*
G75*
G02*
X132780000Y-90650000I-250000J0D01*
G01*
G37*
G04 #@! TD.AperFunction*
D15*
X141900000Y-45900000D03*
X140100000Y-44200000D03*
X155700000Y-45600000D03*
X154100000Y-44000000D03*
X166400000Y-85200000D03*
X167000000Y-84400000D03*
X170400000Y-70800000D03*
X169600000Y-70000000D03*
X135200000Y-50400000D03*
X127400000Y-69800000D03*
X123200000Y-56400000D03*
X132800000Y-56600000D03*
X136000000Y-62800000D03*
X119000000Y-64200000D03*
X114600000Y-62200000D03*
X112000000Y-71000000D03*
X138200000Y-82000000D03*
X129600000Y-81000000D03*
X139000000Y-74600000D03*
X120200000Y-60400000D03*
X162200000Y-68600000D03*
X161800000Y-71000000D03*
X160200000Y-71000000D03*
X165200000Y-71000000D03*
X143600000Y-64000000D03*
X140000000Y-64000000D03*
X142800000Y-67400000D03*
X143000000Y-65400000D03*
X109200000Y-86000000D03*
X109200000Y-91200000D03*
X175400000Y-82200000D03*
X175400000Y-87400000D03*
X175400000Y-42200000D03*
X175400000Y-47400000D03*
X124600000Y-82000000D03*
X111000000Y-78600000D03*
X117215000Y-81385000D03*
X124400000Y-87200000D03*
X165000000Y-94000000D03*
X158200000Y-85400000D03*
X154600000Y-69800000D03*
X154600000Y-63600000D03*
X154800000Y-60400000D03*
X158600000Y-60200000D03*
X165000000Y-60200000D03*
X171400000Y-60200000D03*
X175000000Y-60400000D03*
X175200000Y-69800000D03*
X175200000Y-75800000D03*
X171400000Y-91600000D03*
X175000000Y-91400000D03*
X154800000Y-73400000D03*
X155400000Y-84800000D03*
X109400000Y-42400000D03*
X109400000Y-36800000D03*
X160200000Y-72400000D03*
X160200000Y-76000000D03*
X163800000Y-76000000D03*
X163800000Y-72400000D03*
X165000000Y-91400000D03*
X140000000Y-69400000D03*
X160000000Y-67540000D03*
X163800000Y-67540000D03*
X163800000Y-63800000D03*
X160200000Y-63800000D03*
X169800000Y-50000000D03*
X146500000Y-62000000D03*
X154500000Y-62000000D03*
X150600000Y-64400000D03*
X156800000Y-42900000D03*
X156900000Y-46500000D03*
X144800000Y-46500000D03*
X148000000Y-46500000D03*
X143900000Y-45600000D03*
X144100000Y-38700000D03*
X142400000Y-38700000D03*
X140800000Y-36700000D03*
X154815000Y-39700000D03*
X156189990Y-39700000D03*
X157700000Y-38100000D03*
X155600000Y-35900000D03*
X153900000Y-35900000D03*
X161100000Y-49900000D03*
X161000000Y-56900000D03*
X153020000Y-39540000D03*
X168200000Y-62600000D03*
X152000000Y-46000000D03*
X152000000Y-43600000D03*
X133800000Y-67800000D03*
X107500000Y-97500000D03*
X110000000Y-97500000D03*
X112500000Y-97500000D03*
X115000000Y-97500000D03*
X117500000Y-97500000D03*
X120000000Y-97500000D03*
X122500000Y-97500000D03*
X127500000Y-97500000D03*
X125000000Y-97500000D03*
X130000000Y-97500000D03*
X132500000Y-97500000D03*
X137500000Y-97500000D03*
X135000000Y-97500000D03*
X140000000Y-97500000D03*
X142500000Y-97500000D03*
X145000000Y-97500000D03*
X147500000Y-97500000D03*
X150000000Y-97500000D03*
X152500000Y-97500000D03*
X155000000Y-97500000D03*
X157500000Y-97500000D03*
X160000000Y-97500000D03*
X162500000Y-97500000D03*
X165000000Y-97500000D03*
X167500000Y-97500000D03*
X170000000Y-97500000D03*
X172500000Y-97500000D03*
X175000000Y-97500000D03*
X177500000Y-97500000D03*
X177500000Y-95000000D03*
X175000000Y-95000000D03*
X172500000Y-95000000D03*
X170000000Y-95000000D03*
X167500000Y-95000000D03*
X157500000Y-95000000D03*
X155000000Y-95000000D03*
X152500000Y-95000000D03*
X150000000Y-95000000D03*
X150000000Y-95000000D03*
X147500000Y-95000000D03*
X145000000Y-95000000D03*
X142500000Y-95000000D03*
X137500000Y-95000000D03*
X140000000Y-95000000D03*
X132500000Y-95000000D03*
X135000000Y-95000000D03*
X130000000Y-95000000D03*
X127500000Y-95000000D03*
X125000000Y-95000000D03*
X120000000Y-95000000D03*
X122500000Y-95000000D03*
X117500000Y-95000000D03*
X112500000Y-95000000D03*
X110000000Y-95000000D03*
X107500000Y-95000000D03*
X115000000Y-95000000D03*
X112500000Y-92500000D03*
X115000000Y-92500000D03*
X110000000Y-92500000D03*
X117500000Y-92500000D03*
X120000000Y-92500000D03*
X125000000Y-92500000D03*
X122500000Y-92500000D03*
X127500000Y-92500000D03*
X130000000Y-92500000D03*
X130000000Y-90000000D03*
X127500000Y-90000000D03*
X125000000Y-90000000D03*
X120000000Y-90000000D03*
X122500000Y-90000000D03*
X117500000Y-90000000D03*
X112500000Y-90000000D03*
X115000000Y-90000000D03*
X132500000Y-92500000D03*
X167500000Y-92500000D03*
X170000000Y-92500000D03*
X172500000Y-92500000D03*
X175000000Y-92500000D03*
X177500000Y-92500000D03*
X177500000Y-90000000D03*
X170000000Y-87500000D03*
X165000000Y-87500000D03*
X172500000Y-87500000D03*
X127500000Y-87500000D03*
X130000000Y-87500000D03*
X177500000Y-80000000D03*
X177500000Y-77500000D03*
X177500000Y-75000000D03*
X177500000Y-72500000D03*
X177500000Y-70000000D03*
X177500000Y-67500000D03*
X177500000Y-65000000D03*
X177500000Y-62500000D03*
X177500000Y-60000000D03*
X177500000Y-57500000D03*
X177500000Y-55000000D03*
X177500000Y-52500000D03*
X177500000Y-50000000D03*
X177500000Y-40000000D03*
X177500000Y-37500000D03*
X177500000Y-35000000D03*
X177500000Y-32500000D03*
X177500000Y-30000000D03*
X177500000Y-27500000D03*
X110000000Y-27500000D03*
X107500000Y-27500000D03*
X112500000Y-27500000D03*
X115000000Y-27500000D03*
X120000000Y-27500000D03*
X122500000Y-27500000D03*
X117500000Y-27500000D03*
X125000000Y-27500000D03*
X130000000Y-27500000D03*
X137500000Y-27500000D03*
X132500000Y-27500000D03*
X135000000Y-27500000D03*
X127500000Y-27500000D03*
X140000000Y-27500000D03*
X142500000Y-27500000D03*
X145000000Y-27500000D03*
X147500000Y-27500000D03*
X150000000Y-27500000D03*
X155000000Y-27500000D03*
X157500000Y-27500000D03*
X152500000Y-27500000D03*
X152500000Y-30000000D03*
X155000000Y-30000000D03*
X157500000Y-30000000D03*
X160000000Y-27500000D03*
X165000000Y-27500000D03*
X162500000Y-27500000D03*
X167500000Y-27500000D03*
X172500000Y-27500000D03*
X175000000Y-27500000D03*
X170000000Y-27500000D03*
X175000000Y-30000000D03*
X172500000Y-30000000D03*
X170000000Y-30000000D03*
X165000000Y-30000000D03*
X162500000Y-30000000D03*
X160000000Y-30000000D03*
X167500000Y-30000000D03*
X175000000Y-32500000D03*
X175000000Y-35000000D03*
X175000000Y-37500000D03*
X175000000Y-40000000D03*
X172500000Y-40000000D03*
X172500000Y-37500000D03*
X172500000Y-35000000D03*
X172500000Y-32500000D03*
X170000000Y-32500000D03*
X167500000Y-32500000D03*
X165000000Y-32500000D03*
X162500000Y-32500000D03*
X160000000Y-32500000D03*
X160000000Y-35000000D03*
X157500000Y-32500000D03*
X155000000Y-32500000D03*
X152500000Y-32500000D03*
X150000000Y-32500000D03*
X150000000Y-30000000D03*
X147500000Y-30000000D03*
X147500000Y-32500000D03*
X145000000Y-32500000D03*
X145000000Y-30000000D03*
X142500000Y-30000000D03*
X142500000Y-32500000D03*
X142500000Y-35000000D03*
X140000000Y-35000000D03*
X140000000Y-32500000D03*
X140000000Y-30000000D03*
X137500000Y-32500000D03*
X137500000Y-35000000D03*
X137500000Y-37500000D03*
X137500000Y-30000000D03*
X135000000Y-37500000D03*
X135000000Y-35000000D03*
X135000000Y-32500000D03*
X135000000Y-30000000D03*
X132500000Y-30000000D03*
X132500000Y-32500000D03*
X132500000Y-35000000D03*
X132500000Y-37500000D03*
X130000000Y-37500000D03*
X130000000Y-35000000D03*
X130000000Y-35000000D03*
X130000000Y-32500000D03*
X130000000Y-30000000D03*
X127500000Y-30000000D03*
X127500000Y-32500000D03*
X127500000Y-35000000D03*
X127500000Y-37500000D03*
X125000000Y-37500000D03*
X125000000Y-35000000D03*
X125000000Y-32500000D03*
X125000000Y-32500000D03*
X125000000Y-30000000D03*
X122500000Y-32500000D03*
X122500000Y-35000000D03*
X122500000Y-37500000D03*
X120000000Y-37500000D03*
X120000000Y-35000000D03*
X120000000Y-35000000D03*
X120000000Y-32500000D03*
X117500000Y-30000000D03*
X117500000Y-32500000D03*
X117500000Y-35000000D03*
X117500000Y-37500000D03*
X115000000Y-37500000D03*
X115000000Y-35000000D03*
X115000000Y-32500000D03*
X112500000Y-30000000D03*
X112500000Y-32500000D03*
X112500000Y-35000000D03*
X112500000Y-37500000D03*
X110000000Y-35000000D03*
X110000000Y-32500000D03*
X110000000Y-30000000D03*
X107500000Y-32500000D03*
X107500000Y-35000000D03*
X112500000Y-42500000D03*
X115000000Y-42500000D03*
X120000000Y-42500000D03*
X122500000Y-42500000D03*
X117500000Y-42500000D03*
X122500000Y-42500000D03*
X125000000Y-42500000D03*
X130000000Y-42500000D03*
X132500000Y-42500000D03*
X135000000Y-42500000D03*
X135000000Y-45000000D03*
X130000000Y-45000000D03*
X127500000Y-45000000D03*
X127500000Y-42500000D03*
X132500000Y-45000000D03*
X125000000Y-45000000D03*
X115000000Y-45000000D03*
X117500000Y-45000000D03*
X120000000Y-45000000D03*
X122500000Y-45000000D03*
X112500000Y-45000000D03*
X110000000Y-45000000D03*
X107500000Y-45000000D03*
X107500000Y-47500000D03*
X110000000Y-47500000D03*
X112500000Y-47500000D03*
X115000000Y-47500000D03*
X117500000Y-47500000D03*
X120000000Y-47500000D03*
X122500000Y-47500000D03*
X125000000Y-47500000D03*
X127500000Y-47500000D03*
X130000000Y-47500000D03*
X132500000Y-47500000D03*
X135000000Y-47500000D03*
X130000000Y-50000000D03*
X127500000Y-50000000D03*
X125000000Y-50000000D03*
X122500000Y-50000000D03*
X117500000Y-50000000D03*
X120000000Y-50000000D03*
X115000000Y-50000000D03*
X112500000Y-50000000D03*
X107500000Y-50000000D03*
X107500000Y-52500000D03*
X110000000Y-52500000D03*
X110000000Y-50000000D03*
X112500000Y-52500000D03*
X115000000Y-52500000D03*
X117500000Y-52500000D03*
X120000000Y-52500000D03*
X122500000Y-52500000D03*
X125000000Y-52500000D03*
X127500000Y-52500000D03*
X130000000Y-52500000D03*
X132500000Y-52500000D03*
X135000000Y-52500000D03*
X135000000Y-52500000D03*
X107500000Y-82500000D03*
X107500000Y-80000000D03*
X107500000Y-77500000D03*
X107500000Y-75000000D03*
X107500000Y-72500000D03*
X107500000Y-70000000D03*
X107500000Y-67500000D03*
X107500000Y-65000000D03*
X107500000Y-62500000D03*
X107500000Y-60000000D03*
X107500000Y-57500000D03*
X107500000Y-55000000D03*
X110000000Y-55000000D03*
X110000000Y-57500000D03*
X110000000Y-62500000D03*
X110000000Y-65000000D03*
X110000000Y-60000000D03*
X110000000Y-70000000D03*
X110000000Y-67500000D03*
X110000000Y-72500000D03*
X110000000Y-75000000D03*
X110000000Y-77500000D03*
X110000000Y-80000000D03*
X110000000Y-82500000D03*
X112500000Y-82500000D03*
X112500000Y-85000000D03*
X110000000Y-85000000D03*
X112500000Y-87500000D03*
X110000000Y-87500000D03*
X115000000Y-87500000D03*
X112500000Y-55000000D03*
X115000000Y-55000000D03*
X112500000Y-57500000D03*
X122500000Y-55000000D03*
X125000000Y-55000000D03*
X127500000Y-55000000D03*
X140000000Y-57500000D03*
X140000000Y-65000000D03*
X142500000Y-77500000D03*
X142500000Y-75000000D03*
X142000000Y-81000000D03*
X112500000Y-65000000D03*
X112500000Y-62500000D03*
X112500000Y-67500000D03*
X117500000Y-67500000D03*
X117500000Y-65000000D03*
X120000000Y-70000000D03*
X122500000Y-70000000D03*
X125000000Y-70000000D03*
X125000000Y-72500000D03*
X127500000Y-72500000D03*
X127500000Y-75000000D03*
X130000000Y-75000000D03*
X127500000Y-82500000D03*
X122500000Y-30000000D03*
X120000000Y-30000000D03*
X115000000Y-30000000D03*
X107500000Y-30000000D03*
X115400000Y-67600000D03*
X115400000Y-65000000D03*
X165000000Y-81000000D03*
X167000000Y-81000000D03*
X169000000Y-81000000D03*
X171000000Y-81000000D03*
X165000000Y-79000000D03*
X165000000Y-77000000D03*
X167000000Y-79000000D03*
X167000000Y-77000000D03*
X169000000Y-77000000D03*
X169000000Y-79000000D03*
X171000000Y-79000000D03*
X171000000Y-77000000D03*
X158000000Y-81000000D03*
X159000000Y-82000000D03*
X159000000Y-84000000D03*
X158000000Y-77000000D03*
X159000000Y-77000000D03*
X167000000Y-70000000D03*
X167000000Y-68000000D03*
X167000000Y-72000000D03*
X149000000Y-83000000D03*
X151000000Y-83000000D03*
X135000000Y-72000000D03*
X135000000Y-68000000D03*
X174000000Y-48000000D03*
X172000000Y-48000000D03*
X167000000Y-48000000D03*
X165000000Y-48000000D03*
X165000000Y-50000000D03*
X165000000Y-52000000D03*
X166000000Y-53000000D03*
X168000000Y-49000000D03*
X171000000Y-49000000D03*
X175000000Y-49000000D03*
X177000000Y-49000000D03*
X174000000Y-42000000D03*
X172000000Y-42000000D03*
X156000000Y-52000000D03*
X158000000Y-52000000D03*
X152000000Y-52000000D03*
X150000000Y-52000000D03*
X154000000Y-57000000D03*
X156000000Y-57000000D03*
X152000000Y-57000000D03*
X150000000Y-57000000D03*
X139000000Y-48000000D03*
X141000000Y-48000000D03*
X143000000Y-48000000D03*
X145000000Y-48000000D03*
X147000000Y-48000000D03*
X170000000Y-42000000D03*
X167000000Y-42000000D03*
X165000000Y-42000000D03*
X166000000Y-63000000D03*
X167000000Y-63000000D03*
X158000000Y-63000000D03*
X179000000Y-49000000D03*
X163000000Y-42000000D03*
X129800000Y-60400000D03*
X120200000Y-62400000D03*
X134600000Y-74600000D03*
X121600000Y-79215000D03*
X133000000Y-60800000D03*
X117800000Y-58400000D03*
X128400000Y-76800000D03*
X115600000Y-76600000D03*
X133200000Y-81800000D03*
X152800000Y-73000000D03*
X152800000Y-71000000D03*
X152800000Y-69000000D03*
X152800000Y-67000000D03*
X146800000Y-67000000D03*
X148800000Y-67000000D03*
X146800000Y-69000000D03*
X148800000Y-69000000D03*
X146800000Y-71000000D03*
X146800000Y-73000000D03*
X148800000Y-73000000D03*
X148800000Y-71000000D03*
X150800000Y-67000000D03*
X150800000Y-73000000D03*
X161200000Y-88600000D03*
X159400000Y-71600000D03*
X157100000Y-35100000D03*
X154800000Y-35100000D03*
X158500000Y-41000000D03*
X171800000Y-63800000D03*
X163800000Y-71000000D03*
X161200000Y-68600000D03*
X159000000Y-93600000D03*
X162800000Y-71000000D03*
X160200000Y-68600000D03*
X158600000Y-92600000D03*
X147400000Y-92600000D03*
X154900000Y-92600000D03*
X147400000Y-84200000D03*
X144100000Y-42800000D03*
X138862500Y-72462500D03*
X148250000Y-58000000D03*
X149600000Y-60900000D03*
X149250000Y-58000000D03*
X151400000Y-60900000D03*
X121600000Y-56200000D03*
X145900000Y-88500000D03*
X116200000Y-57000000D03*
X140400000Y-80500000D03*
X140400000Y-78700000D03*
D16*
X179923001Y-98923000D02*
X104477000Y-98923000D01*
X104477000Y-92518548D01*
X146573000Y-92518548D01*
X146573000Y-92681452D01*
X146604782Y-92841227D01*
X146667123Y-92991731D01*
X146757628Y-93127181D01*
X146872819Y-93242372D01*
X147008269Y-93332877D01*
X147158773Y-93395218D01*
X147318548Y-93427000D01*
X147481452Y-93427000D01*
X147641227Y-93395218D01*
X147791731Y-93332877D01*
X147927181Y-93242372D01*
X148042372Y-93127181D01*
X148132877Y-92991731D01*
X148195218Y-92841227D01*
X148227000Y-92681452D01*
X148227000Y-92518548D01*
X154073000Y-92518548D01*
X154073000Y-92681452D01*
X154104782Y-92841227D01*
X154167123Y-92991731D01*
X154257628Y-93127181D01*
X154372819Y-93242372D01*
X154508269Y-93332877D01*
X154658773Y-93395218D01*
X154818548Y-93427000D01*
X154981452Y-93427000D01*
X155141227Y-93395218D01*
X155291731Y-93332877D01*
X155427181Y-93242372D01*
X155542372Y-93127181D01*
X155632877Y-92991731D01*
X155695218Y-92841227D01*
X155727000Y-92681452D01*
X155727000Y-92518548D01*
X157773000Y-92518548D01*
X157773000Y-92681452D01*
X157804782Y-92841227D01*
X157867123Y-92991731D01*
X157957628Y-93127181D01*
X158072819Y-93242372D01*
X158208269Y-93332877D01*
X158214448Y-93335437D01*
X158204782Y-93358773D01*
X158173000Y-93518548D01*
X158173000Y-93681452D01*
X158204782Y-93841227D01*
X158267123Y-93991731D01*
X158357628Y-94127181D01*
X158472819Y-94242372D01*
X158608269Y-94332877D01*
X158758773Y-94395218D01*
X158918548Y-94427000D01*
X159081452Y-94427000D01*
X159241227Y-94395218D01*
X159391731Y-94332877D01*
X159527181Y-94242372D01*
X159642372Y-94127181D01*
X159732877Y-93991731D01*
X159795218Y-93841227D01*
X159827000Y-93681452D01*
X159827000Y-93518548D01*
X159795218Y-93358773D01*
X159732877Y-93208269D01*
X159642372Y-93072819D01*
X159527181Y-92957628D01*
X159391731Y-92867123D01*
X159385552Y-92864563D01*
X159395218Y-92841227D01*
X159427000Y-92681452D01*
X159427000Y-92518548D01*
X159395218Y-92358773D01*
X159332877Y-92208269D01*
X159242372Y-92072819D01*
X159127181Y-91957628D01*
X158991731Y-91867123D01*
X158841227Y-91804782D01*
X158681452Y-91773000D01*
X158518548Y-91773000D01*
X158358773Y-91804782D01*
X158208269Y-91867123D01*
X158072819Y-91957628D01*
X157957628Y-92072819D01*
X157867123Y-92208269D01*
X157804782Y-92358773D01*
X157773000Y-92518548D01*
X155727000Y-92518548D01*
X155695218Y-92358773D01*
X155632877Y-92208269D01*
X155542372Y-92072819D01*
X155427181Y-91957628D01*
X155291731Y-91867123D01*
X155141227Y-91804782D01*
X154981452Y-91773000D01*
X154818548Y-91773000D01*
X154658773Y-91804782D01*
X154508269Y-91867123D01*
X154372819Y-91957628D01*
X154257628Y-92072819D01*
X154167123Y-92208269D01*
X154104782Y-92358773D01*
X154073000Y-92518548D01*
X148227000Y-92518548D01*
X148195218Y-92358773D01*
X148132877Y-92208269D01*
X148042372Y-92072819D01*
X147927181Y-91957628D01*
X147791731Y-91867123D01*
X147641227Y-91804782D01*
X147481452Y-91773000D01*
X147318548Y-91773000D01*
X147158773Y-91804782D01*
X147008269Y-91867123D01*
X146872819Y-91957628D01*
X146757628Y-92072819D01*
X146667123Y-92208269D01*
X146604782Y-92358773D01*
X146573000Y-92518548D01*
X104477000Y-92518548D01*
X104477000Y-90650000D01*
X130691928Y-90650000D01*
X130704188Y-90774482D01*
X130740498Y-90894180D01*
X130799463Y-91004494D01*
X130878815Y-91101185D01*
X130975506Y-91180537D01*
X131085820Y-91239502D01*
X131205518Y-91275812D01*
X131330000Y-91288072D01*
X131894250Y-91285000D01*
X132053000Y-91126250D01*
X132053000Y-89927000D01*
X130853750Y-89927000D01*
X130695000Y-90085750D01*
X130691928Y-90650000D01*
X104477000Y-90650000D01*
X104477000Y-88950000D01*
X130691928Y-88950000D01*
X130695000Y-89514250D01*
X130853750Y-89673000D01*
X132053000Y-89673000D01*
X132053000Y-89653000D01*
X132307000Y-89653000D01*
X132307000Y-89673000D01*
X132327000Y-89673000D01*
X132327000Y-89927000D01*
X132307000Y-89927000D01*
X132307000Y-91126250D01*
X132465750Y-91285000D01*
X133030000Y-91288072D01*
X133154482Y-91275812D01*
X133274180Y-91239502D01*
X133384494Y-91180537D01*
X133481185Y-91101185D01*
X133560537Y-91004494D01*
X133619502Y-90894180D01*
X133655812Y-90774482D01*
X133668072Y-90650000D01*
X133667382Y-90523185D01*
X133728089Y-90614040D01*
X133905960Y-90791911D01*
X134115114Y-90931663D01*
X134347513Y-91027926D01*
X134594226Y-91077000D01*
X134845774Y-91077000D01*
X135092487Y-91027926D01*
X135324886Y-90931663D01*
X135534040Y-90791911D01*
X135711911Y-90614040D01*
X135851663Y-90404886D01*
X135947926Y-90172487D01*
X135990000Y-89960966D01*
X136032074Y-90172487D01*
X136128337Y-90404886D01*
X136268089Y-90614040D01*
X136445960Y-90791911D01*
X136655114Y-90931663D01*
X136887513Y-91027926D01*
X137134226Y-91077000D01*
X137385774Y-91077000D01*
X137632487Y-91027926D01*
X137864886Y-90931663D01*
X138074040Y-90791911D01*
X138251911Y-90614040D01*
X138391663Y-90404886D01*
X138487926Y-90172487D01*
X138530000Y-89960966D01*
X138572074Y-90172487D01*
X138668337Y-90404886D01*
X138808089Y-90614040D01*
X138985960Y-90791911D01*
X139195114Y-90931663D01*
X139427513Y-91027926D01*
X139674226Y-91077000D01*
X139925774Y-91077000D01*
X140172487Y-91027926D01*
X140404886Y-90931663D01*
X140559434Y-90828397D01*
X141491208Y-90828397D01*
X141568843Y-91077472D01*
X141832883Y-91203371D01*
X142116411Y-91275339D01*
X142408531Y-91290611D01*
X142698019Y-91248599D01*
X142973747Y-91150919D01*
X143111157Y-91077472D01*
X143188792Y-90828397D01*
X142340000Y-89979605D01*
X141491208Y-90828397D01*
X140559434Y-90828397D01*
X140614040Y-90791911D01*
X140791911Y-90614040D01*
X140931663Y-90404886D01*
X140957101Y-90343474D01*
X140989081Y-90433747D01*
X141062528Y-90571157D01*
X141311603Y-90648792D01*
X142160395Y-89800000D01*
X142519605Y-89800000D01*
X143368397Y-90648792D01*
X143617472Y-90571157D01*
X143743371Y-90307117D01*
X143815339Y-90023589D01*
X143830611Y-89731469D01*
X143788599Y-89441981D01*
X143690919Y-89166253D01*
X143617472Y-89028843D01*
X143368397Y-88951208D01*
X142519605Y-89800000D01*
X142160395Y-89800000D01*
X141311603Y-88951208D01*
X141062528Y-89028843D01*
X140955643Y-89253006D01*
X140931663Y-89195114D01*
X140791911Y-88985960D01*
X140614040Y-88808089D01*
X140404886Y-88668337D01*
X140172487Y-88572074D01*
X139960966Y-88530000D01*
X140172487Y-88487926D01*
X140404886Y-88391663D01*
X140614040Y-88251911D01*
X140791911Y-88074040D01*
X140931663Y-87864886D01*
X141027926Y-87632487D01*
X141070000Y-87420966D01*
X141112074Y-87632487D01*
X141208337Y-87864886D01*
X141348089Y-88074040D01*
X141525960Y-88251911D01*
X141735114Y-88391663D01*
X141796526Y-88417101D01*
X141706253Y-88449081D01*
X141568843Y-88522528D01*
X141491208Y-88771603D01*
X142340000Y-89620395D01*
X143188792Y-88771603D01*
X143111157Y-88522528D01*
X142893087Y-88418548D01*
X145073000Y-88418548D01*
X145073000Y-88581452D01*
X145104782Y-88741227D01*
X145167123Y-88891731D01*
X145257628Y-89027181D01*
X145372819Y-89142372D01*
X145508269Y-89232877D01*
X145658773Y-89295218D01*
X145818548Y-89327000D01*
X145981452Y-89327000D01*
X146141227Y-89295218D01*
X146291731Y-89232877D01*
X146427181Y-89142372D01*
X146542372Y-89027181D01*
X146632877Y-88891731D01*
X146695218Y-88741227D01*
X146727000Y-88581452D01*
X146727000Y-88418548D01*
X146695218Y-88258773D01*
X146632877Y-88108269D01*
X146542372Y-87972819D01*
X146427181Y-87857628D01*
X146291731Y-87767123D01*
X146141227Y-87704782D01*
X145981452Y-87673000D01*
X145818548Y-87673000D01*
X145658773Y-87704782D01*
X145508269Y-87767123D01*
X145372819Y-87857628D01*
X145257628Y-87972819D01*
X145167123Y-88108269D01*
X145104782Y-88258773D01*
X145073000Y-88418548D01*
X142893087Y-88418548D01*
X142886994Y-88415643D01*
X142944886Y-88391663D01*
X143154040Y-88251911D01*
X143331911Y-88074040D01*
X143471663Y-87864886D01*
X143567926Y-87632487D01*
X143617000Y-87385774D01*
X143617000Y-87134226D01*
X143567926Y-86887513D01*
X143471663Y-86655114D01*
X143331911Y-86445960D01*
X143154040Y-86268089D01*
X142944886Y-86128337D01*
X142712487Y-86032074D01*
X142465774Y-85983000D01*
X142214226Y-85983000D01*
X141967513Y-86032074D01*
X141735114Y-86128337D01*
X141525960Y-86268089D01*
X141348089Y-86445960D01*
X141208337Y-86655114D01*
X141112074Y-86887513D01*
X141070000Y-87099034D01*
X141027926Y-86887513D01*
X140931663Y-86655114D01*
X140791911Y-86445960D01*
X140614040Y-86268089D01*
X140404886Y-86128337D01*
X140172487Y-86032074D01*
X139925774Y-85983000D01*
X139674226Y-85983000D01*
X139427513Y-86032074D01*
X139195114Y-86128337D01*
X138985960Y-86268089D01*
X138808089Y-86445960D01*
X138668337Y-86655114D01*
X138572074Y-86887513D01*
X138530000Y-87099034D01*
X138487926Y-86887513D01*
X138391663Y-86655114D01*
X138251911Y-86445960D01*
X138074040Y-86268089D01*
X137864886Y-86128337D01*
X137632487Y-86032074D01*
X137385774Y-85983000D01*
X137134226Y-85983000D01*
X136887513Y-86032074D01*
X136655114Y-86128337D01*
X136445960Y-86268089D01*
X136268089Y-86445960D01*
X136128337Y-86655114D01*
X136032074Y-86887513D01*
X135990000Y-87099034D01*
X135947926Y-86887513D01*
X135851663Y-86655114D01*
X135711911Y-86445960D01*
X135534040Y-86268089D01*
X135324886Y-86128337D01*
X135092487Y-86032074D01*
X134845774Y-85983000D01*
X134594226Y-85983000D01*
X134347513Y-86032074D01*
X134115114Y-86128337D01*
X133905960Y-86268089D01*
X133728089Y-86445960D01*
X133588337Y-86655114D01*
X133492074Y-86887513D01*
X133450000Y-87099034D01*
X133407926Y-86887513D01*
X133311663Y-86655114D01*
X133171911Y-86445960D01*
X132994040Y-86268089D01*
X132784886Y-86128337D01*
X132552487Y-86032074D01*
X132305774Y-85983000D01*
X132054226Y-85983000D01*
X131807513Y-86032074D01*
X131575114Y-86128337D01*
X131365960Y-86268089D01*
X131188089Y-86445960D01*
X131048337Y-86655114D01*
X130952074Y-86887513D01*
X130903000Y-87134226D01*
X130903000Y-87385774D01*
X130952074Y-87632487D01*
X131048337Y-87864886D01*
X131188089Y-88074040D01*
X131365960Y-88251911D01*
X131456815Y-88312618D01*
X131330000Y-88311928D01*
X131205518Y-88324188D01*
X131085820Y-88360498D01*
X130975506Y-88419463D01*
X130878815Y-88498815D01*
X130799463Y-88595506D01*
X130740498Y-88705820D01*
X130704188Y-88825518D01*
X130691928Y-88950000D01*
X104477000Y-88950000D01*
X104477000Y-85150000D01*
X148720934Y-85150000D01*
X148720934Y-86850000D01*
X148729178Y-86933707D01*
X148753595Y-87014196D01*
X148793245Y-87088376D01*
X148846605Y-87153395D01*
X148911624Y-87206755D01*
X148985804Y-87246405D01*
X149066293Y-87270822D01*
X149150000Y-87279066D01*
X149793456Y-87279066D01*
X149627513Y-87312074D01*
X149395114Y-87408337D01*
X149185960Y-87548089D01*
X149008089Y-87725960D01*
X148868337Y-87935114D01*
X148772074Y-88167513D01*
X148723000Y-88414226D01*
X148723000Y-88665774D01*
X148772074Y-88912487D01*
X148868337Y-89144886D01*
X149008089Y-89354040D01*
X149185960Y-89531911D01*
X149395114Y-89671663D01*
X149627513Y-89767926D01*
X149839034Y-89810000D01*
X149627513Y-89852074D01*
X149395114Y-89948337D01*
X149185960Y-90088089D01*
X149008089Y-90265960D01*
X148868337Y-90475114D01*
X148772074Y-90707513D01*
X148723000Y-90954226D01*
X148723000Y-91205774D01*
X148772074Y-91452487D01*
X148868337Y-91684886D01*
X149008089Y-91894040D01*
X149185960Y-92071911D01*
X149395114Y-92211663D01*
X149627513Y-92307926D01*
X149874226Y-92357000D01*
X150125774Y-92357000D01*
X150372487Y-92307926D01*
X150604886Y-92211663D01*
X150814040Y-92071911D01*
X150991911Y-91894040D01*
X151131663Y-91684886D01*
X151227926Y-91452487D01*
X151270000Y-91240966D01*
X151312074Y-91452487D01*
X151408337Y-91684886D01*
X151548089Y-91894040D01*
X151725960Y-92071911D01*
X151935114Y-92211663D01*
X152167513Y-92307926D01*
X152414226Y-92357000D01*
X152665774Y-92357000D01*
X152912487Y-92307926D01*
X153144886Y-92211663D01*
X153354040Y-92071911D01*
X153531911Y-91894040D01*
X153671663Y-91684886D01*
X153767926Y-91452487D01*
X153817000Y-91205774D01*
X153817000Y-90954226D01*
X153767926Y-90707513D01*
X153671663Y-90475114D01*
X153531911Y-90265960D01*
X153354040Y-90088089D01*
X153144886Y-89948337D01*
X152912487Y-89852074D01*
X152700966Y-89810000D01*
X152912487Y-89767926D01*
X153144886Y-89671663D01*
X153354040Y-89531911D01*
X153531911Y-89354040D01*
X153671663Y-89144886D01*
X153767926Y-88912487D01*
X153817000Y-88665774D01*
X153817000Y-88518548D01*
X160373000Y-88518548D01*
X160373000Y-88681452D01*
X160404782Y-88841227D01*
X160467123Y-88991731D01*
X160557628Y-89127181D01*
X160672819Y-89242372D01*
X160808269Y-89332877D01*
X160958773Y-89395218D01*
X161118548Y-89427000D01*
X161281452Y-89427000D01*
X161441227Y-89395218D01*
X161591731Y-89332877D01*
X161727181Y-89242372D01*
X161842372Y-89127181D01*
X161932877Y-88991731D01*
X161995218Y-88841227D01*
X162027000Y-88681452D01*
X162027000Y-88518548D01*
X161995218Y-88358773D01*
X161932877Y-88208269D01*
X161842372Y-88072819D01*
X161727181Y-87957628D01*
X161591731Y-87867123D01*
X161441227Y-87804782D01*
X161281452Y-87773000D01*
X161118548Y-87773000D01*
X160958773Y-87804782D01*
X160808269Y-87867123D01*
X160672819Y-87957628D01*
X160557628Y-88072819D01*
X160467123Y-88208269D01*
X160404782Y-88358773D01*
X160373000Y-88518548D01*
X153817000Y-88518548D01*
X153817000Y-88414226D01*
X153767926Y-88167513D01*
X153671663Y-87935114D01*
X153531911Y-87725960D01*
X153354040Y-87548089D01*
X153144886Y-87408337D01*
X153073584Y-87378803D01*
X153171252Y-87344157D01*
X153421355Y-87195178D01*
X153637588Y-87000269D01*
X153811641Y-86766920D01*
X153936825Y-86504099D01*
X153981476Y-86356890D01*
X153860155Y-86127000D01*
X152667000Y-86127000D01*
X152667000Y-86147000D01*
X152413000Y-86147000D01*
X152413000Y-86127000D01*
X152393000Y-86127000D01*
X152393000Y-85873000D01*
X152413000Y-85873000D01*
X152413000Y-84679186D01*
X152667000Y-84679186D01*
X152667000Y-85873000D01*
X153860155Y-85873000D01*
X153981476Y-85643110D01*
X153936825Y-85495901D01*
X153811641Y-85233080D01*
X153637588Y-84999731D01*
X153421355Y-84804822D01*
X153171252Y-84655843D01*
X152896891Y-84558519D01*
X152667000Y-84679186D01*
X152413000Y-84679186D01*
X152183109Y-84558519D01*
X151908748Y-84655843D01*
X151658645Y-84804822D01*
X151442412Y-84999731D01*
X151279066Y-85218725D01*
X151279066Y-85150000D01*
X151270822Y-85066293D01*
X151246405Y-84985804D01*
X151206755Y-84911624D01*
X151153395Y-84846605D01*
X151088376Y-84793245D01*
X151014196Y-84753595D01*
X150933707Y-84729178D01*
X150850000Y-84720934D01*
X149150000Y-84720934D01*
X149066293Y-84729178D01*
X148985804Y-84753595D01*
X148911624Y-84793245D01*
X148846605Y-84846605D01*
X148793245Y-84911624D01*
X148753595Y-84985804D01*
X148729178Y-85066293D01*
X148720934Y-85150000D01*
X104477000Y-85150000D01*
X104477000Y-84118548D01*
X146573000Y-84118548D01*
X146573000Y-84281452D01*
X146604782Y-84441227D01*
X146667123Y-84591731D01*
X146757628Y-84727181D01*
X146872819Y-84842372D01*
X147008269Y-84932877D01*
X147158773Y-84995218D01*
X147318548Y-85027000D01*
X147481452Y-85027000D01*
X147641227Y-84995218D01*
X147791731Y-84932877D01*
X147927181Y-84842372D01*
X148042372Y-84727181D01*
X148132877Y-84591731D01*
X148195218Y-84441227D01*
X148227000Y-84281452D01*
X148227000Y-84118548D01*
X148195218Y-83958773D01*
X148132877Y-83808269D01*
X148042372Y-83672819D01*
X147927181Y-83557628D01*
X147791731Y-83467123D01*
X147641227Y-83404782D01*
X147481452Y-83373000D01*
X147318548Y-83373000D01*
X147158773Y-83404782D01*
X147008269Y-83467123D01*
X146872819Y-83557628D01*
X146757628Y-83672819D01*
X146667123Y-83808269D01*
X146604782Y-83958773D01*
X146573000Y-84118548D01*
X104477000Y-84118548D01*
X104477000Y-82764531D01*
X146215074Y-82764531D01*
X146325921Y-83041714D01*
X146636840Y-83195089D01*
X146971705Y-83284860D01*
X147317650Y-83307576D01*
X147661380Y-83262366D01*
X147989685Y-83150966D01*
X148194079Y-83041714D01*
X148304926Y-82764531D01*
X151295074Y-82764531D01*
X151405921Y-83041714D01*
X151716840Y-83195089D01*
X152051705Y-83284860D01*
X152397650Y-83307576D01*
X152741380Y-83262366D01*
X153069685Y-83150966D01*
X153274079Y-83041714D01*
X153384926Y-82764531D01*
X152340000Y-81719605D01*
X151295074Y-82764531D01*
X148304926Y-82764531D01*
X147260000Y-81719605D01*
X146215074Y-82764531D01*
X104477000Y-82764531D01*
X104477000Y-81718548D01*
X132373000Y-81718548D01*
X132373000Y-81881452D01*
X132404782Y-82041227D01*
X132467123Y-82191731D01*
X132557628Y-82327181D01*
X132672819Y-82442372D01*
X132808269Y-82532877D01*
X132958773Y-82595218D01*
X133118548Y-82627000D01*
X133281452Y-82627000D01*
X133441227Y-82595218D01*
X133591731Y-82532877D01*
X133727181Y-82442372D01*
X133842372Y-82327181D01*
X133932877Y-82191731D01*
X133995218Y-82041227D01*
X134027000Y-81881452D01*
X134027000Y-81718548D01*
X134002952Y-81597650D01*
X145492424Y-81597650D01*
X145537634Y-81941380D01*
X145649034Y-82269685D01*
X145758286Y-82474079D01*
X146035469Y-82584926D01*
X147080395Y-81540000D01*
X147439605Y-81540000D01*
X148484531Y-82584926D01*
X148761714Y-82474079D01*
X148915089Y-82163160D01*
X149004860Y-81828295D01*
X149020004Y-81597650D01*
X150572424Y-81597650D01*
X150617634Y-81941380D01*
X150729034Y-82269685D01*
X150838286Y-82474079D01*
X151115469Y-82584926D01*
X152160395Y-81540000D01*
X152519605Y-81540000D01*
X153564531Y-82584926D01*
X153841714Y-82474079D01*
X153995089Y-82163160D01*
X154084860Y-81828295D01*
X154107576Y-81482350D01*
X154062366Y-81138620D01*
X153950966Y-80810315D01*
X153841714Y-80605921D01*
X153564531Y-80495074D01*
X152519605Y-81540000D01*
X152160395Y-81540000D01*
X151115469Y-80495074D01*
X150838286Y-80605921D01*
X150684911Y-80916840D01*
X150595140Y-81251705D01*
X150572424Y-81597650D01*
X149020004Y-81597650D01*
X149027576Y-81482350D01*
X148982366Y-81138620D01*
X148870966Y-80810315D01*
X148761714Y-80605921D01*
X148484531Y-80495074D01*
X147439605Y-81540000D01*
X147080395Y-81540000D01*
X146035469Y-80495074D01*
X145758286Y-80605921D01*
X145604911Y-80916840D01*
X145515140Y-81251705D01*
X145492424Y-81597650D01*
X134002952Y-81597650D01*
X133995218Y-81558773D01*
X133932877Y-81408269D01*
X133842372Y-81272819D01*
X133727181Y-81157628D01*
X133591731Y-81067123D01*
X133441227Y-81004782D01*
X133281452Y-80973000D01*
X133118548Y-80973000D01*
X132958773Y-81004782D01*
X132808269Y-81067123D01*
X132672819Y-81157628D01*
X132557628Y-81272819D01*
X132467123Y-81408269D01*
X132404782Y-81558773D01*
X132373000Y-81718548D01*
X104477000Y-81718548D01*
X104477000Y-80418548D01*
X139573000Y-80418548D01*
X139573000Y-80581452D01*
X139604782Y-80741227D01*
X139667123Y-80891731D01*
X139757628Y-81027181D01*
X139872819Y-81142372D01*
X140008269Y-81232877D01*
X140158773Y-81295218D01*
X140318548Y-81327000D01*
X140481452Y-81327000D01*
X140641227Y-81295218D01*
X140791731Y-81232877D01*
X140927181Y-81142372D01*
X141042372Y-81027181D01*
X141132877Y-80891731D01*
X141195218Y-80741227D01*
X141227000Y-80581452D01*
X141227000Y-80418548D01*
X141206496Y-80315469D01*
X146215074Y-80315469D01*
X147260000Y-81360395D01*
X148304926Y-80315469D01*
X148194079Y-80038286D01*
X147883160Y-79884911D01*
X147548295Y-79795140D01*
X147202350Y-79772424D01*
X146858620Y-79817634D01*
X146530315Y-79929034D01*
X146325921Y-80038286D01*
X146215074Y-80315469D01*
X141206496Y-80315469D01*
X141195218Y-80258773D01*
X141132877Y-80108269D01*
X141042372Y-79972819D01*
X140927181Y-79857628D01*
X140791731Y-79767123D01*
X140641227Y-79704782D01*
X140481452Y-79673000D01*
X140318548Y-79673000D01*
X140158773Y-79704782D01*
X140008269Y-79767123D01*
X139872819Y-79857628D01*
X139757628Y-79972819D01*
X139667123Y-80108269D01*
X139604782Y-80258773D01*
X139573000Y-80418548D01*
X104477000Y-80418548D01*
X104477000Y-79133548D01*
X120773000Y-79133548D01*
X120773000Y-79296452D01*
X120804782Y-79456227D01*
X120867123Y-79606731D01*
X120957628Y-79742181D01*
X121072819Y-79857372D01*
X121208269Y-79947877D01*
X121358773Y-80010218D01*
X121518548Y-80042000D01*
X121681452Y-80042000D01*
X121841227Y-80010218D01*
X121991731Y-79947877D01*
X122127181Y-79857372D01*
X122242372Y-79742181D01*
X122332877Y-79606731D01*
X122395218Y-79456227D01*
X122427000Y-79296452D01*
X122427000Y-79133548D01*
X122395218Y-78973773D01*
X122332877Y-78823269D01*
X122242372Y-78687819D01*
X122173101Y-78618548D01*
X139573000Y-78618548D01*
X139573000Y-78781452D01*
X139604782Y-78941227D01*
X139667123Y-79091731D01*
X139757628Y-79227181D01*
X139872819Y-79342372D01*
X140008269Y-79432877D01*
X140158773Y-79495218D01*
X140318548Y-79527000D01*
X140481452Y-79527000D01*
X140641227Y-79495218D01*
X140791731Y-79432877D01*
X140927181Y-79342372D01*
X141042372Y-79227181D01*
X141132877Y-79091731D01*
X141195218Y-78941227D01*
X141211974Y-78856990D01*
X148348000Y-78856990D01*
X148348000Y-79143010D01*
X148403799Y-79423533D01*
X148513254Y-79687780D01*
X148672158Y-79925596D01*
X148874404Y-80127842D01*
X149112220Y-80286746D01*
X149376467Y-80396201D01*
X149656990Y-80452000D01*
X149943010Y-80452000D01*
X150223533Y-80396201D01*
X150418436Y-80315469D01*
X151295074Y-80315469D01*
X152340000Y-81360395D01*
X153384926Y-80315469D01*
X153274079Y-80038286D01*
X152963160Y-79884911D01*
X152628295Y-79795140D01*
X152282350Y-79772424D01*
X151938620Y-79817634D01*
X151610315Y-79929034D01*
X151405921Y-80038286D01*
X151295074Y-80315469D01*
X150418436Y-80315469D01*
X150487780Y-80286746D01*
X150725596Y-80127842D01*
X150927842Y-79925596D01*
X151086746Y-79687780D01*
X151196201Y-79423533D01*
X151252000Y-79143010D01*
X151252000Y-78856990D01*
X151196201Y-78576467D01*
X151086746Y-78312220D01*
X150927842Y-78074404D01*
X150725596Y-77872158D01*
X150487780Y-77713254D01*
X150418437Y-77684531D01*
X151295074Y-77684531D01*
X151405921Y-77961714D01*
X151716840Y-78115089D01*
X152051705Y-78204860D01*
X152397650Y-78227576D01*
X152741380Y-78182366D01*
X153069685Y-78070966D01*
X153274079Y-77961714D01*
X153384926Y-77684531D01*
X152340000Y-76639605D01*
X151295074Y-77684531D01*
X150418437Y-77684531D01*
X150223533Y-77603799D01*
X149943010Y-77548000D01*
X149656990Y-77548000D01*
X149376467Y-77603799D01*
X149112220Y-77713254D01*
X148874404Y-77872158D01*
X148672158Y-78074404D01*
X148513254Y-78312220D01*
X148403799Y-78576467D01*
X148348000Y-78856990D01*
X141211974Y-78856990D01*
X141227000Y-78781452D01*
X141227000Y-78618548D01*
X141195218Y-78458773D01*
X141132877Y-78308269D01*
X141042372Y-78172819D01*
X140927181Y-78057628D01*
X140791731Y-77967123D01*
X140641227Y-77904782D01*
X140481452Y-77873000D01*
X140318548Y-77873000D01*
X140158773Y-77904782D01*
X140008269Y-77967123D01*
X139872819Y-78057628D01*
X139757628Y-78172819D01*
X139667123Y-78308269D01*
X139604782Y-78458773D01*
X139573000Y-78618548D01*
X122173101Y-78618548D01*
X122127181Y-78572628D01*
X121991731Y-78482123D01*
X121841227Y-78419782D01*
X121681452Y-78388000D01*
X121518548Y-78388000D01*
X121358773Y-78419782D01*
X121208269Y-78482123D01*
X121072819Y-78572628D01*
X120957628Y-78687819D01*
X120867123Y-78823269D01*
X120804782Y-78973773D01*
X120773000Y-79133548D01*
X104477000Y-79133548D01*
X104477000Y-77684531D01*
X146215074Y-77684531D01*
X146325921Y-77961714D01*
X146636840Y-78115089D01*
X146971705Y-78204860D01*
X147317650Y-78227576D01*
X147661380Y-78182366D01*
X147989685Y-78070966D01*
X148194079Y-77961714D01*
X148304926Y-77684531D01*
X147260000Y-76639605D01*
X146215074Y-77684531D01*
X104477000Y-77684531D01*
X104477000Y-76518548D01*
X114773000Y-76518548D01*
X114773000Y-76681452D01*
X114804782Y-76841227D01*
X114867123Y-76991731D01*
X114957628Y-77127181D01*
X115072819Y-77242372D01*
X115208269Y-77332877D01*
X115358773Y-77395218D01*
X115518548Y-77427000D01*
X115681452Y-77427000D01*
X115841227Y-77395218D01*
X115991731Y-77332877D01*
X116127181Y-77242372D01*
X116242372Y-77127181D01*
X116332877Y-76991731D01*
X116395218Y-76841227D01*
X116419620Y-76718548D01*
X127573000Y-76718548D01*
X127573000Y-76881452D01*
X127604782Y-77041227D01*
X127667123Y-77191731D01*
X127757628Y-77327181D01*
X127872819Y-77442372D01*
X128008269Y-77532877D01*
X128158773Y-77595218D01*
X128318548Y-77627000D01*
X128481452Y-77627000D01*
X128641227Y-77595218D01*
X128791731Y-77532877D01*
X128927181Y-77442372D01*
X129042372Y-77327181D01*
X129132877Y-77191731D01*
X129195218Y-77041227D01*
X129227000Y-76881452D01*
X129227000Y-76718548D01*
X129195218Y-76558773D01*
X129178185Y-76517650D01*
X145492424Y-76517650D01*
X145537634Y-76861380D01*
X145649034Y-77189685D01*
X145758286Y-77394079D01*
X146035469Y-77504926D01*
X147080395Y-76460000D01*
X147439605Y-76460000D01*
X148484531Y-77504926D01*
X148761714Y-77394079D01*
X148915089Y-77083160D01*
X149004860Y-76748295D01*
X149020004Y-76517650D01*
X150572424Y-76517650D01*
X150617634Y-76861380D01*
X150729034Y-77189685D01*
X150838286Y-77394079D01*
X151115469Y-77504926D01*
X152160395Y-76460000D01*
X152519605Y-76460000D01*
X153564531Y-77504926D01*
X153841714Y-77394079D01*
X153995089Y-77083160D01*
X154084860Y-76748295D01*
X154107576Y-76402350D01*
X154062366Y-76058620D01*
X153950966Y-75730315D01*
X153841714Y-75525921D01*
X153564531Y-75415074D01*
X152519605Y-76460000D01*
X152160395Y-76460000D01*
X151115469Y-75415074D01*
X150838286Y-75525921D01*
X150684911Y-75836840D01*
X150595140Y-76171705D01*
X150572424Y-76517650D01*
X149020004Y-76517650D01*
X149027576Y-76402350D01*
X148982366Y-76058620D01*
X148870966Y-75730315D01*
X148761714Y-75525921D01*
X148484531Y-75415074D01*
X147439605Y-76460000D01*
X147080395Y-76460000D01*
X146035469Y-75415074D01*
X145758286Y-75525921D01*
X145604911Y-75836840D01*
X145515140Y-76171705D01*
X145492424Y-76517650D01*
X129178185Y-76517650D01*
X129132877Y-76408269D01*
X129042372Y-76272819D01*
X128927181Y-76157628D01*
X128791731Y-76067123D01*
X128641227Y-76004782D01*
X128481452Y-75973000D01*
X128318548Y-75973000D01*
X128158773Y-76004782D01*
X128008269Y-76067123D01*
X127872819Y-76157628D01*
X127757628Y-76272819D01*
X127667123Y-76408269D01*
X127604782Y-76558773D01*
X127573000Y-76718548D01*
X116419620Y-76718548D01*
X116427000Y-76681452D01*
X116427000Y-76518548D01*
X116395218Y-76358773D01*
X116332877Y-76208269D01*
X116242372Y-76072819D01*
X116127181Y-75957628D01*
X115991731Y-75867123D01*
X115841227Y-75804782D01*
X115681452Y-75773000D01*
X115518548Y-75773000D01*
X115358773Y-75804782D01*
X115208269Y-75867123D01*
X115072819Y-75957628D01*
X114957628Y-76072819D01*
X114867123Y-76208269D01*
X114804782Y-76358773D01*
X114773000Y-76518548D01*
X104477000Y-76518548D01*
X104477000Y-74518548D01*
X133773000Y-74518548D01*
X133773000Y-74681452D01*
X133804782Y-74841227D01*
X133867123Y-74991731D01*
X133957628Y-75127181D01*
X134072819Y-75242372D01*
X134208269Y-75332877D01*
X134358773Y-75395218D01*
X134518548Y-75427000D01*
X134681452Y-75427000D01*
X134841227Y-75395218D01*
X134991731Y-75332877D01*
X135127181Y-75242372D01*
X135134084Y-75235469D01*
X146215074Y-75235469D01*
X147260000Y-76280395D01*
X148304926Y-75235469D01*
X151295074Y-75235469D01*
X152340000Y-76280395D01*
X153384926Y-75235469D01*
X153274079Y-74958286D01*
X152963160Y-74804911D01*
X152628295Y-74715140D01*
X152282350Y-74692424D01*
X151938620Y-74737634D01*
X151610315Y-74849034D01*
X151405921Y-74958286D01*
X151295074Y-75235469D01*
X148304926Y-75235469D01*
X148194079Y-74958286D01*
X147883160Y-74804911D01*
X147548295Y-74715140D01*
X147202350Y-74692424D01*
X146858620Y-74737634D01*
X146530315Y-74849034D01*
X146325921Y-74958286D01*
X146215074Y-75235469D01*
X135134084Y-75235469D01*
X135242372Y-75127181D01*
X135332877Y-74991731D01*
X135395218Y-74841227D01*
X135427000Y-74681452D01*
X135427000Y-74518548D01*
X135395218Y-74358773D01*
X135332877Y-74208269D01*
X135242372Y-74072819D01*
X135127181Y-73957628D01*
X134991731Y-73867123D01*
X134841227Y-73804782D01*
X134681452Y-73773000D01*
X134518548Y-73773000D01*
X134358773Y-73804782D01*
X134208269Y-73867123D01*
X134072819Y-73957628D01*
X133957628Y-74072819D01*
X133867123Y-74208269D01*
X133804782Y-74358773D01*
X133773000Y-74518548D01*
X104477000Y-74518548D01*
X104477000Y-72381048D01*
X138035500Y-72381048D01*
X138035500Y-72543952D01*
X138067282Y-72703727D01*
X138129623Y-72854231D01*
X138220128Y-72989681D01*
X138335319Y-73104872D01*
X138470769Y-73195377D01*
X138621273Y-73257718D01*
X138781048Y-73289500D01*
X138943952Y-73289500D01*
X139103727Y-73257718D01*
X139254231Y-73195377D01*
X139389681Y-73104872D01*
X139504872Y-72989681D01*
X139552401Y-72918548D01*
X145973000Y-72918548D01*
X145973000Y-73081452D01*
X146004782Y-73241227D01*
X146067123Y-73391731D01*
X146157628Y-73527181D01*
X146272819Y-73642372D01*
X146408269Y-73732877D01*
X146558773Y-73795218D01*
X146718548Y-73827000D01*
X146881452Y-73827000D01*
X147041227Y-73795218D01*
X147191731Y-73732877D01*
X147327181Y-73642372D01*
X147442372Y-73527181D01*
X147532877Y-73391731D01*
X147595218Y-73241227D01*
X147627000Y-73081452D01*
X147627000Y-72918548D01*
X147973000Y-72918548D01*
X147973000Y-73081452D01*
X148004782Y-73241227D01*
X148067123Y-73391731D01*
X148157628Y-73527181D01*
X148272819Y-73642372D01*
X148408269Y-73732877D01*
X148558773Y-73795218D01*
X148718548Y-73827000D01*
X148881452Y-73827000D01*
X149041227Y-73795218D01*
X149191731Y-73732877D01*
X149327181Y-73642372D01*
X149442372Y-73527181D01*
X149532877Y-73391731D01*
X149595218Y-73241227D01*
X149627000Y-73081452D01*
X149627000Y-72918548D01*
X149973000Y-72918548D01*
X149973000Y-73081452D01*
X150004782Y-73241227D01*
X150067123Y-73391731D01*
X150157628Y-73527181D01*
X150272819Y-73642372D01*
X150408269Y-73732877D01*
X150558773Y-73795218D01*
X150718548Y-73827000D01*
X150881452Y-73827000D01*
X151041227Y-73795218D01*
X151191731Y-73732877D01*
X151327181Y-73642372D01*
X151442372Y-73527181D01*
X151532877Y-73391731D01*
X151595218Y-73241227D01*
X151627000Y-73081452D01*
X151627000Y-72918548D01*
X151973000Y-72918548D01*
X151973000Y-73081452D01*
X152004782Y-73241227D01*
X152067123Y-73391731D01*
X152157628Y-73527181D01*
X152272819Y-73642372D01*
X152408269Y-73732877D01*
X152558773Y-73795218D01*
X152718548Y-73827000D01*
X152881452Y-73827000D01*
X153041227Y-73795218D01*
X153191731Y-73732877D01*
X153327181Y-73642372D01*
X153442372Y-73527181D01*
X153532877Y-73391731D01*
X153595218Y-73241227D01*
X153627000Y-73081452D01*
X153627000Y-72918548D01*
X153595218Y-72758773D01*
X153532877Y-72608269D01*
X153442372Y-72472819D01*
X153327181Y-72357628D01*
X153191731Y-72267123D01*
X153041227Y-72204782D01*
X152881452Y-72173000D01*
X152718548Y-72173000D01*
X152558773Y-72204782D01*
X152408269Y-72267123D01*
X152272819Y-72357628D01*
X152157628Y-72472819D01*
X152067123Y-72608269D01*
X152004782Y-72758773D01*
X151973000Y-72918548D01*
X151627000Y-72918548D01*
X151595218Y-72758773D01*
X151532877Y-72608269D01*
X151442372Y-72472819D01*
X151327181Y-72357628D01*
X151191731Y-72267123D01*
X151041227Y-72204782D01*
X150881452Y-72173000D01*
X150718548Y-72173000D01*
X150558773Y-72204782D01*
X150408269Y-72267123D01*
X150272819Y-72357628D01*
X150157628Y-72472819D01*
X150067123Y-72608269D01*
X150004782Y-72758773D01*
X149973000Y-72918548D01*
X149627000Y-72918548D01*
X149595218Y-72758773D01*
X149532877Y-72608269D01*
X149442372Y-72472819D01*
X149327181Y-72357628D01*
X149191731Y-72267123D01*
X149041227Y-72204782D01*
X148881452Y-72173000D01*
X148718548Y-72173000D01*
X148558773Y-72204782D01*
X148408269Y-72267123D01*
X148272819Y-72357628D01*
X148157628Y-72472819D01*
X148067123Y-72608269D01*
X148004782Y-72758773D01*
X147973000Y-72918548D01*
X147627000Y-72918548D01*
X147595218Y-72758773D01*
X147532877Y-72608269D01*
X147442372Y-72472819D01*
X147327181Y-72357628D01*
X147191731Y-72267123D01*
X147041227Y-72204782D01*
X146881452Y-72173000D01*
X146718548Y-72173000D01*
X146558773Y-72204782D01*
X146408269Y-72267123D01*
X146272819Y-72357628D01*
X146157628Y-72472819D01*
X146067123Y-72608269D01*
X146004782Y-72758773D01*
X145973000Y-72918548D01*
X139552401Y-72918548D01*
X139595377Y-72854231D01*
X139657718Y-72703727D01*
X139689500Y-72543952D01*
X139689500Y-72381048D01*
X139657718Y-72221273D01*
X139595377Y-72070769D01*
X139504872Y-71935319D01*
X139389681Y-71820128D01*
X139254231Y-71729623D01*
X139103727Y-71667282D01*
X138943952Y-71635500D01*
X138781048Y-71635500D01*
X138621273Y-71667282D01*
X138470769Y-71729623D01*
X138335319Y-71820128D01*
X138220128Y-71935319D01*
X138129623Y-72070769D01*
X138067282Y-72221273D01*
X138035500Y-72381048D01*
X104477000Y-72381048D01*
X104477000Y-70918548D01*
X145973000Y-70918548D01*
X145973000Y-71081452D01*
X146004782Y-71241227D01*
X146067123Y-71391731D01*
X146157628Y-71527181D01*
X146272819Y-71642372D01*
X146408269Y-71732877D01*
X146558773Y-71795218D01*
X146718548Y-71827000D01*
X146881452Y-71827000D01*
X147041227Y-71795218D01*
X147191731Y-71732877D01*
X147327181Y-71642372D01*
X147442372Y-71527181D01*
X147532877Y-71391731D01*
X147595218Y-71241227D01*
X147627000Y-71081452D01*
X147627000Y-70918548D01*
X147973000Y-70918548D01*
X147973000Y-71081452D01*
X148004782Y-71241227D01*
X148067123Y-71391731D01*
X148157628Y-71527181D01*
X148272819Y-71642372D01*
X148408269Y-71732877D01*
X148558773Y-71795218D01*
X148718548Y-71827000D01*
X148881452Y-71827000D01*
X149041227Y-71795218D01*
X149191731Y-71732877D01*
X149327181Y-71642372D01*
X149442372Y-71527181D01*
X149532877Y-71391731D01*
X149595218Y-71241227D01*
X149627000Y-71081452D01*
X149627000Y-70918548D01*
X151973000Y-70918548D01*
X151973000Y-71081452D01*
X152004782Y-71241227D01*
X152067123Y-71391731D01*
X152157628Y-71527181D01*
X152272819Y-71642372D01*
X152408269Y-71732877D01*
X152558773Y-71795218D01*
X152718548Y-71827000D01*
X152881452Y-71827000D01*
X153041227Y-71795218D01*
X153191731Y-71732877D01*
X153327181Y-71642372D01*
X153442372Y-71527181D01*
X153448140Y-71518548D01*
X158573000Y-71518548D01*
X158573000Y-71681452D01*
X158604782Y-71841227D01*
X158667123Y-71991731D01*
X158757628Y-72127181D01*
X158872819Y-72242372D01*
X159008269Y-72332877D01*
X159158773Y-72395218D01*
X159318548Y-72427000D01*
X159481452Y-72427000D01*
X159641227Y-72395218D01*
X159791731Y-72332877D01*
X159927181Y-72242372D01*
X160042372Y-72127181D01*
X160132877Y-71991731D01*
X160195218Y-71841227D01*
X160227000Y-71681452D01*
X160227000Y-71518548D01*
X160195218Y-71358773D01*
X160132877Y-71208269D01*
X160042372Y-71072819D01*
X159927181Y-70957628D01*
X159868694Y-70918548D01*
X161973000Y-70918548D01*
X161973000Y-71081452D01*
X162004782Y-71241227D01*
X162067123Y-71391731D01*
X162157628Y-71527181D01*
X162272819Y-71642372D01*
X162408269Y-71732877D01*
X162558773Y-71795218D01*
X162718548Y-71827000D01*
X162881452Y-71827000D01*
X163041227Y-71795218D01*
X163191731Y-71732877D01*
X163300000Y-71660534D01*
X163408269Y-71732877D01*
X163558773Y-71795218D01*
X163718548Y-71827000D01*
X163881452Y-71827000D01*
X164041227Y-71795218D01*
X164191731Y-71732877D01*
X164327181Y-71642372D01*
X164442372Y-71527181D01*
X164532877Y-71391731D01*
X164595218Y-71241227D01*
X164627000Y-71081452D01*
X164627000Y-70918548D01*
X164595218Y-70758773D01*
X164532877Y-70608269D01*
X164442372Y-70472819D01*
X164327181Y-70357628D01*
X164191731Y-70267123D01*
X164041227Y-70204782D01*
X163881452Y-70173000D01*
X163718548Y-70173000D01*
X163558773Y-70204782D01*
X163408269Y-70267123D01*
X163300000Y-70339466D01*
X163191731Y-70267123D01*
X163041227Y-70204782D01*
X162881452Y-70173000D01*
X162718548Y-70173000D01*
X162558773Y-70204782D01*
X162408269Y-70267123D01*
X162272819Y-70357628D01*
X162157628Y-70472819D01*
X162067123Y-70608269D01*
X162004782Y-70758773D01*
X161973000Y-70918548D01*
X159868694Y-70918548D01*
X159791731Y-70867123D01*
X159641227Y-70804782D01*
X159481452Y-70773000D01*
X159318548Y-70773000D01*
X159158773Y-70804782D01*
X159008269Y-70867123D01*
X158872819Y-70957628D01*
X158757628Y-71072819D01*
X158667123Y-71208269D01*
X158604782Y-71358773D01*
X158573000Y-71518548D01*
X153448140Y-71518548D01*
X153532877Y-71391731D01*
X153595218Y-71241227D01*
X153627000Y-71081452D01*
X153627000Y-70918548D01*
X153595218Y-70758773D01*
X153532877Y-70608269D01*
X153442372Y-70472819D01*
X153327181Y-70357628D01*
X153191731Y-70267123D01*
X153041227Y-70204782D01*
X152881452Y-70173000D01*
X152718548Y-70173000D01*
X152558773Y-70204782D01*
X152408269Y-70267123D01*
X152272819Y-70357628D01*
X152157628Y-70472819D01*
X152067123Y-70608269D01*
X152004782Y-70758773D01*
X151973000Y-70918548D01*
X149627000Y-70918548D01*
X149595218Y-70758773D01*
X149532877Y-70608269D01*
X149442372Y-70472819D01*
X149327181Y-70357628D01*
X149191731Y-70267123D01*
X149041227Y-70204782D01*
X148881452Y-70173000D01*
X148718548Y-70173000D01*
X148558773Y-70204782D01*
X148408269Y-70267123D01*
X148272819Y-70357628D01*
X148157628Y-70472819D01*
X148067123Y-70608269D01*
X148004782Y-70758773D01*
X147973000Y-70918548D01*
X147627000Y-70918548D01*
X147595218Y-70758773D01*
X147532877Y-70608269D01*
X147442372Y-70472819D01*
X147327181Y-70357628D01*
X147191731Y-70267123D01*
X147041227Y-70204782D01*
X146881452Y-70173000D01*
X146718548Y-70173000D01*
X146558773Y-70204782D01*
X146408269Y-70267123D01*
X146272819Y-70357628D01*
X146157628Y-70472819D01*
X146067123Y-70608269D01*
X146004782Y-70758773D01*
X145973000Y-70918548D01*
X104477000Y-70918548D01*
X104477000Y-68918548D01*
X145973000Y-68918548D01*
X145973000Y-69081452D01*
X146004782Y-69241227D01*
X146067123Y-69391731D01*
X146157628Y-69527181D01*
X146272819Y-69642372D01*
X146408269Y-69732877D01*
X146558773Y-69795218D01*
X146718548Y-69827000D01*
X146881452Y-69827000D01*
X147041227Y-69795218D01*
X147191731Y-69732877D01*
X147327181Y-69642372D01*
X147442372Y-69527181D01*
X147532877Y-69391731D01*
X147595218Y-69241227D01*
X147627000Y-69081452D01*
X147627000Y-68918548D01*
X147973000Y-68918548D01*
X147973000Y-69081452D01*
X148004782Y-69241227D01*
X148067123Y-69391731D01*
X148157628Y-69527181D01*
X148272819Y-69642372D01*
X148408269Y-69732877D01*
X148558773Y-69795218D01*
X148718548Y-69827000D01*
X148881452Y-69827000D01*
X149041227Y-69795218D01*
X149191731Y-69732877D01*
X149327181Y-69642372D01*
X149442372Y-69527181D01*
X149532877Y-69391731D01*
X149595218Y-69241227D01*
X149627000Y-69081452D01*
X149627000Y-68918548D01*
X151973000Y-68918548D01*
X151973000Y-69081452D01*
X152004782Y-69241227D01*
X152067123Y-69391731D01*
X152157628Y-69527181D01*
X152272819Y-69642372D01*
X152408269Y-69732877D01*
X152558773Y-69795218D01*
X152718548Y-69827000D01*
X152881452Y-69827000D01*
X153041227Y-69795218D01*
X153191731Y-69732877D01*
X153327181Y-69642372D01*
X153442372Y-69527181D01*
X153532877Y-69391731D01*
X153595218Y-69241227D01*
X153627000Y-69081452D01*
X153627000Y-68918548D01*
X153595218Y-68758773D01*
X153532877Y-68608269D01*
X153472928Y-68518548D01*
X159373000Y-68518548D01*
X159373000Y-68681452D01*
X159404782Y-68841227D01*
X159467123Y-68991731D01*
X159557628Y-69127181D01*
X159672819Y-69242372D01*
X159808269Y-69332877D01*
X159958773Y-69395218D01*
X160118548Y-69427000D01*
X160281452Y-69427000D01*
X160441227Y-69395218D01*
X160591731Y-69332877D01*
X160700000Y-69260534D01*
X160808269Y-69332877D01*
X160958773Y-69395218D01*
X161118548Y-69427000D01*
X161281452Y-69427000D01*
X161441227Y-69395218D01*
X161591731Y-69332877D01*
X161727181Y-69242372D01*
X161842372Y-69127181D01*
X161932877Y-68991731D01*
X161995218Y-68841227D01*
X162027000Y-68681452D01*
X162027000Y-68518548D01*
X161995218Y-68358773D01*
X161932877Y-68208269D01*
X161842372Y-68072819D01*
X161727181Y-67957628D01*
X161591731Y-67867123D01*
X161441227Y-67804782D01*
X161281452Y-67773000D01*
X161118548Y-67773000D01*
X160958773Y-67804782D01*
X160808269Y-67867123D01*
X160700000Y-67939466D01*
X160591731Y-67867123D01*
X160441227Y-67804782D01*
X160281452Y-67773000D01*
X160118548Y-67773000D01*
X159958773Y-67804782D01*
X159808269Y-67867123D01*
X159672819Y-67957628D01*
X159557628Y-68072819D01*
X159467123Y-68208269D01*
X159404782Y-68358773D01*
X159373000Y-68518548D01*
X153472928Y-68518548D01*
X153442372Y-68472819D01*
X153327181Y-68357628D01*
X153191731Y-68267123D01*
X153041227Y-68204782D01*
X152881452Y-68173000D01*
X152718548Y-68173000D01*
X152558773Y-68204782D01*
X152408269Y-68267123D01*
X152272819Y-68357628D01*
X152157628Y-68472819D01*
X152067123Y-68608269D01*
X152004782Y-68758773D01*
X151973000Y-68918548D01*
X149627000Y-68918548D01*
X149595218Y-68758773D01*
X149532877Y-68608269D01*
X149442372Y-68472819D01*
X149327181Y-68357628D01*
X149191731Y-68267123D01*
X149041227Y-68204782D01*
X148881452Y-68173000D01*
X148718548Y-68173000D01*
X148558773Y-68204782D01*
X148408269Y-68267123D01*
X148272819Y-68357628D01*
X148157628Y-68472819D01*
X148067123Y-68608269D01*
X148004782Y-68758773D01*
X147973000Y-68918548D01*
X147627000Y-68918548D01*
X147595218Y-68758773D01*
X147532877Y-68608269D01*
X147442372Y-68472819D01*
X147327181Y-68357628D01*
X147191731Y-68267123D01*
X147041227Y-68204782D01*
X146881452Y-68173000D01*
X146718548Y-68173000D01*
X146558773Y-68204782D01*
X146408269Y-68267123D01*
X146272819Y-68357628D01*
X146157628Y-68472819D01*
X146067123Y-68608269D01*
X146004782Y-68758773D01*
X145973000Y-68918548D01*
X104477000Y-68918548D01*
X104477000Y-66918548D01*
X145973000Y-66918548D01*
X145973000Y-67081452D01*
X146004782Y-67241227D01*
X146067123Y-67391731D01*
X146157628Y-67527181D01*
X146272819Y-67642372D01*
X146408269Y-67732877D01*
X146558773Y-67795218D01*
X146718548Y-67827000D01*
X146881452Y-67827000D01*
X147041227Y-67795218D01*
X147191731Y-67732877D01*
X147327181Y-67642372D01*
X147442372Y-67527181D01*
X147532877Y-67391731D01*
X147595218Y-67241227D01*
X147627000Y-67081452D01*
X147627000Y-66918548D01*
X147973000Y-66918548D01*
X147973000Y-67081452D01*
X148004782Y-67241227D01*
X148067123Y-67391731D01*
X148157628Y-67527181D01*
X148272819Y-67642372D01*
X148408269Y-67732877D01*
X148558773Y-67795218D01*
X148718548Y-67827000D01*
X148881452Y-67827000D01*
X149041227Y-67795218D01*
X149191731Y-67732877D01*
X149327181Y-67642372D01*
X149442372Y-67527181D01*
X149532877Y-67391731D01*
X149595218Y-67241227D01*
X149627000Y-67081452D01*
X149627000Y-66918548D01*
X149973000Y-66918548D01*
X149973000Y-67081452D01*
X150004782Y-67241227D01*
X150067123Y-67391731D01*
X150157628Y-67527181D01*
X150272819Y-67642372D01*
X150408269Y-67732877D01*
X150558773Y-67795218D01*
X150718548Y-67827000D01*
X150881452Y-67827000D01*
X151041227Y-67795218D01*
X151191731Y-67732877D01*
X151327181Y-67642372D01*
X151442372Y-67527181D01*
X151532877Y-67391731D01*
X151595218Y-67241227D01*
X151627000Y-67081452D01*
X151627000Y-66918548D01*
X151973000Y-66918548D01*
X151973000Y-67081452D01*
X152004782Y-67241227D01*
X152067123Y-67391731D01*
X152157628Y-67527181D01*
X152272819Y-67642372D01*
X152408269Y-67732877D01*
X152558773Y-67795218D01*
X152718548Y-67827000D01*
X152881452Y-67827000D01*
X153041227Y-67795218D01*
X153191731Y-67732877D01*
X153327181Y-67642372D01*
X153442372Y-67527181D01*
X153532877Y-67391731D01*
X153595218Y-67241227D01*
X153627000Y-67081452D01*
X153627000Y-66918548D01*
X153595218Y-66758773D01*
X153532877Y-66608269D01*
X153442372Y-66472819D01*
X153327181Y-66357628D01*
X153191731Y-66267123D01*
X153041227Y-66204782D01*
X152881452Y-66173000D01*
X152718548Y-66173000D01*
X152558773Y-66204782D01*
X152408269Y-66267123D01*
X152272819Y-66357628D01*
X152157628Y-66472819D01*
X152067123Y-66608269D01*
X152004782Y-66758773D01*
X151973000Y-66918548D01*
X151627000Y-66918548D01*
X151595218Y-66758773D01*
X151532877Y-66608269D01*
X151442372Y-66472819D01*
X151327181Y-66357628D01*
X151191731Y-66267123D01*
X151041227Y-66204782D01*
X150881452Y-66173000D01*
X150718548Y-66173000D01*
X150558773Y-66204782D01*
X150408269Y-66267123D01*
X150272819Y-66357628D01*
X150157628Y-66472819D01*
X150067123Y-66608269D01*
X150004782Y-66758773D01*
X149973000Y-66918548D01*
X149627000Y-66918548D01*
X149595218Y-66758773D01*
X149532877Y-66608269D01*
X149442372Y-66472819D01*
X149327181Y-66357628D01*
X149191731Y-66267123D01*
X149041227Y-66204782D01*
X148881452Y-66173000D01*
X148718548Y-66173000D01*
X148558773Y-66204782D01*
X148408269Y-66267123D01*
X148272819Y-66357628D01*
X148157628Y-66472819D01*
X148067123Y-66608269D01*
X148004782Y-66758773D01*
X147973000Y-66918548D01*
X147627000Y-66918548D01*
X147595218Y-66758773D01*
X147532877Y-66608269D01*
X147442372Y-66472819D01*
X147327181Y-66357628D01*
X147191731Y-66267123D01*
X147041227Y-66204782D01*
X146881452Y-66173000D01*
X146718548Y-66173000D01*
X146558773Y-66204782D01*
X146408269Y-66267123D01*
X146272819Y-66357628D01*
X146157628Y-66472819D01*
X146067123Y-66608269D01*
X146004782Y-66758773D01*
X145973000Y-66918548D01*
X104477000Y-66918548D01*
X104477000Y-63718548D01*
X170973000Y-63718548D01*
X170973000Y-63881452D01*
X171004782Y-64041227D01*
X171067123Y-64191731D01*
X171157628Y-64327181D01*
X171272819Y-64442372D01*
X171408269Y-64532877D01*
X171558773Y-64595218D01*
X171718548Y-64627000D01*
X171881452Y-64627000D01*
X172041227Y-64595218D01*
X172191731Y-64532877D01*
X172327181Y-64442372D01*
X172442372Y-64327181D01*
X172532877Y-64191731D01*
X172595218Y-64041227D01*
X172627000Y-63881452D01*
X172627000Y-63718548D01*
X172595218Y-63558773D01*
X172532877Y-63408269D01*
X172442372Y-63272819D01*
X172327181Y-63157628D01*
X172191731Y-63067123D01*
X172041227Y-63004782D01*
X171881452Y-62973000D01*
X171718548Y-62973000D01*
X171558773Y-63004782D01*
X171408269Y-63067123D01*
X171272819Y-63157628D01*
X171157628Y-63272819D01*
X171067123Y-63408269D01*
X171004782Y-63558773D01*
X170973000Y-63718548D01*
X104477000Y-63718548D01*
X104477000Y-62318548D01*
X119373000Y-62318548D01*
X119373000Y-62481452D01*
X119404782Y-62641227D01*
X119467123Y-62791731D01*
X119557628Y-62927181D01*
X119672819Y-63042372D01*
X119808269Y-63132877D01*
X119958773Y-63195218D01*
X120118548Y-63227000D01*
X120281452Y-63227000D01*
X120441227Y-63195218D01*
X120591731Y-63132877D01*
X120727181Y-63042372D01*
X120842372Y-62927181D01*
X120932877Y-62791731D01*
X120995218Y-62641227D01*
X121027000Y-62481452D01*
X121027000Y-62318548D01*
X120995218Y-62158773D01*
X120932877Y-62008269D01*
X120842372Y-61872819D01*
X120727181Y-61757628D01*
X120591731Y-61667123D01*
X120441227Y-61604782D01*
X120281452Y-61573000D01*
X120118548Y-61573000D01*
X119958773Y-61604782D01*
X119808269Y-61667123D01*
X119672819Y-61757628D01*
X119557628Y-61872819D01*
X119467123Y-62008269D01*
X119404782Y-62158773D01*
X119373000Y-62318548D01*
X104477000Y-62318548D01*
X104477000Y-60318548D01*
X128973000Y-60318548D01*
X128973000Y-60481452D01*
X129004782Y-60641227D01*
X129067123Y-60791731D01*
X129157628Y-60927181D01*
X129272819Y-61042372D01*
X129408269Y-61132877D01*
X129558773Y-61195218D01*
X129718548Y-61227000D01*
X129881452Y-61227000D01*
X130041227Y-61195218D01*
X130191731Y-61132877D01*
X130327181Y-61042372D01*
X130442372Y-60927181D01*
X130532877Y-60791731D01*
X130563190Y-60718548D01*
X132173000Y-60718548D01*
X132173000Y-60881452D01*
X132204782Y-61041227D01*
X132267123Y-61191731D01*
X132357628Y-61327181D01*
X132472819Y-61442372D01*
X132608269Y-61532877D01*
X132758773Y-61595218D01*
X132918548Y-61627000D01*
X133081452Y-61627000D01*
X133241227Y-61595218D01*
X133391731Y-61532877D01*
X133527181Y-61442372D01*
X133642372Y-61327181D01*
X133732877Y-61191731D01*
X133795218Y-61041227D01*
X133827000Y-60881452D01*
X133827000Y-60818548D01*
X148773000Y-60818548D01*
X148773000Y-60981452D01*
X148804782Y-61141227D01*
X148867123Y-61291731D01*
X148957628Y-61427181D01*
X149072819Y-61542372D01*
X149208269Y-61632877D01*
X149358773Y-61695218D01*
X149518548Y-61727000D01*
X149681452Y-61727000D01*
X149841227Y-61695218D01*
X149991731Y-61632877D01*
X150127181Y-61542372D01*
X150242372Y-61427181D01*
X150332877Y-61291731D01*
X150395218Y-61141227D01*
X150427000Y-60981452D01*
X150427000Y-60818548D01*
X150573000Y-60818548D01*
X150573000Y-60981452D01*
X150604782Y-61141227D01*
X150667123Y-61291731D01*
X150757628Y-61427181D01*
X150872819Y-61542372D01*
X151008269Y-61632877D01*
X151158773Y-61695218D01*
X151318548Y-61727000D01*
X151481452Y-61727000D01*
X151641227Y-61695218D01*
X151791731Y-61632877D01*
X151927181Y-61542372D01*
X152042372Y-61427181D01*
X152132877Y-61291731D01*
X152195218Y-61141227D01*
X152227000Y-60981452D01*
X152227000Y-60818548D01*
X152195218Y-60658773D01*
X152132877Y-60508269D01*
X152042372Y-60372819D01*
X151927181Y-60257628D01*
X151791731Y-60167123D01*
X151641227Y-60104782D01*
X151481452Y-60073000D01*
X151318548Y-60073000D01*
X151158773Y-60104782D01*
X151008269Y-60167123D01*
X150872819Y-60257628D01*
X150757628Y-60372819D01*
X150667123Y-60508269D01*
X150604782Y-60658773D01*
X150573000Y-60818548D01*
X150427000Y-60818548D01*
X150395218Y-60658773D01*
X150332877Y-60508269D01*
X150242372Y-60372819D01*
X150127181Y-60257628D01*
X149991731Y-60167123D01*
X149841227Y-60104782D01*
X149681452Y-60073000D01*
X149518548Y-60073000D01*
X149358773Y-60104782D01*
X149208269Y-60167123D01*
X149072819Y-60257628D01*
X148957628Y-60372819D01*
X148867123Y-60508269D01*
X148804782Y-60658773D01*
X148773000Y-60818548D01*
X133827000Y-60818548D01*
X133827000Y-60718548D01*
X133795218Y-60558773D01*
X133732877Y-60408269D01*
X133642372Y-60272819D01*
X133527181Y-60157628D01*
X133391731Y-60067123D01*
X133241227Y-60004782D01*
X133081452Y-59973000D01*
X132918548Y-59973000D01*
X132758773Y-60004782D01*
X132608269Y-60067123D01*
X132472819Y-60157628D01*
X132357628Y-60272819D01*
X132267123Y-60408269D01*
X132204782Y-60558773D01*
X132173000Y-60718548D01*
X130563190Y-60718548D01*
X130595218Y-60641227D01*
X130627000Y-60481452D01*
X130627000Y-60318548D01*
X130595218Y-60158773D01*
X130532877Y-60008269D01*
X130442372Y-59872819D01*
X130327181Y-59757628D01*
X130191731Y-59667123D01*
X130041227Y-59604782D01*
X129881452Y-59573000D01*
X129718548Y-59573000D01*
X129558773Y-59604782D01*
X129408269Y-59667123D01*
X129272819Y-59757628D01*
X129157628Y-59872819D01*
X129067123Y-60008269D01*
X129004782Y-60158773D01*
X128973000Y-60318548D01*
X104477000Y-60318548D01*
X104477000Y-58318548D01*
X116973000Y-58318548D01*
X116973000Y-58481452D01*
X117004782Y-58641227D01*
X117067123Y-58791731D01*
X117157628Y-58927181D01*
X117272819Y-59042372D01*
X117408269Y-59132877D01*
X117558773Y-59195218D01*
X117718548Y-59227000D01*
X117881452Y-59227000D01*
X118041227Y-59195218D01*
X118191731Y-59132877D01*
X118327181Y-59042372D01*
X118442372Y-58927181D01*
X118532877Y-58791731D01*
X118595218Y-58641227D01*
X118627000Y-58481452D01*
X118627000Y-58318548D01*
X118595218Y-58158773D01*
X118532877Y-58008269D01*
X118472928Y-57918548D01*
X147423000Y-57918548D01*
X147423000Y-58081452D01*
X147454782Y-58241227D01*
X147517123Y-58391731D01*
X147607628Y-58527181D01*
X147722819Y-58642372D01*
X147858269Y-58732877D01*
X148008773Y-58795218D01*
X148168548Y-58827000D01*
X148331452Y-58827000D01*
X148491227Y-58795218D01*
X148641731Y-58732877D01*
X148750000Y-58660534D01*
X148858269Y-58732877D01*
X149008773Y-58795218D01*
X149168548Y-58827000D01*
X149331452Y-58827000D01*
X149491227Y-58795218D01*
X149641731Y-58732877D01*
X149777181Y-58642372D01*
X149855022Y-58564531D01*
X167215074Y-58564531D01*
X167325921Y-58841714D01*
X167636840Y-58995089D01*
X167971705Y-59084860D01*
X168317650Y-59107576D01*
X168661380Y-59062366D01*
X168989685Y-58950966D01*
X169194079Y-58841714D01*
X169304926Y-58564531D01*
X172295074Y-58564531D01*
X172405921Y-58841714D01*
X172716840Y-58995089D01*
X173051705Y-59084860D01*
X173397650Y-59107576D01*
X173741380Y-59062366D01*
X174069685Y-58950966D01*
X174274079Y-58841714D01*
X174384926Y-58564531D01*
X173340000Y-57519605D01*
X172295074Y-58564531D01*
X169304926Y-58564531D01*
X168260000Y-57519605D01*
X167215074Y-58564531D01*
X149855022Y-58564531D01*
X149892372Y-58527181D01*
X149982877Y-58391731D01*
X150045218Y-58241227D01*
X150077000Y-58081452D01*
X150077000Y-57918548D01*
X150045218Y-57758773D01*
X149982877Y-57608269D01*
X149892372Y-57472819D01*
X149817203Y-57397650D01*
X166492424Y-57397650D01*
X166537634Y-57741380D01*
X166649034Y-58069685D01*
X166758286Y-58274079D01*
X167035469Y-58384926D01*
X168080395Y-57340000D01*
X168439605Y-57340000D01*
X169484531Y-58384926D01*
X169761714Y-58274079D01*
X169915089Y-57963160D01*
X170004860Y-57628295D01*
X170020004Y-57397650D01*
X171572424Y-57397650D01*
X171617634Y-57741380D01*
X171729034Y-58069685D01*
X171838286Y-58274079D01*
X172115469Y-58384926D01*
X173160395Y-57340000D01*
X173519605Y-57340000D01*
X174564531Y-58384926D01*
X174841714Y-58274079D01*
X174995089Y-57963160D01*
X175084860Y-57628295D01*
X175107576Y-57282350D01*
X175062366Y-56938620D01*
X174950966Y-56610315D01*
X174841714Y-56405921D01*
X174564531Y-56295074D01*
X173519605Y-57340000D01*
X173160395Y-57340000D01*
X172115469Y-56295074D01*
X171838286Y-56405921D01*
X171684911Y-56716840D01*
X171595140Y-57051705D01*
X171572424Y-57397650D01*
X170020004Y-57397650D01*
X170027576Y-57282350D01*
X169982366Y-56938620D01*
X169870966Y-56610315D01*
X169761714Y-56405921D01*
X169484531Y-56295074D01*
X168439605Y-57340000D01*
X168080395Y-57340000D01*
X167035469Y-56295074D01*
X166758286Y-56405921D01*
X166604911Y-56716840D01*
X166515140Y-57051705D01*
X166492424Y-57397650D01*
X149817203Y-57397650D01*
X149777181Y-57357628D01*
X149641731Y-57267123D01*
X149491227Y-57204782D01*
X149331452Y-57173000D01*
X149168548Y-57173000D01*
X149008773Y-57204782D01*
X148858269Y-57267123D01*
X148750000Y-57339466D01*
X148641731Y-57267123D01*
X148491227Y-57204782D01*
X148331452Y-57173000D01*
X148168548Y-57173000D01*
X148008773Y-57204782D01*
X147858269Y-57267123D01*
X147722819Y-57357628D01*
X147607628Y-57472819D01*
X147517123Y-57608269D01*
X147454782Y-57758773D01*
X147423000Y-57918548D01*
X118472928Y-57918548D01*
X118442372Y-57872819D01*
X118327181Y-57757628D01*
X118191731Y-57667123D01*
X118041227Y-57604782D01*
X117881452Y-57573000D01*
X117718548Y-57573000D01*
X117558773Y-57604782D01*
X117408269Y-57667123D01*
X117272819Y-57757628D01*
X117157628Y-57872819D01*
X117067123Y-58008269D01*
X117004782Y-58158773D01*
X116973000Y-58318548D01*
X104477000Y-58318548D01*
X104477000Y-56918548D01*
X115373000Y-56918548D01*
X115373000Y-57081452D01*
X115404782Y-57241227D01*
X115467123Y-57391731D01*
X115557628Y-57527181D01*
X115672819Y-57642372D01*
X115808269Y-57732877D01*
X115958773Y-57795218D01*
X116118548Y-57827000D01*
X116281452Y-57827000D01*
X116441227Y-57795218D01*
X116591731Y-57732877D01*
X116727181Y-57642372D01*
X116842372Y-57527181D01*
X116932877Y-57391731D01*
X116995218Y-57241227D01*
X117027000Y-57081452D01*
X117027000Y-56918548D01*
X116995218Y-56758773D01*
X116932877Y-56608269D01*
X116842372Y-56472819D01*
X116727181Y-56357628D01*
X116591731Y-56267123D01*
X116441227Y-56204782D01*
X116281452Y-56173000D01*
X116118548Y-56173000D01*
X115958773Y-56204782D01*
X115808269Y-56267123D01*
X115672819Y-56357628D01*
X115557628Y-56472819D01*
X115467123Y-56608269D01*
X115404782Y-56758773D01*
X115373000Y-56918548D01*
X104477000Y-56918548D01*
X104477000Y-56118548D01*
X120773000Y-56118548D01*
X120773000Y-56281452D01*
X120804782Y-56441227D01*
X120867123Y-56591731D01*
X120957628Y-56727181D01*
X121072819Y-56842372D01*
X121208269Y-56932877D01*
X121358773Y-56995218D01*
X121518548Y-57027000D01*
X121681452Y-57027000D01*
X121841227Y-56995218D01*
X121991731Y-56932877D01*
X122127181Y-56842372D01*
X122242372Y-56727181D01*
X122332877Y-56591731D01*
X122395218Y-56441227D01*
X122427000Y-56281452D01*
X122427000Y-56174531D01*
X140015074Y-56174531D01*
X140125921Y-56451714D01*
X140436840Y-56605089D01*
X140771705Y-56694860D01*
X141117650Y-56717576D01*
X141461380Y-56672366D01*
X141789685Y-56560966D01*
X141994079Y-56451714D01*
X142104926Y-56174531D01*
X145095074Y-56174531D01*
X145205921Y-56451714D01*
X145516840Y-56605089D01*
X145851705Y-56694860D01*
X146197650Y-56717576D01*
X146541380Y-56672366D01*
X146869685Y-56560966D01*
X147074079Y-56451714D01*
X147168929Y-56214531D01*
X150415074Y-56214531D01*
X150525921Y-56491714D01*
X150836840Y-56645089D01*
X151171705Y-56734860D01*
X151517650Y-56757576D01*
X151861380Y-56712366D01*
X152189685Y-56600966D01*
X152394079Y-56491714D01*
X152504926Y-56214531D01*
X155495074Y-56214531D01*
X155605921Y-56491714D01*
X155916840Y-56645089D01*
X156251705Y-56734860D01*
X156597650Y-56757576D01*
X156941380Y-56712366D01*
X157269685Y-56600966D01*
X157474079Y-56491714D01*
X157584926Y-56214531D01*
X157485864Y-56115469D01*
X167215074Y-56115469D01*
X168260000Y-57160395D01*
X169304926Y-56115469D01*
X169194079Y-55838286D01*
X168883160Y-55684911D01*
X168548295Y-55595140D01*
X168202350Y-55572424D01*
X167858620Y-55617634D01*
X167530315Y-55729034D01*
X167325921Y-55838286D01*
X167215074Y-56115469D01*
X157485864Y-56115469D01*
X156540000Y-55169605D01*
X155495074Y-56214531D01*
X152504926Y-56214531D01*
X151460000Y-55169605D01*
X150415074Y-56214531D01*
X147168929Y-56214531D01*
X147184926Y-56174531D01*
X146140000Y-55129605D01*
X145095074Y-56174531D01*
X142104926Y-56174531D01*
X141060000Y-55129605D01*
X140015074Y-56174531D01*
X122427000Y-56174531D01*
X122427000Y-56118548D01*
X122395218Y-55958773D01*
X122332877Y-55808269D01*
X122242372Y-55672819D01*
X122127181Y-55557628D01*
X121991731Y-55467123D01*
X121841227Y-55404782D01*
X121681452Y-55373000D01*
X121518548Y-55373000D01*
X121358773Y-55404782D01*
X121208269Y-55467123D01*
X121072819Y-55557628D01*
X120957628Y-55672819D01*
X120867123Y-55808269D01*
X120804782Y-55958773D01*
X120773000Y-56118548D01*
X104477000Y-56118548D01*
X104477000Y-55007650D01*
X139292424Y-55007650D01*
X139337634Y-55351380D01*
X139449034Y-55679685D01*
X139558286Y-55884079D01*
X139835469Y-55994926D01*
X140880395Y-54950000D01*
X141239605Y-54950000D01*
X142284531Y-55994926D01*
X142561714Y-55884079D01*
X142715089Y-55573160D01*
X142804860Y-55238295D01*
X142820004Y-55007650D01*
X144372424Y-55007650D01*
X144417634Y-55351380D01*
X144529034Y-55679685D01*
X144638286Y-55884079D01*
X144915469Y-55994926D01*
X145960395Y-54950000D01*
X146319605Y-54950000D01*
X147364531Y-55994926D01*
X147641714Y-55884079D01*
X147795089Y-55573160D01*
X147884860Y-55238295D01*
X147897378Y-55047650D01*
X149692424Y-55047650D01*
X149737634Y-55391380D01*
X149849034Y-55719685D01*
X149958286Y-55924079D01*
X150235469Y-56034926D01*
X151280395Y-54990000D01*
X151639605Y-54990000D01*
X152684531Y-56034926D01*
X152961714Y-55924079D01*
X153115089Y-55613160D01*
X153204860Y-55278295D01*
X153220004Y-55047650D01*
X154772424Y-55047650D01*
X154817634Y-55391380D01*
X154929034Y-55719685D01*
X155038286Y-55924079D01*
X155315469Y-56034926D01*
X156360395Y-54990000D01*
X156719605Y-54990000D01*
X157764531Y-56034926D01*
X158041714Y-55924079D01*
X158195089Y-55613160D01*
X158284860Y-55278295D01*
X158307576Y-54932350D01*
X158271359Y-54656990D01*
X169348000Y-54656990D01*
X169348000Y-54943010D01*
X169403799Y-55223533D01*
X169513254Y-55487780D01*
X169672158Y-55725596D01*
X169874404Y-55927842D01*
X170112220Y-56086746D01*
X170376467Y-56196201D01*
X170656990Y-56252000D01*
X170943010Y-56252000D01*
X171223533Y-56196201D01*
X171418436Y-56115469D01*
X172295074Y-56115469D01*
X173340000Y-57160395D01*
X174384926Y-56115469D01*
X174274079Y-55838286D01*
X173963160Y-55684911D01*
X173628295Y-55595140D01*
X173282350Y-55572424D01*
X172938620Y-55617634D01*
X172610315Y-55729034D01*
X172405921Y-55838286D01*
X172295074Y-56115469D01*
X171418436Y-56115469D01*
X171487780Y-56086746D01*
X171725596Y-55927842D01*
X171927842Y-55725596D01*
X172086746Y-55487780D01*
X172196201Y-55223533D01*
X172252000Y-54943010D01*
X172252000Y-54656990D01*
X172196201Y-54376467D01*
X172086746Y-54112220D01*
X171927842Y-53874404D01*
X171725596Y-53672158D01*
X171487780Y-53513254D01*
X171418437Y-53484531D01*
X172295074Y-53484531D01*
X172405921Y-53761714D01*
X172716840Y-53915089D01*
X173051705Y-54004860D01*
X173397650Y-54027576D01*
X173741380Y-53982366D01*
X174069685Y-53870966D01*
X174274079Y-53761714D01*
X174384926Y-53484531D01*
X173340000Y-52439605D01*
X172295074Y-53484531D01*
X171418437Y-53484531D01*
X171223533Y-53403799D01*
X170943010Y-53348000D01*
X170656990Y-53348000D01*
X170376467Y-53403799D01*
X170112220Y-53513254D01*
X169874404Y-53672158D01*
X169672158Y-53874404D01*
X169513254Y-54112220D01*
X169403799Y-54376467D01*
X169348000Y-54656990D01*
X158271359Y-54656990D01*
X158262366Y-54588620D01*
X158150966Y-54260315D01*
X158041714Y-54055921D01*
X157764531Y-53945074D01*
X156719605Y-54990000D01*
X156360395Y-54990000D01*
X155315469Y-53945074D01*
X155038286Y-54055921D01*
X154884911Y-54366840D01*
X154795140Y-54701705D01*
X154772424Y-55047650D01*
X153220004Y-55047650D01*
X153227576Y-54932350D01*
X153182366Y-54588620D01*
X153070966Y-54260315D01*
X152961714Y-54055921D01*
X152684531Y-53945074D01*
X151639605Y-54990000D01*
X151280395Y-54990000D01*
X150235469Y-53945074D01*
X149958286Y-54055921D01*
X149804911Y-54366840D01*
X149715140Y-54701705D01*
X149692424Y-55047650D01*
X147897378Y-55047650D01*
X147907576Y-54892350D01*
X147862366Y-54548620D01*
X147750966Y-54220315D01*
X147641714Y-54015921D01*
X147364531Y-53905074D01*
X146319605Y-54950000D01*
X145960395Y-54950000D01*
X144915469Y-53905074D01*
X144638286Y-54015921D01*
X144484911Y-54326840D01*
X144395140Y-54661705D01*
X144372424Y-55007650D01*
X142820004Y-55007650D01*
X142827576Y-54892350D01*
X142782366Y-54548620D01*
X142670966Y-54220315D01*
X142561714Y-54015921D01*
X142284531Y-53905074D01*
X141239605Y-54950000D01*
X140880395Y-54950000D01*
X139835469Y-53905074D01*
X139558286Y-54015921D01*
X139404911Y-54326840D01*
X139315140Y-54661705D01*
X139292424Y-55007650D01*
X104477000Y-55007650D01*
X104477000Y-53725469D01*
X140015074Y-53725469D01*
X141060000Y-54770395D01*
X142104926Y-53725469D01*
X141994079Y-53448286D01*
X141683160Y-53294911D01*
X141348295Y-53205140D01*
X141002350Y-53182424D01*
X140658620Y-53227634D01*
X140330315Y-53339034D01*
X140125921Y-53448286D01*
X140015074Y-53725469D01*
X104477000Y-53725469D01*
X104477000Y-52266990D01*
X142148000Y-52266990D01*
X142148000Y-52553010D01*
X142203799Y-52833533D01*
X142313254Y-53097780D01*
X142472158Y-53335596D01*
X142674404Y-53537842D01*
X142912220Y-53696746D01*
X143176467Y-53806201D01*
X143456990Y-53862000D01*
X143743010Y-53862000D01*
X144023533Y-53806201D01*
X144218436Y-53725469D01*
X145095074Y-53725469D01*
X146140000Y-54770395D01*
X147144926Y-53765469D01*
X150415074Y-53765469D01*
X151460000Y-54810395D01*
X152504926Y-53765469D01*
X152394079Y-53488286D01*
X152083160Y-53334911D01*
X151748295Y-53245140D01*
X151402350Y-53222424D01*
X151058620Y-53267634D01*
X150730315Y-53379034D01*
X150525921Y-53488286D01*
X150415074Y-53765469D01*
X147144926Y-53765469D01*
X147184926Y-53725469D01*
X147074079Y-53448286D01*
X146763160Y-53294911D01*
X146428295Y-53205140D01*
X146082350Y-53182424D01*
X145738620Y-53227634D01*
X145410315Y-53339034D01*
X145205921Y-53448286D01*
X145095074Y-53725469D01*
X144218436Y-53725469D01*
X144287780Y-53696746D01*
X144525596Y-53537842D01*
X144727842Y-53335596D01*
X144886746Y-53097780D01*
X144996201Y-52833533D01*
X145052000Y-52553010D01*
X145052000Y-52306990D01*
X152548000Y-52306990D01*
X152548000Y-52593010D01*
X152603799Y-52873533D01*
X152713254Y-53137780D01*
X152872158Y-53375596D01*
X153074404Y-53577842D01*
X153312220Y-53736746D01*
X153576467Y-53846201D01*
X153856990Y-53902000D01*
X154143010Y-53902000D01*
X154423533Y-53846201D01*
X154618436Y-53765469D01*
X155495074Y-53765469D01*
X156540000Y-54810395D01*
X157584926Y-53765469D01*
X157474079Y-53488286D01*
X157466467Y-53484531D01*
X167215074Y-53484531D01*
X167325921Y-53761714D01*
X167636840Y-53915089D01*
X167971705Y-54004860D01*
X168317650Y-54027576D01*
X168661380Y-53982366D01*
X168989685Y-53870966D01*
X169194079Y-53761714D01*
X169304926Y-53484531D01*
X168260000Y-52439605D01*
X167215074Y-53484531D01*
X157466467Y-53484531D01*
X157163160Y-53334911D01*
X156828295Y-53245140D01*
X156482350Y-53222424D01*
X156138620Y-53267634D01*
X155810315Y-53379034D01*
X155605921Y-53488286D01*
X155495074Y-53765469D01*
X154618436Y-53765469D01*
X154687780Y-53736746D01*
X154925596Y-53577842D01*
X155127842Y-53375596D01*
X155286746Y-53137780D01*
X155396201Y-52873533D01*
X155452000Y-52593010D01*
X155452000Y-52317650D01*
X166492424Y-52317650D01*
X166537634Y-52661380D01*
X166649034Y-52989685D01*
X166758286Y-53194079D01*
X167035469Y-53304926D01*
X168080395Y-52260000D01*
X168439605Y-52260000D01*
X169484531Y-53304926D01*
X169761714Y-53194079D01*
X169915089Y-52883160D01*
X170004860Y-52548295D01*
X170020004Y-52317650D01*
X171572424Y-52317650D01*
X171617634Y-52661380D01*
X171729034Y-52989685D01*
X171838286Y-53194079D01*
X172115469Y-53304926D01*
X173160395Y-52260000D01*
X173519605Y-52260000D01*
X174564531Y-53304926D01*
X174841714Y-53194079D01*
X174995089Y-52883160D01*
X175084860Y-52548295D01*
X175107576Y-52202350D01*
X175062366Y-51858620D01*
X174950966Y-51530315D01*
X174841714Y-51325921D01*
X174564531Y-51215074D01*
X173519605Y-52260000D01*
X173160395Y-52260000D01*
X172115469Y-51215074D01*
X171838286Y-51325921D01*
X171684911Y-51636840D01*
X171595140Y-51971705D01*
X171572424Y-52317650D01*
X170020004Y-52317650D01*
X170027576Y-52202350D01*
X169982366Y-51858620D01*
X169870966Y-51530315D01*
X169761714Y-51325921D01*
X169484531Y-51215074D01*
X168439605Y-52260000D01*
X168080395Y-52260000D01*
X167035469Y-51215074D01*
X166758286Y-51325921D01*
X166604911Y-51636840D01*
X166515140Y-51971705D01*
X166492424Y-52317650D01*
X155452000Y-52317650D01*
X155452000Y-52306990D01*
X155396201Y-52026467D01*
X155286746Y-51762220D01*
X155127842Y-51524404D01*
X154925596Y-51322158D01*
X154687780Y-51163254D01*
X154618437Y-51134531D01*
X155495074Y-51134531D01*
X155605921Y-51411714D01*
X155916840Y-51565089D01*
X156251705Y-51654860D01*
X156597650Y-51677576D01*
X156941380Y-51632366D01*
X157269685Y-51520966D01*
X157474079Y-51411714D01*
X157584926Y-51134531D01*
X157485864Y-51035469D01*
X167215074Y-51035469D01*
X168260000Y-52080395D01*
X169304926Y-51035469D01*
X172295074Y-51035469D01*
X173340000Y-52080395D01*
X174384926Y-51035469D01*
X174274079Y-50758286D01*
X173963160Y-50604911D01*
X173628295Y-50515140D01*
X173282350Y-50492424D01*
X172938620Y-50537634D01*
X172610315Y-50649034D01*
X172405921Y-50758286D01*
X172295074Y-51035469D01*
X169304926Y-51035469D01*
X169194079Y-50758286D01*
X168883160Y-50604911D01*
X168548295Y-50515140D01*
X168202350Y-50492424D01*
X167858620Y-50537634D01*
X167530315Y-50649034D01*
X167325921Y-50758286D01*
X167215074Y-51035469D01*
X157485864Y-51035469D01*
X156540000Y-50089605D01*
X155495074Y-51134531D01*
X154618437Y-51134531D01*
X154423533Y-51053799D01*
X154143010Y-50998000D01*
X153856990Y-50998000D01*
X153576467Y-51053799D01*
X153312220Y-51163254D01*
X153074404Y-51322158D01*
X152872158Y-51524404D01*
X152713254Y-51762220D01*
X152603799Y-52026467D01*
X152548000Y-52306990D01*
X145052000Y-52306990D01*
X145052000Y-52266990D01*
X144996201Y-51986467D01*
X144886746Y-51722220D01*
X144727842Y-51484404D01*
X144525596Y-51282158D01*
X144287780Y-51123254D01*
X144218437Y-51094531D01*
X145095074Y-51094531D01*
X145205921Y-51371714D01*
X145516840Y-51525089D01*
X145851705Y-51614860D01*
X146197650Y-51637576D01*
X146541380Y-51592366D01*
X146869685Y-51480966D01*
X147074079Y-51371714D01*
X147168929Y-51134531D01*
X150415074Y-51134531D01*
X150525921Y-51411714D01*
X150836840Y-51565089D01*
X151171705Y-51654860D01*
X151517650Y-51677576D01*
X151861380Y-51632366D01*
X152189685Y-51520966D01*
X152394079Y-51411714D01*
X152504926Y-51134531D01*
X151460000Y-50089605D01*
X150415074Y-51134531D01*
X147168929Y-51134531D01*
X147184926Y-51094531D01*
X146140000Y-50049605D01*
X145095074Y-51094531D01*
X144218437Y-51094531D01*
X144023533Y-51013799D01*
X143743010Y-50958000D01*
X143456990Y-50958000D01*
X143176467Y-51013799D01*
X142912220Y-51123254D01*
X142674404Y-51282158D01*
X142472158Y-51484404D01*
X142313254Y-51722220D01*
X142203799Y-51986467D01*
X142148000Y-52266990D01*
X104477000Y-52266990D01*
X104477000Y-51094531D01*
X140015074Y-51094531D01*
X140125921Y-51371714D01*
X140436840Y-51525089D01*
X140771705Y-51614860D01*
X141117650Y-51637576D01*
X141461380Y-51592366D01*
X141789685Y-51480966D01*
X141994079Y-51371714D01*
X142104926Y-51094531D01*
X141060000Y-50049605D01*
X140015074Y-51094531D01*
X104477000Y-51094531D01*
X104477000Y-49927650D01*
X139292424Y-49927650D01*
X139337634Y-50271380D01*
X139449034Y-50599685D01*
X139558286Y-50804079D01*
X139835469Y-50914926D01*
X140880395Y-49870000D01*
X141239605Y-49870000D01*
X142284531Y-50914926D01*
X142561714Y-50804079D01*
X142715089Y-50493160D01*
X142804860Y-50158295D01*
X142820004Y-49927650D01*
X144372424Y-49927650D01*
X144417634Y-50271380D01*
X144529034Y-50599685D01*
X144638286Y-50804079D01*
X144915469Y-50914926D01*
X145960395Y-49870000D01*
X146319605Y-49870000D01*
X147364531Y-50914926D01*
X147641714Y-50804079D01*
X147795089Y-50493160D01*
X147884860Y-50158295D01*
X147897378Y-49967650D01*
X149692424Y-49967650D01*
X149737634Y-50311380D01*
X149849034Y-50639685D01*
X149958286Y-50844079D01*
X150235469Y-50954926D01*
X151280395Y-49910000D01*
X151639605Y-49910000D01*
X152684531Y-50954926D01*
X152961714Y-50844079D01*
X153115089Y-50533160D01*
X153204860Y-50198295D01*
X153220004Y-49967650D01*
X154772424Y-49967650D01*
X154817634Y-50311380D01*
X154929034Y-50639685D01*
X155038286Y-50844079D01*
X155315469Y-50954926D01*
X156360395Y-49910000D01*
X156719605Y-49910000D01*
X157764531Y-50954926D01*
X158041714Y-50844079D01*
X158195089Y-50533160D01*
X158284860Y-50198295D01*
X158307576Y-49852350D01*
X158262366Y-49508620D01*
X158150966Y-49180315D01*
X158041714Y-48975921D01*
X157764531Y-48865074D01*
X156719605Y-49910000D01*
X156360395Y-49910000D01*
X155315469Y-48865074D01*
X155038286Y-48975921D01*
X154884911Y-49286840D01*
X154795140Y-49621705D01*
X154772424Y-49967650D01*
X153220004Y-49967650D01*
X153227576Y-49852350D01*
X153182366Y-49508620D01*
X153070966Y-49180315D01*
X152961714Y-48975921D01*
X152684531Y-48865074D01*
X151639605Y-49910000D01*
X151280395Y-49910000D01*
X150235469Y-48865074D01*
X149958286Y-48975921D01*
X149804911Y-49286840D01*
X149715140Y-49621705D01*
X149692424Y-49967650D01*
X147897378Y-49967650D01*
X147907576Y-49812350D01*
X147862366Y-49468620D01*
X147750966Y-49140315D01*
X147641714Y-48935921D01*
X147364531Y-48825074D01*
X146319605Y-49870000D01*
X145960395Y-49870000D01*
X144915469Y-48825074D01*
X144638286Y-48935921D01*
X144484911Y-49246840D01*
X144395140Y-49581705D01*
X144372424Y-49927650D01*
X142820004Y-49927650D01*
X142827576Y-49812350D01*
X142782366Y-49468620D01*
X142670966Y-49140315D01*
X142561714Y-48935921D01*
X142284531Y-48825074D01*
X141239605Y-49870000D01*
X140880395Y-49870000D01*
X139835469Y-48825074D01*
X139558286Y-48935921D01*
X139404911Y-49246840D01*
X139315140Y-49581705D01*
X139292424Y-49927650D01*
X104477000Y-49927650D01*
X104477000Y-48645469D01*
X140015074Y-48645469D01*
X141060000Y-49690395D01*
X142104926Y-48645469D01*
X145095074Y-48645469D01*
X146140000Y-49690395D01*
X147144926Y-48685469D01*
X150415074Y-48685469D01*
X151460000Y-49730395D01*
X152504926Y-48685469D01*
X155495074Y-48685469D01*
X156540000Y-49730395D01*
X157584926Y-48685469D01*
X157474079Y-48408286D01*
X157163160Y-48254911D01*
X156828295Y-48165140D01*
X156482350Y-48142424D01*
X156138620Y-48187634D01*
X155810315Y-48299034D01*
X155605921Y-48408286D01*
X155495074Y-48685469D01*
X152504926Y-48685469D01*
X152394079Y-48408286D01*
X152083160Y-48254911D01*
X151748295Y-48165140D01*
X151402350Y-48142424D01*
X151058620Y-48187634D01*
X150730315Y-48299034D01*
X150525921Y-48408286D01*
X150415074Y-48685469D01*
X147144926Y-48685469D01*
X147184926Y-48645469D01*
X147074079Y-48368286D01*
X146763160Y-48214911D01*
X146428295Y-48125140D01*
X146082350Y-48102424D01*
X145738620Y-48147634D01*
X145410315Y-48259034D01*
X145205921Y-48368286D01*
X145095074Y-48645469D01*
X142104926Y-48645469D01*
X141994079Y-48368286D01*
X141683160Y-48214911D01*
X141348295Y-48125140D01*
X141002350Y-48102424D01*
X140658620Y-48147634D01*
X140330315Y-48259034D01*
X140125921Y-48368286D01*
X140015074Y-48645469D01*
X104477000Y-48645469D01*
X104477000Y-42718548D01*
X143273000Y-42718548D01*
X143273000Y-42881452D01*
X143304782Y-43041227D01*
X143367123Y-43191731D01*
X143457628Y-43327181D01*
X143572819Y-43442372D01*
X143708269Y-43532877D01*
X143858773Y-43595218D01*
X144018548Y-43627000D01*
X144181452Y-43627000D01*
X144341227Y-43595218D01*
X144491731Y-43532877D01*
X144627181Y-43442372D01*
X144742372Y-43327181D01*
X144832877Y-43191731D01*
X144895218Y-43041227D01*
X144927000Y-42881452D01*
X144927000Y-42718548D01*
X144895218Y-42558773D01*
X144832877Y-42408269D01*
X144742372Y-42272819D01*
X144627181Y-42157628D01*
X144491731Y-42067123D01*
X144341227Y-42004782D01*
X144181452Y-41973000D01*
X144018548Y-41973000D01*
X143858773Y-42004782D01*
X143708269Y-42067123D01*
X143572819Y-42157628D01*
X143457628Y-42272819D01*
X143367123Y-42408269D01*
X143304782Y-42558773D01*
X143273000Y-42718548D01*
X104477000Y-42718548D01*
X104477000Y-41364531D01*
X145215074Y-41364531D01*
X145325921Y-41641714D01*
X145636840Y-41795089D01*
X145971705Y-41884860D01*
X146317650Y-41907576D01*
X146661380Y-41862366D01*
X146989685Y-41750966D01*
X147194079Y-41641714D01*
X147304926Y-41364531D01*
X150295074Y-41364531D01*
X150405921Y-41641714D01*
X150716840Y-41795089D01*
X151051705Y-41884860D01*
X151397650Y-41907576D01*
X151741380Y-41862366D01*
X152069685Y-41750966D01*
X152274079Y-41641714D01*
X152384926Y-41364531D01*
X151340000Y-40319605D01*
X150295074Y-41364531D01*
X147304926Y-41364531D01*
X146260000Y-40319605D01*
X145215074Y-41364531D01*
X104477000Y-41364531D01*
X104477000Y-40197650D01*
X144492424Y-40197650D01*
X144537634Y-40541380D01*
X144649034Y-40869685D01*
X144758286Y-41074079D01*
X145035469Y-41184926D01*
X146080395Y-40140000D01*
X146439605Y-40140000D01*
X147484531Y-41184926D01*
X147761714Y-41074079D01*
X147915089Y-40763160D01*
X148004860Y-40428295D01*
X148020004Y-40197650D01*
X149572424Y-40197650D01*
X149617634Y-40541380D01*
X149729034Y-40869685D01*
X149838286Y-41074079D01*
X150115469Y-41184926D01*
X151160395Y-40140000D01*
X151519605Y-40140000D01*
X152564531Y-41184926D01*
X152841714Y-41074079D01*
X152918436Y-40918548D01*
X157673000Y-40918548D01*
X157673000Y-41081452D01*
X157704782Y-41241227D01*
X157767123Y-41391731D01*
X157857628Y-41527181D01*
X157972819Y-41642372D01*
X158108269Y-41732877D01*
X158258773Y-41795218D01*
X158418548Y-41827000D01*
X158581452Y-41827000D01*
X158741227Y-41795218D01*
X158891731Y-41732877D01*
X159027181Y-41642372D01*
X159105022Y-41564531D01*
X162815074Y-41564531D01*
X162925921Y-41841714D01*
X163236840Y-41995089D01*
X163571705Y-42084860D01*
X163917650Y-42107576D01*
X164261380Y-42062366D01*
X164589685Y-41950966D01*
X164794079Y-41841714D01*
X164904926Y-41564531D01*
X167895074Y-41564531D01*
X168005921Y-41841714D01*
X168316840Y-41995089D01*
X168651705Y-42084860D01*
X168997650Y-42107576D01*
X169341380Y-42062366D01*
X169669685Y-41950966D01*
X169874079Y-41841714D01*
X169984926Y-41564531D01*
X168940000Y-40519605D01*
X167895074Y-41564531D01*
X164904926Y-41564531D01*
X163860000Y-40519605D01*
X162815074Y-41564531D01*
X159105022Y-41564531D01*
X159142372Y-41527181D01*
X159232877Y-41391731D01*
X159295218Y-41241227D01*
X159327000Y-41081452D01*
X159327000Y-40918548D01*
X159295218Y-40758773D01*
X159232877Y-40608269D01*
X159142372Y-40472819D01*
X159067203Y-40397650D01*
X162092424Y-40397650D01*
X162137634Y-40741380D01*
X162249034Y-41069685D01*
X162358286Y-41274079D01*
X162635469Y-41384926D01*
X163680395Y-40340000D01*
X164039605Y-40340000D01*
X165084531Y-41384926D01*
X165361714Y-41274079D01*
X165515089Y-40963160D01*
X165604860Y-40628295D01*
X165620004Y-40397650D01*
X167172424Y-40397650D01*
X167217634Y-40741380D01*
X167329034Y-41069685D01*
X167438286Y-41274079D01*
X167715469Y-41384926D01*
X168760395Y-40340000D01*
X169119605Y-40340000D01*
X170164531Y-41384926D01*
X170441714Y-41274079D01*
X170595089Y-40963160D01*
X170684860Y-40628295D01*
X170707576Y-40282350D01*
X170662366Y-39938620D01*
X170550966Y-39610315D01*
X170441714Y-39405921D01*
X170164531Y-39295074D01*
X169119605Y-40340000D01*
X168760395Y-40340000D01*
X167715469Y-39295074D01*
X167438286Y-39405921D01*
X167284911Y-39716840D01*
X167195140Y-40051705D01*
X167172424Y-40397650D01*
X165620004Y-40397650D01*
X165627576Y-40282350D01*
X165582366Y-39938620D01*
X165470966Y-39610315D01*
X165361714Y-39405921D01*
X165084531Y-39295074D01*
X164039605Y-40340000D01*
X163680395Y-40340000D01*
X162635469Y-39295074D01*
X162358286Y-39405921D01*
X162204911Y-39716840D01*
X162115140Y-40051705D01*
X162092424Y-40397650D01*
X159067203Y-40397650D01*
X159027181Y-40357628D01*
X158891731Y-40267123D01*
X158741227Y-40204782D01*
X158581452Y-40173000D01*
X158418548Y-40173000D01*
X158258773Y-40204782D01*
X158108269Y-40267123D01*
X157972819Y-40357628D01*
X157857628Y-40472819D01*
X157767123Y-40608269D01*
X157704782Y-40758773D01*
X157673000Y-40918548D01*
X152918436Y-40918548D01*
X152995089Y-40763160D01*
X153084860Y-40428295D01*
X153107576Y-40082350D01*
X153062366Y-39738620D01*
X152950966Y-39410315D01*
X152841714Y-39205921D01*
X152615531Y-39115469D01*
X162815074Y-39115469D01*
X163860000Y-40160395D01*
X164904926Y-39115469D01*
X164794079Y-38838286D01*
X164483160Y-38684911D01*
X164148295Y-38595140D01*
X163802350Y-38572424D01*
X163458620Y-38617634D01*
X163130315Y-38729034D01*
X162925921Y-38838286D01*
X162815074Y-39115469D01*
X152615531Y-39115469D01*
X152564531Y-39095074D01*
X151519605Y-40140000D01*
X151160395Y-40140000D01*
X150115469Y-39095074D01*
X149838286Y-39205921D01*
X149684911Y-39516840D01*
X149595140Y-39851705D01*
X149572424Y-40197650D01*
X148020004Y-40197650D01*
X148027576Y-40082350D01*
X147982366Y-39738620D01*
X147870966Y-39410315D01*
X147761714Y-39205921D01*
X147484531Y-39095074D01*
X146439605Y-40140000D01*
X146080395Y-40140000D01*
X145035469Y-39095074D01*
X144758286Y-39205921D01*
X144604911Y-39516840D01*
X144515140Y-39851705D01*
X144492424Y-40197650D01*
X104477000Y-40197650D01*
X104477000Y-38915469D01*
X145215074Y-38915469D01*
X146260000Y-39960395D01*
X147304926Y-38915469D01*
X147194079Y-38638286D01*
X146883160Y-38484911D01*
X146548295Y-38395140D01*
X146202350Y-38372424D01*
X145858620Y-38417634D01*
X145530315Y-38529034D01*
X145325921Y-38638286D01*
X145215074Y-38915469D01*
X104477000Y-38915469D01*
X104477000Y-37456990D01*
X147348000Y-37456990D01*
X147348000Y-37743010D01*
X147403799Y-38023533D01*
X147513254Y-38287780D01*
X147672158Y-38525596D01*
X147874404Y-38727842D01*
X148112220Y-38886746D01*
X148376467Y-38996201D01*
X148656990Y-39052000D01*
X148943010Y-39052000D01*
X149223533Y-38996201D01*
X149418436Y-38915469D01*
X150295074Y-38915469D01*
X151340000Y-39960395D01*
X152384926Y-38915469D01*
X152274079Y-38638286D01*
X151963160Y-38484911D01*
X151628295Y-38395140D01*
X151282350Y-38372424D01*
X150938620Y-38417634D01*
X150610315Y-38529034D01*
X150405921Y-38638286D01*
X150295074Y-38915469D01*
X149418436Y-38915469D01*
X149487780Y-38886746D01*
X149725596Y-38727842D01*
X149927842Y-38525596D01*
X150086746Y-38287780D01*
X150196201Y-38023533D01*
X150252000Y-37743010D01*
X150252000Y-37656990D01*
X164948000Y-37656990D01*
X164948000Y-37943010D01*
X165003799Y-38223533D01*
X165113254Y-38487780D01*
X165272158Y-38725596D01*
X165474404Y-38927842D01*
X165712220Y-39086746D01*
X165976467Y-39196201D01*
X166256990Y-39252000D01*
X166543010Y-39252000D01*
X166823533Y-39196201D01*
X167018436Y-39115469D01*
X167895074Y-39115469D01*
X168940000Y-40160395D01*
X169984926Y-39115469D01*
X169874079Y-38838286D01*
X169563160Y-38684911D01*
X169228295Y-38595140D01*
X168882350Y-38572424D01*
X168538620Y-38617634D01*
X168210315Y-38729034D01*
X168005921Y-38838286D01*
X167895074Y-39115469D01*
X167018436Y-39115469D01*
X167087780Y-39086746D01*
X167325596Y-38927842D01*
X167527842Y-38725596D01*
X167686746Y-38487780D01*
X167796201Y-38223533D01*
X167852000Y-37943010D01*
X167852000Y-37656990D01*
X167796201Y-37376467D01*
X167686746Y-37112220D01*
X167527842Y-36874404D01*
X167325596Y-36672158D01*
X167087780Y-36513254D01*
X167018437Y-36484531D01*
X167895074Y-36484531D01*
X168005921Y-36761714D01*
X168316840Y-36915089D01*
X168651705Y-37004860D01*
X168997650Y-37027576D01*
X169341380Y-36982366D01*
X169669685Y-36870966D01*
X169874079Y-36761714D01*
X169984926Y-36484531D01*
X168940000Y-35439605D01*
X167895074Y-36484531D01*
X167018437Y-36484531D01*
X166823533Y-36403799D01*
X166543010Y-36348000D01*
X166256990Y-36348000D01*
X165976467Y-36403799D01*
X165712220Y-36513254D01*
X165474404Y-36672158D01*
X165272158Y-36874404D01*
X165113254Y-37112220D01*
X165003799Y-37376467D01*
X164948000Y-37656990D01*
X150252000Y-37656990D01*
X150252000Y-37456990D01*
X150196201Y-37176467D01*
X150086746Y-36912220D01*
X149927842Y-36674404D01*
X149725596Y-36472158D01*
X149487780Y-36313254D01*
X149418437Y-36284531D01*
X150295074Y-36284531D01*
X150405921Y-36561714D01*
X150716840Y-36715089D01*
X151051705Y-36804860D01*
X151397650Y-36827576D01*
X151741380Y-36782366D01*
X152069685Y-36670966D01*
X152274079Y-36561714D01*
X152304944Y-36484531D01*
X162815074Y-36484531D01*
X162925921Y-36761714D01*
X163236840Y-36915089D01*
X163571705Y-37004860D01*
X163917650Y-37027576D01*
X164261380Y-36982366D01*
X164589685Y-36870966D01*
X164794079Y-36761714D01*
X164904926Y-36484531D01*
X163860000Y-35439605D01*
X162815074Y-36484531D01*
X152304944Y-36484531D01*
X152384926Y-36284531D01*
X151340000Y-35239605D01*
X150295074Y-36284531D01*
X149418437Y-36284531D01*
X149223533Y-36203799D01*
X148943010Y-36148000D01*
X148656990Y-36148000D01*
X148376467Y-36203799D01*
X148112220Y-36313254D01*
X147874404Y-36472158D01*
X147672158Y-36674404D01*
X147513254Y-36912220D01*
X147403799Y-37176467D01*
X147348000Y-37456990D01*
X104477000Y-37456990D01*
X104477000Y-36284531D01*
X145215074Y-36284531D01*
X145325921Y-36561714D01*
X145636840Y-36715089D01*
X145971705Y-36804860D01*
X146317650Y-36827576D01*
X146661380Y-36782366D01*
X146989685Y-36670966D01*
X147194079Y-36561714D01*
X147304926Y-36284531D01*
X146260000Y-35239605D01*
X145215074Y-36284531D01*
X104477000Y-36284531D01*
X104477000Y-35117650D01*
X144492424Y-35117650D01*
X144537634Y-35461380D01*
X144649034Y-35789685D01*
X144758286Y-35994079D01*
X145035469Y-36104926D01*
X146080395Y-35060000D01*
X146439605Y-35060000D01*
X147484531Y-36104926D01*
X147761714Y-35994079D01*
X147915089Y-35683160D01*
X148004860Y-35348295D01*
X148020004Y-35117650D01*
X149572424Y-35117650D01*
X149617634Y-35461380D01*
X149729034Y-35789685D01*
X149838286Y-35994079D01*
X150115469Y-36104926D01*
X151160395Y-35060000D01*
X151519605Y-35060000D01*
X152564531Y-36104926D01*
X152841714Y-35994079D01*
X152995089Y-35683160D01*
X153084860Y-35348295D01*
X153106512Y-35018548D01*
X153973000Y-35018548D01*
X153973000Y-35181452D01*
X154004782Y-35341227D01*
X154067123Y-35491731D01*
X154157628Y-35627181D01*
X154272819Y-35742372D01*
X154408269Y-35832877D01*
X154558773Y-35895218D01*
X154718548Y-35927000D01*
X154881452Y-35927000D01*
X155041227Y-35895218D01*
X155191731Y-35832877D01*
X155327181Y-35742372D01*
X155442372Y-35627181D01*
X155532877Y-35491731D01*
X155595218Y-35341227D01*
X155627000Y-35181452D01*
X155627000Y-35018548D01*
X156273000Y-35018548D01*
X156273000Y-35181452D01*
X156304782Y-35341227D01*
X156367123Y-35491731D01*
X156457628Y-35627181D01*
X156572819Y-35742372D01*
X156708269Y-35832877D01*
X156858773Y-35895218D01*
X157018548Y-35927000D01*
X157181452Y-35927000D01*
X157341227Y-35895218D01*
X157491731Y-35832877D01*
X157627181Y-35742372D01*
X157742372Y-35627181D01*
X157832877Y-35491731D01*
X157895218Y-35341227D01*
X157899907Y-35317650D01*
X162092424Y-35317650D01*
X162137634Y-35661380D01*
X162249034Y-35989685D01*
X162358286Y-36194079D01*
X162635469Y-36304926D01*
X163680395Y-35260000D01*
X164039605Y-35260000D01*
X165084531Y-36304926D01*
X165361714Y-36194079D01*
X165515089Y-35883160D01*
X165604860Y-35548295D01*
X165620004Y-35317650D01*
X167172424Y-35317650D01*
X167217634Y-35661380D01*
X167329034Y-35989685D01*
X167438286Y-36194079D01*
X167715469Y-36304926D01*
X168760395Y-35260000D01*
X169119605Y-35260000D01*
X170164531Y-36304926D01*
X170441714Y-36194079D01*
X170595089Y-35883160D01*
X170684860Y-35548295D01*
X170707576Y-35202350D01*
X170662366Y-34858620D01*
X170550966Y-34530315D01*
X170441714Y-34325921D01*
X170164531Y-34215074D01*
X169119605Y-35260000D01*
X168760395Y-35260000D01*
X167715469Y-34215074D01*
X167438286Y-34325921D01*
X167284911Y-34636840D01*
X167195140Y-34971705D01*
X167172424Y-35317650D01*
X165620004Y-35317650D01*
X165627576Y-35202350D01*
X165582366Y-34858620D01*
X165470966Y-34530315D01*
X165361714Y-34325921D01*
X165084531Y-34215074D01*
X164039605Y-35260000D01*
X163680395Y-35260000D01*
X162635469Y-34215074D01*
X162358286Y-34325921D01*
X162204911Y-34636840D01*
X162115140Y-34971705D01*
X162092424Y-35317650D01*
X157899907Y-35317650D01*
X157927000Y-35181452D01*
X157927000Y-35018548D01*
X157895218Y-34858773D01*
X157832877Y-34708269D01*
X157742372Y-34572819D01*
X157627181Y-34457628D01*
X157491731Y-34367123D01*
X157341227Y-34304782D01*
X157181452Y-34273000D01*
X157018548Y-34273000D01*
X156858773Y-34304782D01*
X156708269Y-34367123D01*
X156572819Y-34457628D01*
X156457628Y-34572819D01*
X156367123Y-34708269D01*
X156304782Y-34858773D01*
X156273000Y-35018548D01*
X155627000Y-35018548D01*
X155595218Y-34858773D01*
X155532877Y-34708269D01*
X155442372Y-34572819D01*
X155327181Y-34457628D01*
X155191731Y-34367123D01*
X155041227Y-34304782D01*
X154881452Y-34273000D01*
X154718548Y-34273000D01*
X154558773Y-34304782D01*
X154408269Y-34367123D01*
X154272819Y-34457628D01*
X154157628Y-34572819D01*
X154067123Y-34708269D01*
X154004782Y-34858773D01*
X153973000Y-35018548D01*
X153106512Y-35018548D01*
X153107576Y-35002350D01*
X153062366Y-34658620D01*
X152950966Y-34330315D01*
X152841714Y-34125921D01*
X152615531Y-34035469D01*
X162815074Y-34035469D01*
X163860000Y-35080395D01*
X164904926Y-34035469D01*
X167895074Y-34035469D01*
X168940000Y-35080395D01*
X169984926Y-34035469D01*
X169874079Y-33758286D01*
X169563160Y-33604911D01*
X169228295Y-33515140D01*
X168882350Y-33492424D01*
X168538620Y-33537634D01*
X168210315Y-33649034D01*
X168005921Y-33758286D01*
X167895074Y-34035469D01*
X164904926Y-34035469D01*
X164794079Y-33758286D01*
X164483160Y-33604911D01*
X164148295Y-33515140D01*
X163802350Y-33492424D01*
X163458620Y-33537634D01*
X163130315Y-33649034D01*
X162925921Y-33758286D01*
X162815074Y-34035469D01*
X152615531Y-34035469D01*
X152564531Y-34015074D01*
X151519605Y-35060000D01*
X151160395Y-35060000D01*
X150115469Y-34015074D01*
X149838286Y-34125921D01*
X149684911Y-34436840D01*
X149595140Y-34771705D01*
X149572424Y-35117650D01*
X148020004Y-35117650D01*
X148027576Y-35002350D01*
X147982366Y-34658620D01*
X147870966Y-34330315D01*
X147761714Y-34125921D01*
X147484531Y-34015074D01*
X146439605Y-35060000D01*
X146080395Y-35060000D01*
X145035469Y-34015074D01*
X144758286Y-34125921D01*
X144604911Y-34436840D01*
X144515140Y-34771705D01*
X144492424Y-35117650D01*
X104477000Y-35117650D01*
X104477000Y-33835469D01*
X145215074Y-33835469D01*
X146260000Y-34880395D01*
X147304926Y-33835469D01*
X150295074Y-33835469D01*
X151340000Y-34880395D01*
X152384926Y-33835469D01*
X152274079Y-33558286D01*
X151963160Y-33404911D01*
X151628295Y-33315140D01*
X151282350Y-33292424D01*
X150938620Y-33337634D01*
X150610315Y-33449034D01*
X150405921Y-33558286D01*
X150295074Y-33835469D01*
X147304926Y-33835469D01*
X147194079Y-33558286D01*
X146883160Y-33404911D01*
X146548295Y-33315140D01*
X146202350Y-33292424D01*
X145858620Y-33337634D01*
X145530315Y-33449034D01*
X145325921Y-33558286D01*
X145215074Y-33835469D01*
X104477000Y-33835469D01*
X104477000Y-25877000D01*
X179923000Y-25877000D01*
X179923001Y-98923000D01*
G04 #@! TA.AperFunction,Conductor*
D17*
G36*
X179923001Y-98923000D02*
G01*
X104477000Y-98923000D01*
X104477000Y-92518548D01*
X146573000Y-92518548D01*
X146573000Y-92681452D01*
X146604782Y-92841227D01*
X146667123Y-92991731D01*
X146757628Y-93127181D01*
X146872819Y-93242372D01*
X147008269Y-93332877D01*
X147158773Y-93395218D01*
X147318548Y-93427000D01*
X147481452Y-93427000D01*
X147641227Y-93395218D01*
X147791731Y-93332877D01*
X147927181Y-93242372D01*
X148042372Y-93127181D01*
X148132877Y-92991731D01*
X148195218Y-92841227D01*
X148227000Y-92681452D01*
X148227000Y-92518548D01*
X154073000Y-92518548D01*
X154073000Y-92681452D01*
X154104782Y-92841227D01*
X154167123Y-92991731D01*
X154257628Y-93127181D01*
X154372819Y-93242372D01*
X154508269Y-93332877D01*
X154658773Y-93395218D01*
X154818548Y-93427000D01*
X154981452Y-93427000D01*
X155141227Y-93395218D01*
X155291731Y-93332877D01*
X155427181Y-93242372D01*
X155542372Y-93127181D01*
X155632877Y-92991731D01*
X155695218Y-92841227D01*
X155727000Y-92681452D01*
X155727000Y-92518548D01*
X157773000Y-92518548D01*
X157773000Y-92681452D01*
X157804782Y-92841227D01*
X157867123Y-92991731D01*
X157957628Y-93127181D01*
X158072819Y-93242372D01*
X158208269Y-93332877D01*
X158214448Y-93335437D01*
X158204782Y-93358773D01*
X158173000Y-93518548D01*
X158173000Y-93681452D01*
X158204782Y-93841227D01*
X158267123Y-93991731D01*
X158357628Y-94127181D01*
X158472819Y-94242372D01*
X158608269Y-94332877D01*
X158758773Y-94395218D01*
X158918548Y-94427000D01*
X159081452Y-94427000D01*
X159241227Y-94395218D01*
X159391731Y-94332877D01*
X159527181Y-94242372D01*
X159642372Y-94127181D01*
X159732877Y-93991731D01*
X159795218Y-93841227D01*
X159827000Y-93681452D01*
X159827000Y-93518548D01*
X159795218Y-93358773D01*
X159732877Y-93208269D01*
X159642372Y-93072819D01*
X159527181Y-92957628D01*
X159391731Y-92867123D01*
X159385552Y-92864563D01*
X159395218Y-92841227D01*
X159427000Y-92681452D01*
X159427000Y-92518548D01*
X159395218Y-92358773D01*
X159332877Y-92208269D01*
X159242372Y-92072819D01*
X159127181Y-91957628D01*
X158991731Y-91867123D01*
X158841227Y-91804782D01*
X158681452Y-91773000D01*
X158518548Y-91773000D01*
X158358773Y-91804782D01*
X158208269Y-91867123D01*
X158072819Y-91957628D01*
X157957628Y-92072819D01*
X157867123Y-92208269D01*
X157804782Y-92358773D01*
X157773000Y-92518548D01*
X155727000Y-92518548D01*
X155695218Y-92358773D01*
X155632877Y-92208269D01*
X155542372Y-92072819D01*
X155427181Y-91957628D01*
X155291731Y-91867123D01*
X155141227Y-91804782D01*
X154981452Y-91773000D01*
X154818548Y-91773000D01*
X154658773Y-91804782D01*
X154508269Y-91867123D01*
X154372819Y-91957628D01*
X154257628Y-92072819D01*
X154167123Y-92208269D01*
X154104782Y-92358773D01*
X154073000Y-92518548D01*
X148227000Y-92518548D01*
X148195218Y-92358773D01*
X148132877Y-92208269D01*
X148042372Y-92072819D01*
X147927181Y-91957628D01*
X147791731Y-91867123D01*
X147641227Y-91804782D01*
X147481452Y-91773000D01*
X147318548Y-91773000D01*
X147158773Y-91804782D01*
X147008269Y-91867123D01*
X146872819Y-91957628D01*
X146757628Y-92072819D01*
X146667123Y-92208269D01*
X146604782Y-92358773D01*
X146573000Y-92518548D01*
X104477000Y-92518548D01*
X104477000Y-90650000D01*
X130691928Y-90650000D01*
X130704188Y-90774482D01*
X130740498Y-90894180D01*
X130799463Y-91004494D01*
X130878815Y-91101185D01*
X130975506Y-91180537D01*
X131085820Y-91239502D01*
X131205518Y-91275812D01*
X131330000Y-91288072D01*
X131894250Y-91285000D01*
X132053000Y-91126250D01*
X132053000Y-89927000D01*
X130853750Y-89927000D01*
X130695000Y-90085750D01*
X130691928Y-90650000D01*
X104477000Y-90650000D01*
X104477000Y-88950000D01*
X130691928Y-88950000D01*
X130695000Y-89514250D01*
X130853750Y-89673000D01*
X132053000Y-89673000D01*
X132053000Y-89653000D01*
X132307000Y-89653000D01*
X132307000Y-89673000D01*
X132327000Y-89673000D01*
X132327000Y-89927000D01*
X132307000Y-89927000D01*
X132307000Y-91126250D01*
X132465750Y-91285000D01*
X133030000Y-91288072D01*
X133154482Y-91275812D01*
X133274180Y-91239502D01*
X133384494Y-91180537D01*
X133481185Y-91101185D01*
X133560537Y-91004494D01*
X133619502Y-90894180D01*
X133655812Y-90774482D01*
X133668072Y-90650000D01*
X133667382Y-90523185D01*
X133728089Y-90614040D01*
X133905960Y-90791911D01*
X134115114Y-90931663D01*
X134347513Y-91027926D01*
X134594226Y-91077000D01*
X134845774Y-91077000D01*
X135092487Y-91027926D01*
X135324886Y-90931663D01*
X135534040Y-90791911D01*
X135711911Y-90614040D01*
X135851663Y-90404886D01*
X135947926Y-90172487D01*
X135990000Y-89960966D01*
X136032074Y-90172487D01*
X136128337Y-90404886D01*
X136268089Y-90614040D01*
X136445960Y-90791911D01*
X136655114Y-90931663D01*
X136887513Y-91027926D01*
X137134226Y-91077000D01*
X137385774Y-91077000D01*
X137632487Y-91027926D01*
X137864886Y-90931663D01*
X138074040Y-90791911D01*
X138251911Y-90614040D01*
X138391663Y-90404886D01*
X138487926Y-90172487D01*
X138530000Y-89960966D01*
X138572074Y-90172487D01*
X138668337Y-90404886D01*
X138808089Y-90614040D01*
X138985960Y-90791911D01*
X139195114Y-90931663D01*
X139427513Y-91027926D01*
X139674226Y-91077000D01*
X139925774Y-91077000D01*
X140172487Y-91027926D01*
X140404886Y-90931663D01*
X140559434Y-90828397D01*
X141491208Y-90828397D01*
X141568843Y-91077472D01*
X141832883Y-91203371D01*
X142116411Y-91275339D01*
X142408531Y-91290611D01*
X142698019Y-91248599D01*
X142973747Y-91150919D01*
X143111157Y-91077472D01*
X143188792Y-90828397D01*
X142340000Y-89979605D01*
X141491208Y-90828397D01*
X140559434Y-90828397D01*
X140614040Y-90791911D01*
X140791911Y-90614040D01*
X140931663Y-90404886D01*
X140957101Y-90343474D01*
X140989081Y-90433747D01*
X141062528Y-90571157D01*
X141311603Y-90648792D01*
X142160395Y-89800000D01*
X142519605Y-89800000D01*
X143368397Y-90648792D01*
X143617472Y-90571157D01*
X143743371Y-90307117D01*
X143815339Y-90023589D01*
X143830611Y-89731469D01*
X143788599Y-89441981D01*
X143690919Y-89166253D01*
X143617472Y-89028843D01*
X143368397Y-88951208D01*
X142519605Y-89800000D01*
X142160395Y-89800000D01*
X141311603Y-88951208D01*
X141062528Y-89028843D01*
X140955643Y-89253006D01*
X140931663Y-89195114D01*
X140791911Y-88985960D01*
X140614040Y-88808089D01*
X140404886Y-88668337D01*
X140172487Y-88572074D01*
X139960966Y-88530000D01*
X140172487Y-88487926D01*
X140404886Y-88391663D01*
X140614040Y-88251911D01*
X140791911Y-88074040D01*
X140931663Y-87864886D01*
X141027926Y-87632487D01*
X141070000Y-87420966D01*
X141112074Y-87632487D01*
X141208337Y-87864886D01*
X141348089Y-88074040D01*
X141525960Y-88251911D01*
X141735114Y-88391663D01*
X141796526Y-88417101D01*
X141706253Y-88449081D01*
X141568843Y-88522528D01*
X141491208Y-88771603D01*
X142340000Y-89620395D01*
X143188792Y-88771603D01*
X143111157Y-88522528D01*
X142893087Y-88418548D01*
X145073000Y-88418548D01*
X145073000Y-88581452D01*
X145104782Y-88741227D01*
X145167123Y-88891731D01*
X145257628Y-89027181D01*
X145372819Y-89142372D01*
X145508269Y-89232877D01*
X145658773Y-89295218D01*
X145818548Y-89327000D01*
X145981452Y-89327000D01*
X146141227Y-89295218D01*
X146291731Y-89232877D01*
X146427181Y-89142372D01*
X146542372Y-89027181D01*
X146632877Y-88891731D01*
X146695218Y-88741227D01*
X146727000Y-88581452D01*
X146727000Y-88418548D01*
X146695218Y-88258773D01*
X146632877Y-88108269D01*
X146542372Y-87972819D01*
X146427181Y-87857628D01*
X146291731Y-87767123D01*
X146141227Y-87704782D01*
X145981452Y-87673000D01*
X145818548Y-87673000D01*
X145658773Y-87704782D01*
X145508269Y-87767123D01*
X145372819Y-87857628D01*
X145257628Y-87972819D01*
X145167123Y-88108269D01*
X145104782Y-88258773D01*
X145073000Y-88418548D01*
X142893087Y-88418548D01*
X142886994Y-88415643D01*
X142944886Y-88391663D01*
X143154040Y-88251911D01*
X143331911Y-88074040D01*
X143471663Y-87864886D01*
X143567926Y-87632487D01*
X143617000Y-87385774D01*
X143617000Y-87134226D01*
X143567926Y-86887513D01*
X143471663Y-86655114D01*
X143331911Y-86445960D01*
X143154040Y-86268089D01*
X142944886Y-86128337D01*
X142712487Y-86032074D01*
X142465774Y-85983000D01*
X142214226Y-85983000D01*
X141967513Y-86032074D01*
X141735114Y-86128337D01*
X141525960Y-86268089D01*
X141348089Y-86445960D01*
X141208337Y-86655114D01*
X141112074Y-86887513D01*
X141070000Y-87099034D01*
X141027926Y-86887513D01*
X140931663Y-86655114D01*
X140791911Y-86445960D01*
X140614040Y-86268089D01*
X140404886Y-86128337D01*
X140172487Y-86032074D01*
X139925774Y-85983000D01*
X139674226Y-85983000D01*
X139427513Y-86032074D01*
X139195114Y-86128337D01*
X138985960Y-86268089D01*
X138808089Y-86445960D01*
X138668337Y-86655114D01*
X138572074Y-86887513D01*
X138530000Y-87099034D01*
X138487926Y-86887513D01*
X138391663Y-86655114D01*
X138251911Y-86445960D01*
X138074040Y-86268089D01*
X137864886Y-86128337D01*
X137632487Y-86032074D01*
X137385774Y-85983000D01*
X137134226Y-85983000D01*
X136887513Y-86032074D01*
X136655114Y-86128337D01*
X136445960Y-86268089D01*
X136268089Y-86445960D01*
X136128337Y-86655114D01*
X136032074Y-86887513D01*
X135990000Y-87099034D01*
X135947926Y-86887513D01*
X135851663Y-86655114D01*
X135711911Y-86445960D01*
X135534040Y-86268089D01*
X135324886Y-86128337D01*
X135092487Y-86032074D01*
X134845774Y-85983000D01*
X134594226Y-85983000D01*
X134347513Y-86032074D01*
X134115114Y-86128337D01*
X133905960Y-86268089D01*
X133728089Y-86445960D01*
X133588337Y-86655114D01*
X133492074Y-86887513D01*
X133450000Y-87099034D01*
X133407926Y-86887513D01*
X133311663Y-86655114D01*
X133171911Y-86445960D01*
X132994040Y-86268089D01*
X132784886Y-86128337D01*
X132552487Y-86032074D01*
X132305774Y-85983000D01*
X132054226Y-85983000D01*
X131807513Y-86032074D01*
X131575114Y-86128337D01*
X131365960Y-86268089D01*
X131188089Y-86445960D01*
X131048337Y-86655114D01*
X130952074Y-86887513D01*
X130903000Y-87134226D01*
X130903000Y-87385774D01*
X130952074Y-87632487D01*
X131048337Y-87864886D01*
X131188089Y-88074040D01*
X131365960Y-88251911D01*
X131456815Y-88312618D01*
X131330000Y-88311928D01*
X131205518Y-88324188D01*
X131085820Y-88360498D01*
X130975506Y-88419463D01*
X130878815Y-88498815D01*
X130799463Y-88595506D01*
X130740498Y-88705820D01*
X130704188Y-88825518D01*
X130691928Y-88950000D01*
X104477000Y-88950000D01*
X104477000Y-85150000D01*
X148720934Y-85150000D01*
X148720934Y-86850000D01*
X148729178Y-86933707D01*
X148753595Y-87014196D01*
X148793245Y-87088376D01*
X148846605Y-87153395D01*
X148911624Y-87206755D01*
X148985804Y-87246405D01*
X149066293Y-87270822D01*
X149150000Y-87279066D01*
X149793456Y-87279066D01*
X149627513Y-87312074D01*
X149395114Y-87408337D01*
X149185960Y-87548089D01*
X149008089Y-87725960D01*
X148868337Y-87935114D01*
X148772074Y-88167513D01*
X148723000Y-88414226D01*
X148723000Y-88665774D01*
X148772074Y-88912487D01*
X148868337Y-89144886D01*
X149008089Y-89354040D01*
X149185960Y-89531911D01*
X149395114Y-89671663D01*
X149627513Y-89767926D01*
X149839034Y-89810000D01*
X149627513Y-89852074D01*
X149395114Y-89948337D01*
X149185960Y-90088089D01*
X149008089Y-90265960D01*
X148868337Y-90475114D01*
X148772074Y-90707513D01*
X148723000Y-90954226D01*
X148723000Y-91205774D01*
X148772074Y-91452487D01*
X148868337Y-91684886D01*
X149008089Y-91894040D01*
X149185960Y-92071911D01*
X149395114Y-92211663D01*
X149627513Y-92307926D01*
X149874226Y-92357000D01*
X150125774Y-92357000D01*
X150372487Y-92307926D01*
X150604886Y-92211663D01*
X150814040Y-92071911D01*
X150991911Y-91894040D01*
X151131663Y-91684886D01*
X151227926Y-91452487D01*
X151270000Y-91240966D01*
X151312074Y-91452487D01*
X151408337Y-91684886D01*
X151548089Y-91894040D01*
X151725960Y-92071911D01*
X151935114Y-92211663D01*
X152167513Y-92307926D01*
X152414226Y-92357000D01*
X152665774Y-92357000D01*
X152912487Y-92307926D01*
X153144886Y-92211663D01*
X153354040Y-92071911D01*
X153531911Y-91894040D01*
X153671663Y-91684886D01*
X153767926Y-91452487D01*
X153817000Y-91205774D01*
X153817000Y-90954226D01*
X153767926Y-90707513D01*
X153671663Y-90475114D01*
X153531911Y-90265960D01*
X153354040Y-90088089D01*
X153144886Y-89948337D01*
X152912487Y-89852074D01*
X152700966Y-89810000D01*
X152912487Y-89767926D01*
X153144886Y-89671663D01*
X153354040Y-89531911D01*
X153531911Y-89354040D01*
X153671663Y-89144886D01*
X153767926Y-88912487D01*
X153817000Y-88665774D01*
X153817000Y-88518548D01*
X160373000Y-88518548D01*
X160373000Y-88681452D01*
X160404782Y-88841227D01*
X160467123Y-88991731D01*
X160557628Y-89127181D01*
X160672819Y-89242372D01*
X160808269Y-89332877D01*
X160958773Y-89395218D01*
X161118548Y-89427000D01*
X161281452Y-89427000D01*
X161441227Y-89395218D01*
X161591731Y-89332877D01*
X161727181Y-89242372D01*
X161842372Y-89127181D01*
X161932877Y-88991731D01*
X161995218Y-88841227D01*
X162027000Y-88681452D01*
X162027000Y-88518548D01*
X161995218Y-88358773D01*
X161932877Y-88208269D01*
X161842372Y-88072819D01*
X161727181Y-87957628D01*
X161591731Y-87867123D01*
X161441227Y-87804782D01*
X161281452Y-87773000D01*
X161118548Y-87773000D01*
X160958773Y-87804782D01*
X160808269Y-87867123D01*
X160672819Y-87957628D01*
X160557628Y-88072819D01*
X160467123Y-88208269D01*
X160404782Y-88358773D01*
X160373000Y-88518548D01*
X153817000Y-88518548D01*
X153817000Y-88414226D01*
X153767926Y-88167513D01*
X153671663Y-87935114D01*
X153531911Y-87725960D01*
X153354040Y-87548089D01*
X153144886Y-87408337D01*
X153073584Y-87378803D01*
X153171252Y-87344157D01*
X153421355Y-87195178D01*
X153637588Y-87000269D01*
X153811641Y-86766920D01*
X153936825Y-86504099D01*
X153981476Y-86356890D01*
X153860155Y-86127000D01*
X152667000Y-86127000D01*
X152667000Y-86147000D01*
X152413000Y-86147000D01*
X152413000Y-86127000D01*
X152393000Y-86127000D01*
X152393000Y-85873000D01*
X152413000Y-85873000D01*
X152413000Y-84679186D01*
X152667000Y-84679186D01*
X152667000Y-85873000D01*
X153860155Y-85873000D01*
X153981476Y-85643110D01*
X153936825Y-85495901D01*
X153811641Y-85233080D01*
X153637588Y-84999731D01*
X153421355Y-84804822D01*
X153171252Y-84655843D01*
X152896891Y-84558519D01*
X152667000Y-84679186D01*
X152413000Y-84679186D01*
X152183109Y-84558519D01*
X151908748Y-84655843D01*
X151658645Y-84804822D01*
X151442412Y-84999731D01*
X151279066Y-85218725D01*
X151279066Y-85150000D01*
X151270822Y-85066293D01*
X151246405Y-84985804D01*
X151206755Y-84911624D01*
X151153395Y-84846605D01*
X151088376Y-84793245D01*
X151014196Y-84753595D01*
X150933707Y-84729178D01*
X150850000Y-84720934D01*
X149150000Y-84720934D01*
X149066293Y-84729178D01*
X148985804Y-84753595D01*
X148911624Y-84793245D01*
X148846605Y-84846605D01*
X148793245Y-84911624D01*
X148753595Y-84985804D01*
X148729178Y-85066293D01*
X148720934Y-85150000D01*
X104477000Y-85150000D01*
X104477000Y-84118548D01*
X146573000Y-84118548D01*
X146573000Y-84281452D01*
X146604782Y-84441227D01*
X146667123Y-84591731D01*
X146757628Y-84727181D01*
X146872819Y-84842372D01*
X147008269Y-84932877D01*
X147158773Y-84995218D01*
X147318548Y-85027000D01*
X147481452Y-85027000D01*
X147641227Y-84995218D01*
X147791731Y-84932877D01*
X147927181Y-84842372D01*
X148042372Y-84727181D01*
X148132877Y-84591731D01*
X148195218Y-84441227D01*
X148227000Y-84281452D01*
X148227000Y-84118548D01*
X148195218Y-83958773D01*
X148132877Y-83808269D01*
X148042372Y-83672819D01*
X147927181Y-83557628D01*
X147791731Y-83467123D01*
X147641227Y-83404782D01*
X147481452Y-83373000D01*
X147318548Y-83373000D01*
X147158773Y-83404782D01*
X147008269Y-83467123D01*
X146872819Y-83557628D01*
X146757628Y-83672819D01*
X146667123Y-83808269D01*
X146604782Y-83958773D01*
X146573000Y-84118548D01*
X104477000Y-84118548D01*
X104477000Y-82764531D01*
X146215074Y-82764531D01*
X146325921Y-83041714D01*
X146636840Y-83195089D01*
X146971705Y-83284860D01*
X147317650Y-83307576D01*
X147661380Y-83262366D01*
X147989685Y-83150966D01*
X148194079Y-83041714D01*
X148304926Y-82764531D01*
X151295074Y-82764531D01*
X151405921Y-83041714D01*
X151716840Y-83195089D01*
X152051705Y-83284860D01*
X152397650Y-83307576D01*
X152741380Y-83262366D01*
X153069685Y-83150966D01*
X153274079Y-83041714D01*
X153384926Y-82764531D01*
X152340000Y-81719605D01*
X151295074Y-82764531D01*
X148304926Y-82764531D01*
X147260000Y-81719605D01*
X146215074Y-82764531D01*
X104477000Y-82764531D01*
X104477000Y-81718548D01*
X132373000Y-81718548D01*
X132373000Y-81881452D01*
X132404782Y-82041227D01*
X132467123Y-82191731D01*
X132557628Y-82327181D01*
X132672819Y-82442372D01*
X132808269Y-82532877D01*
X132958773Y-82595218D01*
X133118548Y-82627000D01*
X133281452Y-82627000D01*
X133441227Y-82595218D01*
X133591731Y-82532877D01*
X133727181Y-82442372D01*
X133842372Y-82327181D01*
X133932877Y-82191731D01*
X133995218Y-82041227D01*
X134027000Y-81881452D01*
X134027000Y-81718548D01*
X134002952Y-81597650D01*
X145492424Y-81597650D01*
X145537634Y-81941380D01*
X145649034Y-82269685D01*
X145758286Y-82474079D01*
X146035469Y-82584926D01*
X147080395Y-81540000D01*
X147439605Y-81540000D01*
X148484531Y-82584926D01*
X148761714Y-82474079D01*
X148915089Y-82163160D01*
X149004860Y-81828295D01*
X149020004Y-81597650D01*
X150572424Y-81597650D01*
X150617634Y-81941380D01*
X150729034Y-82269685D01*
X150838286Y-82474079D01*
X151115469Y-82584926D01*
X152160395Y-81540000D01*
X152519605Y-81540000D01*
X153564531Y-82584926D01*
X153841714Y-82474079D01*
X153995089Y-82163160D01*
X154084860Y-81828295D01*
X154107576Y-81482350D01*
X154062366Y-81138620D01*
X153950966Y-80810315D01*
X153841714Y-80605921D01*
X153564531Y-80495074D01*
X152519605Y-81540000D01*
X152160395Y-81540000D01*
X151115469Y-80495074D01*
X150838286Y-80605921D01*
X150684911Y-80916840D01*
X150595140Y-81251705D01*
X150572424Y-81597650D01*
X149020004Y-81597650D01*
X149027576Y-81482350D01*
X148982366Y-81138620D01*
X148870966Y-80810315D01*
X148761714Y-80605921D01*
X148484531Y-80495074D01*
X147439605Y-81540000D01*
X147080395Y-81540000D01*
X146035469Y-80495074D01*
X145758286Y-80605921D01*
X145604911Y-80916840D01*
X145515140Y-81251705D01*
X145492424Y-81597650D01*
X134002952Y-81597650D01*
X133995218Y-81558773D01*
X133932877Y-81408269D01*
X133842372Y-81272819D01*
X133727181Y-81157628D01*
X133591731Y-81067123D01*
X133441227Y-81004782D01*
X133281452Y-80973000D01*
X133118548Y-80973000D01*
X132958773Y-81004782D01*
X132808269Y-81067123D01*
X132672819Y-81157628D01*
X132557628Y-81272819D01*
X132467123Y-81408269D01*
X132404782Y-81558773D01*
X132373000Y-81718548D01*
X104477000Y-81718548D01*
X104477000Y-80418548D01*
X139573000Y-80418548D01*
X139573000Y-80581452D01*
X139604782Y-80741227D01*
X139667123Y-80891731D01*
X139757628Y-81027181D01*
X139872819Y-81142372D01*
X140008269Y-81232877D01*
X140158773Y-81295218D01*
X140318548Y-81327000D01*
X140481452Y-81327000D01*
X140641227Y-81295218D01*
X140791731Y-81232877D01*
X140927181Y-81142372D01*
X141042372Y-81027181D01*
X141132877Y-80891731D01*
X141195218Y-80741227D01*
X141227000Y-80581452D01*
X141227000Y-80418548D01*
X141206496Y-80315469D01*
X146215074Y-80315469D01*
X147260000Y-81360395D01*
X148304926Y-80315469D01*
X148194079Y-80038286D01*
X147883160Y-79884911D01*
X147548295Y-79795140D01*
X147202350Y-79772424D01*
X146858620Y-79817634D01*
X146530315Y-79929034D01*
X146325921Y-80038286D01*
X146215074Y-80315469D01*
X141206496Y-80315469D01*
X141195218Y-80258773D01*
X141132877Y-80108269D01*
X141042372Y-79972819D01*
X140927181Y-79857628D01*
X140791731Y-79767123D01*
X140641227Y-79704782D01*
X140481452Y-79673000D01*
X140318548Y-79673000D01*
X140158773Y-79704782D01*
X140008269Y-79767123D01*
X139872819Y-79857628D01*
X139757628Y-79972819D01*
X139667123Y-80108269D01*
X139604782Y-80258773D01*
X139573000Y-80418548D01*
X104477000Y-80418548D01*
X104477000Y-79133548D01*
X120773000Y-79133548D01*
X120773000Y-79296452D01*
X120804782Y-79456227D01*
X120867123Y-79606731D01*
X120957628Y-79742181D01*
X121072819Y-79857372D01*
X121208269Y-79947877D01*
X121358773Y-80010218D01*
X121518548Y-80042000D01*
X121681452Y-80042000D01*
X121841227Y-80010218D01*
X121991731Y-79947877D01*
X122127181Y-79857372D01*
X122242372Y-79742181D01*
X122332877Y-79606731D01*
X122395218Y-79456227D01*
X122427000Y-79296452D01*
X122427000Y-79133548D01*
X122395218Y-78973773D01*
X122332877Y-78823269D01*
X122242372Y-78687819D01*
X122173101Y-78618548D01*
X139573000Y-78618548D01*
X139573000Y-78781452D01*
X139604782Y-78941227D01*
X139667123Y-79091731D01*
X139757628Y-79227181D01*
X139872819Y-79342372D01*
X140008269Y-79432877D01*
X140158773Y-79495218D01*
X140318548Y-79527000D01*
X140481452Y-79527000D01*
X140641227Y-79495218D01*
X140791731Y-79432877D01*
X140927181Y-79342372D01*
X141042372Y-79227181D01*
X141132877Y-79091731D01*
X141195218Y-78941227D01*
X141211974Y-78856990D01*
X148348000Y-78856990D01*
X148348000Y-79143010D01*
X148403799Y-79423533D01*
X148513254Y-79687780D01*
X148672158Y-79925596D01*
X148874404Y-80127842D01*
X149112220Y-80286746D01*
X149376467Y-80396201D01*
X149656990Y-80452000D01*
X149943010Y-80452000D01*
X150223533Y-80396201D01*
X150418436Y-80315469D01*
X151295074Y-80315469D01*
X152340000Y-81360395D01*
X153384926Y-80315469D01*
X153274079Y-80038286D01*
X152963160Y-79884911D01*
X152628295Y-79795140D01*
X152282350Y-79772424D01*
X151938620Y-79817634D01*
X151610315Y-79929034D01*
X151405921Y-80038286D01*
X151295074Y-80315469D01*
X150418436Y-80315469D01*
X150487780Y-80286746D01*
X150725596Y-80127842D01*
X150927842Y-79925596D01*
X151086746Y-79687780D01*
X151196201Y-79423533D01*
X151252000Y-79143010D01*
X151252000Y-78856990D01*
X151196201Y-78576467D01*
X151086746Y-78312220D01*
X150927842Y-78074404D01*
X150725596Y-77872158D01*
X150487780Y-77713254D01*
X150418437Y-77684531D01*
X151295074Y-77684531D01*
X151405921Y-77961714D01*
X151716840Y-78115089D01*
X152051705Y-78204860D01*
X152397650Y-78227576D01*
X152741380Y-78182366D01*
X153069685Y-78070966D01*
X153274079Y-77961714D01*
X153384926Y-77684531D01*
X152340000Y-76639605D01*
X151295074Y-77684531D01*
X150418437Y-77684531D01*
X150223533Y-77603799D01*
X149943010Y-77548000D01*
X149656990Y-77548000D01*
X149376467Y-77603799D01*
X149112220Y-77713254D01*
X148874404Y-77872158D01*
X148672158Y-78074404D01*
X148513254Y-78312220D01*
X148403799Y-78576467D01*
X148348000Y-78856990D01*
X141211974Y-78856990D01*
X141227000Y-78781452D01*
X141227000Y-78618548D01*
X141195218Y-78458773D01*
X141132877Y-78308269D01*
X141042372Y-78172819D01*
X140927181Y-78057628D01*
X140791731Y-77967123D01*
X140641227Y-77904782D01*
X140481452Y-77873000D01*
X140318548Y-77873000D01*
X140158773Y-77904782D01*
X140008269Y-77967123D01*
X139872819Y-78057628D01*
X139757628Y-78172819D01*
X139667123Y-78308269D01*
X139604782Y-78458773D01*
X139573000Y-78618548D01*
X122173101Y-78618548D01*
X122127181Y-78572628D01*
X121991731Y-78482123D01*
X121841227Y-78419782D01*
X121681452Y-78388000D01*
X121518548Y-78388000D01*
X121358773Y-78419782D01*
X121208269Y-78482123D01*
X121072819Y-78572628D01*
X120957628Y-78687819D01*
X120867123Y-78823269D01*
X120804782Y-78973773D01*
X120773000Y-79133548D01*
X104477000Y-79133548D01*
X104477000Y-77684531D01*
X146215074Y-77684531D01*
X146325921Y-77961714D01*
X146636840Y-78115089D01*
X146971705Y-78204860D01*
X147317650Y-78227576D01*
X147661380Y-78182366D01*
X147989685Y-78070966D01*
X148194079Y-77961714D01*
X148304926Y-77684531D01*
X147260000Y-76639605D01*
X146215074Y-77684531D01*
X104477000Y-77684531D01*
X104477000Y-76518548D01*
X114773000Y-76518548D01*
X114773000Y-76681452D01*
X114804782Y-76841227D01*
X114867123Y-76991731D01*
X114957628Y-77127181D01*
X115072819Y-77242372D01*
X115208269Y-77332877D01*
X115358773Y-77395218D01*
X115518548Y-77427000D01*
X115681452Y-77427000D01*
X115841227Y-77395218D01*
X115991731Y-77332877D01*
X116127181Y-77242372D01*
X116242372Y-77127181D01*
X116332877Y-76991731D01*
X116395218Y-76841227D01*
X116419620Y-76718548D01*
X127573000Y-76718548D01*
X127573000Y-76881452D01*
X127604782Y-77041227D01*
X127667123Y-77191731D01*
X127757628Y-77327181D01*
X127872819Y-77442372D01*
X128008269Y-77532877D01*
X128158773Y-77595218D01*
X128318548Y-77627000D01*
X128481452Y-77627000D01*
X128641227Y-77595218D01*
X128791731Y-77532877D01*
X128927181Y-77442372D01*
X129042372Y-77327181D01*
X129132877Y-77191731D01*
X129195218Y-77041227D01*
X129227000Y-76881452D01*
X129227000Y-76718548D01*
X129195218Y-76558773D01*
X129178185Y-76517650D01*
X145492424Y-76517650D01*
X145537634Y-76861380D01*
X145649034Y-77189685D01*
X145758286Y-77394079D01*
X146035469Y-77504926D01*
X147080395Y-76460000D01*
X147439605Y-76460000D01*
X148484531Y-77504926D01*
X148761714Y-77394079D01*
X148915089Y-77083160D01*
X149004860Y-76748295D01*
X149020004Y-76517650D01*
X150572424Y-76517650D01*
X150617634Y-76861380D01*
X150729034Y-77189685D01*
X150838286Y-77394079D01*
X151115469Y-77504926D01*
X152160395Y-76460000D01*
X152519605Y-76460000D01*
X153564531Y-77504926D01*
X153841714Y-77394079D01*
X153995089Y-77083160D01*
X154084860Y-76748295D01*
X154107576Y-76402350D01*
X154062366Y-76058620D01*
X153950966Y-75730315D01*
X153841714Y-75525921D01*
X153564531Y-75415074D01*
X152519605Y-76460000D01*
X152160395Y-76460000D01*
X151115469Y-75415074D01*
X150838286Y-75525921D01*
X150684911Y-75836840D01*
X150595140Y-76171705D01*
X150572424Y-76517650D01*
X149020004Y-76517650D01*
X149027576Y-76402350D01*
X148982366Y-76058620D01*
X148870966Y-75730315D01*
X148761714Y-75525921D01*
X148484531Y-75415074D01*
X147439605Y-76460000D01*
X147080395Y-76460000D01*
X146035469Y-75415074D01*
X145758286Y-75525921D01*
X145604911Y-75836840D01*
X145515140Y-76171705D01*
X145492424Y-76517650D01*
X129178185Y-76517650D01*
X129132877Y-76408269D01*
X129042372Y-76272819D01*
X128927181Y-76157628D01*
X128791731Y-76067123D01*
X128641227Y-76004782D01*
X128481452Y-75973000D01*
X128318548Y-75973000D01*
X128158773Y-76004782D01*
X128008269Y-76067123D01*
X127872819Y-76157628D01*
X127757628Y-76272819D01*
X127667123Y-76408269D01*
X127604782Y-76558773D01*
X127573000Y-76718548D01*
X116419620Y-76718548D01*
X116427000Y-76681452D01*
X116427000Y-76518548D01*
X116395218Y-76358773D01*
X116332877Y-76208269D01*
X116242372Y-76072819D01*
X116127181Y-75957628D01*
X115991731Y-75867123D01*
X115841227Y-75804782D01*
X115681452Y-75773000D01*
X115518548Y-75773000D01*
X115358773Y-75804782D01*
X115208269Y-75867123D01*
X115072819Y-75957628D01*
X114957628Y-76072819D01*
X114867123Y-76208269D01*
X114804782Y-76358773D01*
X114773000Y-76518548D01*
X104477000Y-76518548D01*
X104477000Y-74518548D01*
X133773000Y-74518548D01*
X133773000Y-74681452D01*
X133804782Y-74841227D01*
X133867123Y-74991731D01*
X133957628Y-75127181D01*
X134072819Y-75242372D01*
X134208269Y-75332877D01*
X134358773Y-75395218D01*
X134518548Y-75427000D01*
X134681452Y-75427000D01*
X134841227Y-75395218D01*
X134991731Y-75332877D01*
X135127181Y-75242372D01*
X135134084Y-75235469D01*
X146215074Y-75235469D01*
X147260000Y-76280395D01*
X148304926Y-75235469D01*
X151295074Y-75235469D01*
X152340000Y-76280395D01*
X153384926Y-75235469D01*
X153274079Y-74958286D01*
X152963160Y-74804911D01*
X152628295Y-74715140D01*
X152282350Y-74692424D01*
X151938620Y-74737634D01*
X151610315Y-74849034D01*
X151405921Y-74958286D01*
X151295074Y-75235469D01*
X148304926Y-75235469D01*
X148194079Y-74958286D01*
X147883160Y-74804911D01*
X147548295Y-74715140D01*
X147202350Y-74692424D01*
X146858620Y-74737634D01*
X146530315Y-74849034D01*
X146325921Y-74958286D01*
X146215074Y-75235469D01*
X135134084Y-75235469D01*
X135242372Y-75127181D01*
X135332877Y-74991731D01*
X135395218Y-74841227D01*
X135427000Y-74681452D01*
X135427000Y-74518548D01*
X135395218Y-74358773D01*
X135332877Y-74208269D01*
X135242372Y-74072819D01*
X135127181Y-73957628D01*
X134991731Y-73867123D01*
X134841227Y-73804782D01*
X134681452Y-73773000D01*
X134518548Y-73773000D01*
X134358773Y-73804782D01*
X134208269Y-73867123D01*
X134072819Y-73957628D01*
X133957628Y-74072819D01*
X133867123Y-74208269D01*
X133804782Y-74358773D01*
X133773000Y-74518548D01*
X104477000Y-74518548D01*
X104477000Y-72381048D01*
X138035500Y-72381048D01*
X138035500Y-72543952D01*
X138067282Y-72703727D01*
X138129623Y-72854231D01*
X138220128Y-72989681D01*
X138335319Y-73104872D01*
X138470769Y-73195377D01*
X138621273Y-73257718D01*
X138781048Y-73289500D01*
X138943952Y-73289500D01*
X139103727Y-73257718D01*
X139254231Y-73195377D01*
X139389681Y-73104872D01*
X139504872Y-72989681D01*
X139552401Y-72918548D01*
X145973000Y-72918548D01*
X145973000Y-73081452D01*
X146004782Y-73241227D01*
X146067123Y-73391731D01*
X146157628Y-73527181D01*
X146272819Y-73642372D01*
X146408269Y-73732877D01*
X146558773Y-73795218D01*
X146718548Y-73827000D01*
X146881452Y-73827000D01*
X147041227Y-73795218D01*
X147191731Y-73732877D01*
X147327181Y-73642372D01*
X147442372Y-73527181D01*
X147532877Y-73391731D01*
X147595218Y-73241227D01*
X147627000Y-73081452D01*
X147627000Y-72918548D01*
X147973000Y-72918548D01*
X147973000Y-73081452D01*
X148004782Y-73241227D01*
X148067123Y-73391731D01*
X148157628Y-73527181D01*
X148272819Y-73642372D01*
X148408269Y-73732877D01*
X148558773Y-73795218D01*
X148718548Y-73827000D01*
X148881452Y-73827000D01*
X149041227Y-73795218D01*
X149191731Y-73732877D01*
X149327181Y-73642372D01*
X149442372Y-73527181D01*
X149532877Y-73391731D01*
X149595218Y-73241227D01*
X149627000Y-73081452D01*
X149627000Y-72918548D01*
X149973000Y-72918548D01*
X149973000Y-73081452D01*
X150004782Y-73241227D01*
X150067123Y-73391731D01*
X150157628Y-73527181D01*
X150272819Y-73642372D01*
X150408269Y-73732877D01*
X150558773Y-73795218D01*
X150718548Y-73827000D01*
X150881452Y-73827000D01*
X151041227Y-73795218D01*
X151191731Y-73732877D01*
X151327181Y-73642372D01*
X151442372Y-73527181D01*
X151532877Y-73391731D01*
X151595218Y-73241227D01*
X151627000Y-73081452D01*
X151627000Y-72918548D01*
X151973000Y-72918548D01*
X151973000Y-73081452D01*
X152004782Y-73241227D01*
X152067123Y-73391731D01*
X152157628Y-73527181D01*
X152272819Y-73642372D01*
X152408269Y-73732877D01*
X152558773Y-73795218D01*
X152718548Y-73827000D01*
X152881452Y-73827000D01*
X153041227Y-73795218D01*
X153191731Y-73732877D01*
X153327181Y-73642372D01*
X153442372Y-73527181D01*
X153532877Y-73391731D01*
X153595218Y-73241227D01*
X153627000Y-73081452D01*
X153627000Y-72918548D01*
X153595218Y-72758773D01*
X153532877Y-72608269D01*
X153442372Y-72472819D01*
X153327181Y-72357628D01*
X153191731Y-72267123D01*
X153041227Y-72204782D01*
X152881452Y-72173000D01*
X152718548Y-72173000D01*
X152558773Y-72204782D01*
X152408269Y-72267123D01*
X152272819Y-72357628D01*
X152157628Y-72472819D01*
X152067123Y-72608269D01*
X152004782Y-72758773D01*
X151973000Y-72918548D01*
X151627000Y-72918548D01*
X151595218Y-72758773D01*
X151532877Y-72608269D01*
X151442372Y-72472819D01*
X151327181Y-72357628D01*
X151191731Y-72267123D01*
X151041227Y-72204782D01*
X150881452Y-72173000D01*
X150718548Y-72173000D01*
X150558773Y-72204782D01*
X150408269Y-72267123D01*
X150272819Y-72357628D01*
X150157628Y-72472819D01*
X150067123Y-72608269D01*
X150004782Y-72758773D01*
X149973000Y-72918548D01*
X149627000Y-72918548D01*
X149595218Y-72758773D01*
X149532877Y-72608269D01*
X149442372Y-72472819D01*
X149327181Y-72357628D01*
X149191731Y-72267123D01*
X149041227Y-72204782D01*
X148881452Y-72173000D01*
X148718548Y-72173000D01*
X148558773Y-72204782D01*
X148408269Y-72267123D01*
X148272819Y-72357628D01*
X148157628Y-72472819D01*
X148067123Y-72608269D01*
X148004782Y-72758773D01*
X147973000Y-72918548D01*
X147627000Y-72918548D01*
X147595218Y-72758773D01*
X147532877Y-72608269D01*
X147442372Y-72472819D01*
X147327181Y-72357628D01*
X147191731Y-72267123D01*
X147041227Y-72204782D01*
X146881452Y-72173000D01*
X146718548Y-72173000D01*
X146558773Y-72204782D01*
X146408269Y-72267123D01*
X146272819Y-72357628D01*
X146157628Y-72472819D01*
X146067123Y-72608269D01*
X146004782Y-72758773D01*
X145973000Y-72918548D01*
X139552401Y-72918548D01*
X139595377Y-72854231D01*
X139657718Y-72703727D01*
X139689500Y-72543952D01*
X139689500Y-72381048D01*
X139657718Y-72221273D01*
X139595377Y-72070769D01*
X139504872Y-71935319D01*
X139389681Y-71820128D01*
X139254231Y-71729623D01*
X139103727Y-71667282D01*
X138943952Y-71635500D01*
X138781048Y-71635500D01*
X138621273Y-71667282D01*
X138470769Y-71729623D01*
X138335319Y-71820128D01*
X138220128Y-71935319D01*
X138129623Y-72070769D01*
X138067282Y-72221273D01*
X138035500Y-72381048D01*
X104477000Y-72381048D01*
X104477000Y-70918548D01*
X145973000Y-70918548D01*
X145973000Y-71081452D01*
X146004782Y-71241227D01*
X146067123Y-71391731D01*
X146157628Y-71527181D01*
X146272819Y-71642372D01*
X146408269Y-71732877D01*
X146558773Y-71795218D01*
X146718548Y-71827000D01*
X146881452Y-71827000D01*
X147041227Y-71795218D01*
X147191731Y-71732877D01*
X147327181Y-71642372D01*
X147442372Y-71527181D01*
X147532877Y-71391731D01*
X147595218Y-71241227D01*
X147627000Y-71081452D01*
X147627000Y-70918548D01*
X147973000Y-70918548D01*
X147973000Y-71081452D01*
X148004782Y-71241227D01*
X148067123Y-71391731D01*
X148157628Y-71527181D01*
X148272819Y-71642372D01*
X148408269Y-71732877D01*
X148558773Y-71795218D01*
X148718548Y-71827000D01*
X148881452Y-71827000D01*
X149041227Y-71795218D01*
X149191731Y-71732877D01*
X149327181Y-71642372D01*
X149442372Y-71527181D01*
X149532877Y-71391731D01*
X149595218Y-71241227D01*
X149627000Y-71081452D01*
X149627000Y-70918548D01*
X151973000Y-70918548D01*
X151973000Y-71081452D01*
X152004782Y-71241227D01*
X152067123Y-71391731D01*
X152157628Y-71527181D01*
X152272819Y-71642372D01*
X152408269Y-71732877D01*
X152558773Y-71795218D01*
X152718548Y-71827000D01*
X152881452Y-71827000D01*
X153041227Y-71795218D01*
X153191731Y-71732877D01*
X153327181Y-71642372D01*
X153442372Y-71527181D01*
X153448140Y-71518548D01*
X158573000Y-71518548D01*
X158573000Y-71681452D01*
X158604782Y-71841227D01*
X158667123Y-71991731D01*
X158757628Y-72127181D01*
X158872819Y-72242372D01*
X159008269Y-72332877D01*
X159158773Y-72395218D01*
X159318548Y-72427000D01*
X159481452Y-72427000D01*
X159641227Y-72395218D01*
X159791731Y-72332877D01*
X159927181Y-72242372D01*
X160042372Y-72127181D01*
X160132877Y-71991731D01*
X160195218Y-71841227D01*
X160227000Y-71681452D01*
X160227000Y-71518548D01*
X160195218Y-71358773D01*
X160132877Y-71208269D01*
X160042372Y-71072819D01*
X159927181Y-70957628D01*
X159868694Y-70918548D01*
X161973000Y-70918548D01*
X161973000Y-71081452D01*
X162004782Y-71241227D01*
X162067123Y-71391731D01*
X162157628Y-71527181D01*
X162272819Y-71642372D01*
X162408269Y-71732877D01*
X162558773Y-71795218D01*
X162718548Y-71827000D01*
X162881452Y-71827000D01*
X163041227Y-71795218D01*
X163191731Y-71732877D01*
X163300000Y-71660534D01*
X163408269Y-71732877D01*
X163558773Y-71795218D01*
X163718548Y-71827000D01*
X163881452Y-71827000D01*
X164041227Y-71795218D01*
X164191731Y-71732877D01*
X164327181Y-71642372D01*
X164442372Y-71527181D01*
X164532877Y-71391731D01*
X164595218Y-71241227D01*
X164627000Y-71081452D01*
X164627000Y-70918548D01*
X164595218Y-70758773D01*
X164532877Y-70608269D01*
X164442372Y-70472819D01*
X164327181Y-70357628D01*
X164191731Y-70267123D01*
X164041227Y-70204782D01*
X163881452Y-70173000D01*
X163718548Y-70173000D01*
X163558773Y-70204782D01*
X163408269Y-70267123D01*
X163300000Y-70339466D01*
X163191731Y-70267123D01*
X163041227Y-70204782D01*
X162881452Y-70173000D01*
X162718548Y-70173000D01*
X162558773Y-70204782D01*
X162408269Y-70267123D01*
X162272819Y-70357628D01*
X162157628Y-70472819D01*
X162067123Y-70608269D01*
X162004782Y-70758773D01*
X161973000Y-70918548D01*
X159868694Y-70918548D01*
X159791731Y-70867123D01*
X159641227Y-70804782D01*
X159481452Y-70773000D01*
X159318548Y-70773000D01*
X159158773Y-70804782D01*
X159008269Y-70867123D01*
X158872819Y-70957628D01*
X158757628Y-71072819D01*
X158667123Y-71208269D01*
X158604782Y-71358773D01*
X158573000Y-71518548D01*
X153448140Y-71518548D01*
X153532877Y-71391731D01*
X153595218Y-71241227D01*
X153627000Y-71081452D01*
X153627000Y-70918548D01*
X153595218Y-70758773D01*
X153532877Y-70608269D01*
X153442372Y-70472819D01*
X153327181Y-70357628D01*
X153191731Y-70267123D01*
X153041227Y-70204782D01*
X152881452Y-70173000D01*
X152718548Y-70173000D01*
X152558773Y-70204782D01*
X152408269Y-70267123D01*
X152272819Y-70357628D01*
X152157628Y-70472819D01*
X152067123Y-70608269D01*
X152004782Y-70758773D01*
X151973000Y-70918548D01*
X149627000Y-70918548D01*
X149595218Y-70758773D01*
X149532877Y-70608269D01*
X149442372Y-70472819D01*
X149327181Y-70357628D01*
X149191731Y-70267123D01*
X149041227Y-70204782D01*
X148881452Y-70173000D01*
X148718548Y-70173000D01*
X148558773Y-70204782D01*
X148408269Y-70267123D01*
X148272819Y-70357628D01*
X148157628Y-70472819D01*
X148067123Y-70608269D01*
X148004782Y-70758773D01*
X147973000Y-70918548D01*
X147627000Y-70918548D01*
X147595218Y-70758773D01*
X147532877Y-70608269D01*
X147442372Y-70472819D01*
X147327181Y-70357628D01*
X147191731Y-70267123D01*
X147041227Y-70204782D01*
X146881452Y-70173000D01*
X146718548Y-70173000D01*
X146558773Y-70204782D01*
X146408269Y-70267123D01*
X146272819Y-70357628D01*
X146157628Y-70472819D01*
X146067123Y-70608269D01*
X146004782Y-70758773D01*
X145973000Y-70918548D01*
X104477000Y-70918548D01*
X104477000Y-68918548D01*
X145973000Y-68918548D01*
X145973000Y-69081452D01*
X146004782Y-69241227D01*
X146067123Y-69391731D01*
X146157628Y-69527181D01*
X146272819Y-69642372D01*
X146408269Y-69732877D01*
X146558773Y-69795218D01*
X146718548Y-69827000D01*
X146881452Y-69827000D01*
X147041227Y-69795218D01*
X147191731Y-69732877D01*
X147327181Y-69642372D01*
X147442372Y-69527181D01*
X147532877Y-69391731D01*
X147595218Y-69241227D01*
X147627000Y-69081452D01*
X147627000Y-68918548D01*
X147973000Y-68918548D01*
X147973000Y-69081452D01*
X148004782Y-69241227D01*
X148067123Y-69391731D01*
X148157628Y-69527181D01*
X148272819Y-69642372D01*
X148408269Y-69732877D01*
X148558773Y-69795218D01*
X148718548Y-69827000D01*
X148881452Y-69827000D01*
X149041227Y-69795218D01*
X149191731Y-69732877D01*
X149327181Y-69642372D01*
X149442372Y-69527181D01*
X149532877Y-69391731D01*
X149595218Y-69241227D01*
X149627000Y-69081452D01*
X149627000Y-68918548D01*
X151973000Y-68918548D01*
X151973000Y-69081452D01*
X152004782Y-69241227D01*
X152067123Y-69391731D01*
X152157628Y-69527181D01*
X152272819Y-69642372D01*
X152408269Y-69732877D01*
X152558773Y-69795218D01*
X152718548Y-69827000D01*
X152881452Y-69827000D01*
X153041227Y-69795218D01*
X153191731Y-69732877D01*
X153327181Y-69642372D01*
X153442372Y-69527181D01*
X153532877Y-69391731D01*
X153595218Y-69241227D01*
X153627000Y-69081452D01*
X153627000Y-68918548D01*
X153595218Y-68758773D01*
X153532877Y-68608269D01*
X153472928Y-68518548D01*
X159373000Y-68518548D01*
X159373000Y-68681452D01*
X159404782Y-68841227D01*
X159467123Y-68991731D01*
X159557628Y-69127181D01*
X159672819Y-69242372D01*
X159808269Y-69332877D01*
X159958773Y-69395218D01*
X160118548Y-69427000D01*
X160281452Y-69427000D01*
X160441227Y-69395218D01*
X160591731Y-69332877D01*
X160700000Y-69260534D01*
X160808269Y-69332877D01*
X160958773Y-69395218D01*
X161118548Y-69427000D01*
X161281452Y-69427000D01*
X161441227Y-69395218D01*
X161591731Y-69332877D01*
X161727181Y-69242372D01*
X161842372Y-69127181D01*
X161932877Y-68991731D01*
X161995218Y-68841227D01*
X162027000Y-68681452D01*
X162027000Y-68518548D01*
X161995218Y-68358773D01*
X161932877Y-68208269D01*
X161842372Y-68072819D01*
X161727181Y-67957628D01*
X161591731Y-67867123D01*
X161441227Y-67804782D01*
X161281452Y-67773000D01*
X161118548Y-67773000D01*
X160958773Y-67804782D01*
X160808269Y-67867123D01*
X160700000Y-67939466D01*
X160591731Y-67867123D01*
X160441227Y-67804782D01*
X160281452Y-67773000D01*
X160118548Y-67773000D01*
X159958773Y-67804782D01*
X159808269Y-67867123D01*
X159672819Y-67957628D01*
X159557628Y-68072819D01*
X159467123Y-68208269D01*
X159404782Y-68358773D01*
X159373000Y-68518548D01*
X153472928Y-68518548D01*
X153442372Y-68472819D01*
X153327181Y-68357628D01*
X153191731Y-68267123D01*
X153041227Y-68204782D01*
X152881452Y-68173000D01*
X152718548Y-68173000D01*
X152558773Y-68204782D01*
X152408269Y-68267123D01*
X152272819Y-68357628D01*
X152157628Y-68472819D01*
X152067123Y-68608269D01*
X152004782Y-68758773D01*
X151973000Y-68918548D01*
X149627000Y-68918548D01*
X149595218Y-68758773D01*
X149532877Y-68608269D01*
X149442372Y-68472819D01*
X149327181Y-68357628D01*
X149191731Y-68267123D01*
X149041227Y-68204782D01*
X148881452Y-68173000D01*
X148718548Y-68173000D01*
X148558773Y-68204782D01*
X148408269Y-68267123D01*
X148272819Y-68357628D01*
X148157628Y-68472819D01*
X148067123Y-68608269D01*
X148004782Y-68758773D01*
X147973000Y-68918548D01*
X147627000Y-68918548D01*
X147595218Y-68758773D01*
X147532877Y-68608269D01*
X147442372Y-68472819D01*
X147327181Y-68357628D01*
X147191731Y-68267123D01*
X147041227Y-68204782D01*
X146881452Y-68173000D01*
X146718548Y-68173000D01*
X146558773Y-68204782D01*
X146408269Y-68267123D01*
X146272819Y-68357628D01*
X146157628Y-68472819D01*
X146067123Y-68608269D01*
X146004782Y-68758773D01*
X145973000Y-68918548D01*
X104477000Y-68918548D01*
X104477000Y-66918548D01*
X145973000Y-66918548D01*
X145973000Y-67081452D01*
X146004782Y-67241227D01*
X146067123Y-67391731D01*
X146157628Y-67527181D01*
X146272819Y-67642372D01*
X146408269Y-67732877D01*
X146558773Y-67795218D01*
X146718548Y-67827000D01*
X146881452Y-67827000D01*
X147041227Y-67795218D01*
X147191731Y-67732877D01*
X147327181Y-67642372D01*
X147442372Y-67527181D01*
X147532877Y-67391731D01*
X147595218Y-67241227D01*
X147627000Y-67081452D01*
X147627000Y-66918548D01*
X147973000Y-66918548D01*
X147973000Y-67081452D01*
X148004782Y-67241227D01*
X148067123Y-67391731D01*
X148157628Y-67527181D01*
X148272819Y-67642372D01*
X148408269Y-67732877D01*
X148558773Y-67795218D01*
X148718548Y-67827000D01*
X148881452Y-67827000D01*
X149041227Y-67795218D01*
X149191731Y-67732877D01*
X149327181Y-67642372D01*
X149442372Y-67527181D01*
X149532877Y-67391731D01*
X149595218Y-67241227D01*
X149627000Y-67081452D01*
X149627000Y-66918548D01*
X149973000Y-66918548D01*
X149973000Y-67081452D01*
X150004782Y-67241227D01*
X150067123Y-67391731D01*
X150157628Y-67527181D01*
X150272819Y-67642372D01*
X150408269Y-67732877D01*
X150558773Y-67795218D01*
X150718548Y-67827000D01*
X150881452Y-67827000D01*
X151041227Y-67795218D01*
X151191731Y-67732877D01*
X151327181Y-67642372D01*
X151442372Y-67527181D01*
X151532877Y-67391731D01*
X151595218Y-67241227D01*
X151627000Y-67081452D01*
X151627000Y-66918548D01*
X151973000Y-66918548D01*
X151973000Y-67081452D01*
X152004782Y-67241227D01*
X152067123Y-67391731D01*
X152157628Y-67527181D01*
X152272819Y-67642372D01*
X152408269Y-67732877D01*
X152558773Y-67795218D01*
X152718548Y-67827000D01*
X152881452Y-67827000D01*
X153041227Y-67795218D01*
X153191731Y-67732877D01*
X153327181Y-67642372D01*
X153442372Y-67527181D01*
X153532877Y-67391731D01*
X153595218Y-67241227D01*
X153627000Y-67081452D01*
X153627000Y-66918548D01*
X153595218Y-66758773D01*
X153532877Y-66608269D01*
X153442372Y-66472819D01*
X153327181Y-66357628D01*
X153191731Y-66267123D01*
X153041227Y-66204782D01*
X152881452Y-66173000D01*
X152718548Y-66173000D01*
X152558773Y-66204782D01*
X152408269Y-66267123D01*
X152272819Y-66357628D01*
X152157628Y-66472819D01*
X152067123Y-66608269D01*
X152004782Y-66758773D01*
X151973000Y-66918548D01*
X151627000Y-66918548D01*
X151595218Y-66758773D01*
X151532877Y-66608269D01*
X151442372Y-66472819D01*
X151327181Y-66357628D01*
X151191731Y-66267123D01*
X151041227Y-66204782D01*
X150881452Y-66173000D01*
X150718548Y-66173000D01*
X150558773Y-66204782D01*
X150408269Y-66267123D01*
X150272819Y-66357628D01*
X150157628Y-66472819D01*
X150067123Y-66608269D01*
X150004782Y-66758773D01*
X149973000Y-66918548D01*
X149627000Y-66918548D01*
X149595218Y-66758773D01*
X149532877Y-66608269D01*
X149442372Y-66472819D01*
X149327181Y-66357628D01*
X149191731Y-66267123D01*
X149041227Y-66204782D01*
X148881452Y-66173000D01*
X148718548Y-66173000D01*
X148558773Y-66204782D01*
X148408269Y-66267123D01*
X148272819Y-66357628D01*
X148157628Y-66472819D01*
X148067123Y-66608269D01*
X148004782Y-66758773D01*
X147973000Y-66918548D01*
X147627000Y-66918548D01*
X147595218Y-66758773D01*
X147532877Y-66608269D01*
X147442372Y-66472819D01*
X147327181Y-66357628D01*
X147191731Y-66267123D01*
X147041227Y-66204782D01*
X146881452Y-66173000D01*
X146718548Y-66173000D01*
X146558773Y-66204782D01*
X146408269Y-66267123D01*
X146272819Y-66357628D01*
X146157628Y-66472819D01*
X146067123Y-66608269D01*
X146004782Y-66758773D01*
X145973000Y-66918548D01*
X104477000Y-66918548D01*
X104477000Y-63718548D01*
X170973000Y-63718548D01*
X170973000Y-63881452D01*
X171004782Y-64041227D01*
X171067123Y-64191731D01*
X171157628Y-64327181D01*
X171272819Y-64442372D01*
X171408269Y-64532877D01*
X171558773Y-64595218D01*
X171718548Y-64627000D01*
X171881452Y-64627000D01*
X172041227Y-64595218D01*
X172191731Y-64532877D01*
X172327181Y-64442372D01*
X172442372Y-64327181D01*
X172532877Y-64191731D01*
X172595218Y-64041227D01*
X172627000Y-63881452D01*
X172627000Y-63718548D01*
X172595218Y-63558773D01*
X172532877Y-63408269D01*
X172442372Y-63272819D01*
X172327181Y-63157628D01*
X172191731Y-63067123D01*
X172041227Y-63004782D01*
X171881452Y-62973000D01*
X171718548Y-62973000D01*
X171558773Y-63004782D01*
X171408269Y-63067123D01*
X171272819Y-63157628D01*
X171157628Y-63272819D01*
X171067123Y-63408269D01*
X171004782Y-63558773D01*
X170973000Y-63718548D01*
X104477000Y-63718548D01*
X104477000Y-62318548D01*
X119373000Y-62318548D01*
X119373000Y-62481452D01*
X119404782Y-62641227D01*
X119467123Y-62791731D01*
X119557628Y-62927181D01*
X119672819Y-63042372D01*
X119808269Y-63132877D01*
X119958773Y-63195218D01*
X120118548Y-63227000D01*
X120281452Y-63227000D01*
X120441227Y-63195218D01*
X120591731Y-63132877D01*
X120727181Y-63042372D01*
X120842372Y-62927181D01*
X120932877Y-62791731D01*
X120995218Y-62641227D01*
X121027000Y-62481452D01*
X121027000Y-62318548D01*
X120995218Y-62158773D01*
X120932877Y-62008269D01*
X120842372Y-61872819D01*
X120727181Y-61757628D01*
X120591731Y-61667123D01*
X120441227Y-61604782D01*
X120281452Y-61573000D01*
X120118548Y-61573000D01*
X119958773Y-61604782D01*
X119808269Y-61667123D01*
X119672819Y-61757628D01*
X119557628Y-61872819D01*
X119467123Y-62008269D01*
X119404782Y-62158773D01*
X119373000Y-62318548D01*
X104477000Y-62318548D01*
X104477000Y-60318548D01*
X128973000Y-60318548D01*
X128973000Y-60481452D01*
X129004782Y-60641227D01*
X129067123Y-60791731D01*
X129157628Y-60927181D01*
X129272819Y-61042372D01*
X129408269Y-61132877D01*
X129558773Y-61195218D01*
X129718548Y-61227000D01*
X129881452Y-61227000D01*
X130041227Y-61195218D01*
X130191731Y-61132877D01*
X130327181Y-61042372D01*
X130442372Y-60927181D01*
X130532877Y-60791731D01*
X130563190Y-60718548D01*
X132173000Y-60718548D01*
X132173000Y-60881452D01*
X132204782Y-61041227D01*
X132267123Y-61191731D01*
X132357628Y-61327181D01*
X132472819Y-61442372D01*
X132608269Y-61532877D01*
X132758773Y-61595218D01*
X132918548Y-61627000D01*
X133081452Y-61627000D01*
X133241227Y-61595218D01*
X133391731Y-61532877D01*
X133527181Y-61442372D01*
X133642372Y-61327181D01*
X133732877Y-61191731D01*
X133795218Y-61041227D01*
X133827000Y-60881452D01*
X133827000Y-60818548D01*
X148773000Y-60818548D01*
X148773000Y-60981452D01*
X148804782Y-61141227D01*
X148867123Y-61291731D01*
X148957628Y-61427181D01*
X149072819Y-61542372D01*
X149208269Y-61632877D01*
X149358773Y-61695218D01*
X149518548Y-61727000D01*
X149681452Y-61727000D01*
X149841227Y-61695218D01*
X149991731Y-61632877D01*
X150127181Y-61542372D01*
X150242372Y-61427181D01*
X150332877Y-61291731D01*
X150395218Y-61141227D01*
X150427000Y-60981452D01*
X150427000Y-60818548D01*
X150573000Y-60818548D01*
X150573000Y-60981452D01*
X150604782Y-61141227D01*
X150667123Y-61291731D01*
X150757628Y-61427181D01*
X150872819Y-61542372D01*
X151008269Y-61632877D01*
X151158773Y-61695218D01*
X151318548Y-61727000D01*
X151481452Y-61727000D01*
X151641227Y-61695218D01*
X151791731Y-61632877D01*
X151927181Y-61542372D01*
X152042372Y-61427181D01*
X152132877Y-61291731D01*
X152195218Y-61141227D01*
X152227000Y-60981452D01*
X152227000Y-60818548D01*
X152195218Y-60658773D01*
X152132877Y-60508269D01*
X152042372Y-60372819D01*
X151927181Y-60257628D01*
X151791731Y-60167123D01*
X151641227Y-60104782D01*
X151481452Y-60073000D01*
X151318548Y-60073000D01*
X151158773Y-60104782D01*
X151008269Y-60167123D01*
X150872819Y-60257628D01*
X150757628Y-60372819D01*
X150667123Y-60508269D01*
X150604782Y-60658773D01*
X150573000Y-60818548D01*
X150427000Y-60818548D01*
X150395218Y-60658773D01*
X150332877Y-60508269D01*
X150242372Y-60372819D01*
X150127181Y-60257628D01*
X149991731Y-60167123D01*
X149841227Y-60104782D01*
X149681452Y-60073000D01*
X149518548Y-60073000D01*
X149358773Y-60104782D01*
X149208269Y-60167123D01*
X149072819Y-60257628D01*
X148957628Y-60372819D01*
X148867123Y-60508269D01*
X148804782Y-60658773D01*
X148773000Y-60818548D01*
X133827000Y-60818548D01*
X133827000Y-60718548D01*
X133795218Y-60558773D01*
X133732877Y-60408269D01*
X133642372Y-60272819D01*
X133527181Y-60157628D01*
X133391731Y-60067123D01*
X133241227Y-60004782D01*
X133081452Y-59973000D01*
X132918548Y-59973000D01*
X132758773Y-60004782D01*
X132608269Y-60067123D01*
X132472819Y-60157628D01*
X132357628Y-60272819D01*
X132267123Y-60408269D01*
X132204782Y-60558773D01*
X132173000Y-60718548D01*
X130563190Y-60718548D01*
X130595218Y-60641227D01*
X130627000Y-60481452D01*
X130627000Y-60318548D01*
X130595218Y-60158773D01*
X130532877Y-60008269D01*
X130442372Y-59872819D01*
X130327181Y-59757628D01*
X130191731Y-59667123D01*
X130041227Y-59604782D01*
X129881452Y-59573000D01*
X129718548Y-59573000D01*
X129558773Y-59604782D01*
X129408269Y-59667123D01*
X129272819Y-59757628D01*
X129157628Y-59872819D01*
X129067123Y-60008269D01*
X129004782Y-60158773D01*
X128973000Y-60318548D01*
X104477000Y-60318548D01*
X104477000Y-58318548D01*
X116973000Y-58318548D01*
X116973000Y-58481452D01*
X117004782Y-58641227D01*
X117067123Y-58791731D01*
X117157628Y-58927181D01*
X117272819Y-59042372D01*
X117408269Y-59132877D01*
X117558773Y-59195218D01*
X117718548Y-59227000D01*
X117881452Y-59227000D01*
X118041227Y-59195218D01*
X118191731Y-59132877D01*
X118327181Y-59042372D01*
X118442372Y-58927181D01*
X118532877Y-58791731D01*
X118595218Y-58641227D01*
X118627000Y-58481452D01*
X118627000Y-58318548D01*
X118595218Y-58158773D01*
X118532877Y-58008269D01*
X118472928Y-57918548D01*
X147423000Y-57918548D01*
X147423000Y-58081452D01*
X147454782Y-58241227D01*
X147517123Y-58391731D01*
X147607628Y-58527181D01*
X147722819Y-58642372D01*
X147858269Y-58732877D01*
X148008773Y-58795218D01*
X148168548Y-58827000D01*
X148331452Y-58827000D01*
X148491227Y-58795218D01*
X148641731Y-58732877D01*
X148750000Y-58660534D01*
X148858269Y-58732877D01*
X149008773Y-58795218D01*
X149168548Y-58827000D01*
X149331452Y-58827000D01*
X149491227Y-58795218D01*
X149641731Y-58732877D01*
X149777181Y-58642372D01*
X149855022Y-58564531D01*
X167215074Y-58564531D01*
X167325921Y-58841714D01*
X167636840Y-58995089D01*
X167971705Y-59084860D01*
X168317650Y-59107576D01*
X168661380Y-59062366D01*
X168989685Y-58950966D01*
X169194079Y-58841714D01*
X169304926Y-58564531D01*
X172295074Y-58564531D01*
X172405921Y-58841714D01*
X172716840Y-58995089D01*
X173051705Y-59084860D01*
X173397650Y-59107576D01*
X173741380Y-59062366D01*
X174069685Y-58950966D01*
X174274079Y-58841714D01*
X174384926Y-58564531D01*
X173340000Y-57519605D01*
X172295074Y-58564531D01*
X169304926Y-58564531D01*
X168260000Y-57519605D01*
X167215074Y-58564531D01*
X149855022Y-58564531D01*
X149892372Y-58527181D01*
X149982877Y-58391731D01*
X150045218Y-58241227D01*
X150077000Y-58081452D01*
X150077000Y-57918548D01*
X150045218Y-57758773D01*
X149982877Y-57608269D01*
X149892372Y-57472819D01*
X149817203Y-57397650D01*
X166492424Y-57397650D01*
X166537634Y-57741380D01*
X166649034Y-58069685D01*
X166758286Y-58274079D01*
X167035469Y-58384926D01*
X168080395Y-57340000D01*
X168439605Y-57340000D01*
X169484531Y-58384926D01*
X169761714Y-58274079D01*
X169915089Y-57963160D01*
X170004860Y-57628295D01*
X170020004Y-57397650D01*
X171572424Y-57397650D01*
X171617634Y-57741380D01*
X171729034Y-58069685D01*
X171838286Y-58274079D01*
X172115469Y-58384926D01*
X173160395Y-57340000D01*
X173519605Y-57340000D01*
X174564531Y-58384926D01*
X174841714Y-58274079D01*
X174995089Y-57963160D01*
X175084860Y-57628295D01*
X175107576Y-57282350D01*
X175062366Y-56938620D01*
X174950966Y-56610315D01*
X174841714Y-56405921D01*
X174564531Y-56295074D01*
X173519605Y-57340000D01*
X173160395Y-57340000D01*
X172115469Y-56295074D01*
X171838286Y-56405921D01*
X171684911Y-56716840D01*
X171595140Y-57051705D01*
X171572424Y-57397650D01*
X170020004Y-57397650D01*
X170027576Y-57282350D01*
X169982366Y-56938620D01*
X169870966Y-56610315D01*
X169761714Y-56405921D01*
X169484531Y-56295074D01*
X168439605Y-57340000D01*
X168080395Y-57340000D01*
X167035469Y-56295074D01*
X166758286Y-56405921D01*
X166604911Y-56716840D01*
X166515140Y-57051705D01*
X166492424Y-57397650D01*
X149817203Y-57397650D01*
X149777181Y-57357628D01*
X149641731Y-57267123D01*
X149491227Y-57204782D01*
X149331452Y-57173000D01*
X149168548Y-57173000D01*
X149008773Y-57204782D01*
X148858269Y-57267123D01*
X148750000Y-57339466D01*
X148641731Y-57267123D01*
X148491227Y-57204782D01*
X148331452Y-57173000D01*
X148168548Y-57173000D01*
X148008773Y-57204782D01*
X147858269Y-57267123D01*
X147722819Y-57357628D01*
X147607628Y-57472819D01*
X147517123Y-57608269D01*
X147454782Y-57758773D01*
X147423000Y-57918548D01*
X118472928Y-57918548D01*
X118442372Y-57872819D01*
X118327181Y-57757628D01*
X118191731Y-57667123D01*
X118041227Y-57604782D01*
X117881452Y-57573000D01*
X117718548Y-57573000D01*
X117558773Y-57604782D01*
X117408269Y-57667123D01*
X117272819Y-57757628D01*
X117157628Y-57872819D01*
X117067123Y-58008269D01*
X117004782Y-58158773D01*
X116973000Y-58318548D01*
X104477000Y-58318548D01*
X104477000Y-56918548D01*
X115373000Y-56918548D01*
X115373000Y-57081452D01*
X115404782Y-57241227D01*
X115467123Y-57391731D01*
X115557628Y-57527181D01*
X115672819Y-57642372D01*
X115808269Y-57732877D01*
X115958773Y-57795218D01*
X116118548Y-57827000D01*
X116281452Y-57827000D01*
X116441227Y-57795218D01*
X116591731Y-57732877D01*
X116727181Y-57642372D01*
X116842372Y-57527181D01*
X116932877Y-57391731D01*
X116995218Y-57241227D01*
X117027000Y-57081452D01*
X117027000Y-56918548D01*
X116995218Y-56758773D01*
X116932877Y-56608269D01*
X116842372Y-56472819D01*
X116727181Y-56357628D01*
X116591731Y-56267123D01*
X116441227Y-56204782D01*
X116281452Y-56173000D01*
X116118548Y-56173000D01*
X115958773Y-56204782D01*
X115808269Y-56267123D01*
X115672819Y-56357628D01*
X115557628Y-56472819D01*
X115467123Y-56608269D01*
X115404782Y-56758773D01*
X115373000Y-56918548D01*
X104477000Y-56918548D01*
X104477000Y-56118548D01*
X120773000Y-56118548D01*
X120773000Y-56281452D01*
X120804782Y-56441227D01*
X120867123Y-56591731D01*
X120957628Y-56727181D01*
X121072819Y-56842372D01*
X121208269Y-56932877D01*
X121358773Y-56995218D01*
X121518548Y-57027000D01*
X121681452Y-57027000D01*
X121841227Y-56995218D01*
X121991731Y-56932877D01*
X122127181Y-56842372D01*
X122242372Y-56727181D01*
X122332877Y-56591731D01*
X122395218Y-56441227D01*
X122427000Y-56281452D01*
X122427000Y-56174531D01*
X140015074Y-56174531D01*
X140125921Y-56451714D01*
X140436840Y-56605089D01*
X140771705Y-56694860D01*
X141117650Y-56717576D01*
X141461380Y-56672366D01*
X141789685Y-56560966D01*
X141994079Y-56451714D01*
X142104926Y-56174531D01*
X145095074Y-56174531D01*
X145205921Y-56451714D01*
X145516840Y-56605089D01*
X145851705Y-56694860D01*
X146197650Y-56717576D01*
X146541380Y-56672366D01*
X146869685Y-56560966D01*
X147074079Y-56451714D01*
X147168929Y-56214531D01*
X150415074Y-56214531D01*
X150525921Y-56491714D01*
X150836840Y-56645089D01*
X151171705Y-56734860D01*
X151517650Y-56757576D01*
X151861380Y-56712366D01*
X152189685Y-56600966D01*
X152394079Y-56491714D01*
X152504926Y-56214531D01*
X155495074Y-56214531D01*
X155605921Y-56491714D01*
X155916840Y-56645089D01*
X156251705Y-56734860D01*
X156597650Y-56757576D01*
X156941380Y-56712366D01*
X157269685Y-56600966D01*
X157474079Y-56491714D01*
X157584926Y-56214531D01*
X157485864Y-56115469D01*
X167215074Y-56115469D01*
X168260000Y-57160395D01*
X169304926Y-56115469D01*
X169194079Y-55838286D01*
X168883160Y-55684911D01*
X168548295Y-55595140D01*
X168202350Y-55572424D01*
X167858620Y-55617634D01*
X167530315Y-55729034D01*
X167325921Y-55838286D01*
X167215074Y-56115469D01*
X157485864Y-56115469D01*
X156540000Y-55169605D01*
X155495074Y-56214531D01*
X152504926Y-56214531D01*
X151460000Y-55169605D01*
X150415074Y-56214531D01*
X147168929Y-56214531D01*
X147184926Y-56174531D01*
X146140000Y-55129605D01*
X145095074Y-56174531D01*
X142104926Y-56174531D01*
X141060000Y-55129605D01*
X140015074Y-56174531D01*
X122427000Y-56174531D01*
X122427000Y-56118548D01*
X122395218Y-55958773D01*
X122332877Y-55808269D01*
X122242372Y-55672819D01*
X122127181Y-55557628D01*
X121991731Y-55467123D01*
X121841227Y-55404782D01*
X121681452Y-55373000D01*
X121518548Y-55373000D01*
X121358773Y-55404782D01*
X121208269Y-55467123D01*
X121072819Y-55557628D01*
X120957628Y-55672819D01*
X120867123Y-55808269D01*
X120804782Y-55958773D01*
X120773000Y-56118548D01*
X104477000Y-56118548D01*
X104477000Y-55007650D01*
X139292424Y-55007650D01*
X139337634Y-55351380D01*
X139449034Y-55679685D01*
X139558286Y-55884079D01*
X139835469Y-55994926D01*
X140880395Y-54950000D01*
X141239605Y-54950000D01*
X142284531Y-55994926D01*
X142561714Y-55884079D01*
X142715089Y-55573160D01*
X142804860Y-55238295D01*
X142820004Y-55007650D01*
X144372424Y-55007650D01*
X144417634Y-55351380D01*
X144529034Y-55679685D01*
X144638286Y-55884079D01*
X144915469Y-55994926D01*
X145960395Y-54950000D01*
X146319605Y-54950000D01*
X147364531Y-55994926D01*
X147641714Y-55884079D01*
X147795089Y-55573160D01*
X147884860Y-55238295D01*
X147897378Y-55047650D01*
X149692424Y-55047650D01*
X149737634Y-55391380D01*
X149849034Y-55719685D01*
X149958286Y-55924079D01*
X150235469Y-56034926D01*
X151280395Y-54990000D01*
X151639605Y-54990000D01*
X152684531Y-56034926D01*
X152961714Y-55924079D01*
X153115089Y-55613160D01*
X153204860Y-55278295D01*
X153220004Y-55047650D01*
X154772424Y-55047650D01*
X154817634Y-55391380D01*
X154929034Y-55719685D01*
X155038286Y-55924079D01*
X155315469Y-56034926D01*
X156360395Y-54990000D01*
X156719605Y-54990000D01*
X157764531Y-56034926D01*
X158041714Y-55924079D01*
X158195089Y-55613160D01*
X158284860Y-55278295D01*
X158307576Y-54932350D01*
X158271359Y-54656990D01*
X169348000Y-54656990D01*
X169348000Y-54943010D01*
X169403799Y-55223533D01*
X169513254Y-55487780D01*
X169672158Y-55725596D01*
X169874404Y-55927842D01*
X170112220Y-56086746D01*
X170376467Y-56196201D01*
X170656990Y-56252000D01*
X170943010Y-56252000D01*
X171223533Y-56196201D01*
X171418436Y-56115469D01*
X172295074Y-56115469D01*
X173340000Y-57160395D01*
X174384926Y-56115469D01*
X174274079Y-55838286D01*
X173963160Y-55684911D01*
X173628295Y-55595140D01*
X173282350Y-55572424D01*
X172938620Y-55617634D01*
X172610315Y-55729034D01*
X172405921Y-55838286D01*
X172295074Y-56115469D01*
X171418436Y-56115469D01*
X171487780Y-56086746D01*
X171725596Y-55927842D01*
X171927842Y-55725596D01*
X172086746Y-55487780D01*
X172196201Y-55223533D01*
X172252000Y-54943010D01*
X172252000Y-54656990D01*
X172196201Y-54376467D01*
X172086746Y-54112220D01*
X171927842Y-53874404D01*
X171725596Y-53672158D01*
X171487780Y-53513254D01*
X171418437Y-53484531D01*
X172295074Y-53484531D01*
X172405921Y-53761714D01*
X172716840Y-53915089D01*
X173051705Y-54004860D01*
X173397650Y-54027576D01*
X173741380Y-53982366D01*
X174069685Y-53870966D01*
X174274079Y-53761714D01*
X174384926Y-53484531D01*
X173340000Y-52439605D01*
X172295074Y-53484531D01*
X171418437Y-53484531D01*
X171223533Y-53403799D01*
X170943010Y-53348000D01*
X170656990Y-53348000D01*
X170376467Y-53403799D01*
X170112220Y-53513254D01*
X169874404Y-53672158D01*
X169672158Y-53874404D01*
X169513254Y-54112220D01*
X169403799Y-54376467D01*
X169348000Y-54656990D01*
X158271359Y-54656990D01*
X158262366Y-54588620D01*
X158150966Y-54260315D01*
X158041714Y-54055921D01*
X157764531Y-53945074D01*
X156719605Y-54990000D01*
X156360395Y-54990000D01*
X155315469Y-53945074D01*
X155038286Y-54055921D01*
X154884911Y-54366840D01*
X154795140Y-54701705D01*
X154772424Y-55047650D01*
X153220004Y-55047650D01*
X153227576Y-54932350D01*
X153182366Y-54588620D01*
X153070966Y-54260315D01*
X152961714Y-54055921D01*
X152684531Y-53945074D01*
X151639605Y-54990000D01*
X151280395Y-54990000D01*
X150235469Y-53945074D01*
X149958286Y-54055921D01*
X149804911Y-54366840D01*
X149715140Y-54701705D01*
X149692424Y-55047650D01*
X147897378Y-55047650D01*
X147907576Y-54892350D01*
X147862366Y-54548620D01*
X147750966Y-54220315D01*
X147641714Y-54015921D01*
X147364531Y-53905074D01*
X146319605Y-54950000D01*
X145960395Y-54950000D01*
X144915469Y-53905074D01*
X144638286Y-54015921D01*
X144484911Y-54326840D01*
X144395140Y-54661705D01*
X144372424Y-55007650D01*
X142820004Y-55007650D01*
X142827576Y-54892350D01*
X142782366Y-54548620D01*
X142670966Y-54220315D01*
X142561714Y-54015921D01*
X142284531Y-53905074D01*
X141239605Y-54950000D01*
X140880395Y-54950000D01*
X139835469Y-53905074D01*
X139558286Y-54015921D01*
X139404911Y-54326840D01*
X139315140Y-54661705D01*
X139292424Y-55007650D01*
X104477000Y-55007650D01*
X104477000Y-53725469D01*
X140015074Y-53725469D01*
X141060000Y-54770395D01*
X142104926Y-53725469D01*
X141994079Y-53448286D01*
X141683160Y-53294911D01*
X141348295Y-53205140D01*
X141002350Y-53182424D01*
X140658620Y-53227634D01*
X140330315Y-53339034D01*
X140125921Y-53448286D01*
X140015074Y-53725469D01*
X104477000Y-53725469D01*
X104477000Y-52266990D01*
X142148000Y-52266990D01*
X142148000Y-52553010D01*
X142203799Y-52833533D01*
X142313254Y-53097780D01*
X142472158Y-53335596D01*
X142674404Y-53537842D01*
X142912220Y-53696746D01*
X143176467Y-53806201D01*
X143456990Y-53862000D01*
X143743010Y-53862000D01*
X144023533Y-53806201D01*
X144218436Y-53725469D01*
X145095074Y-53725469D01*
X146140000Y-54770395D01*
X147144926Y-53765469D01*
X150415074Y-53765469D01*
X151460000Y-54810395D01*
X152504926Y-53765469D01*
X152394079Y-53488286D01*
X152083160Y-53334911D01*
X151748295Y-53245140D01*
X151402350Y-53222424D01*
X151058620Y-53267634D01*
X150730315Y-53379034D01*
X150525921Y-53488286D01*
X150415074Y-53765469D01*
X147144926Y-53765469D01*
X147184926Y-53725469D01*
X147074079Y-53448286D01*
X146763160Y-53294911D01*
X146428295Y-53205140D01*
X146082350Y-53182424D01*
X145738620Y-53227634D01*
X145410315Y-53339034D01*
X145205921Y-53448286D01*
X145095074Y-53725469D01*
X144218436Y-53725469D01*
X144287780Y-53696746D01*
X144525596Y-53537842D01*
X144727842Y-53335596D01*
X144886746Y-53097780D01*
X144996201Y-52833533D01*
X145052000Y-52553010D01*
X145052000Y-52306990D01*
X152548000Y-52306990D01*
X152548000Y-52593010D01*
X152603799Y-52873533D01*
X152713254Y-53137780D01*
X152872158Y-53375596D01*
X153074404Y-53577842D01*
X153312220Y-53736746D01*
X153576467Y-53846201D01*
X153856990Y-53902000D01*
X154143010Y-53902000D01*
X154423533Y-53846201D01*
X154618436Y-53765469D01*
X155495074Y-53765469D01*
X156540000Y-54810395D01*
X157584926Y-53765469D01*
X157474079Y-53488286D01*
X157466467Y-53484531D01*
X167215074Y-53484531D01*
X167325921Y-53761714D01*
X167636840Y-53915089D01*
X167971705Y-54004860D01*
X168317650Y-54027576D01*
X168661380Y-53982366D01*
X168989685Y-53870966D01*
X169194079Y-53761714D01*
X169304926Y-53484531D01*
X168260000Y-52439605D01*
X167215074Y-53484531D01*
X157466467Y-53484531D01*
X157163160Y-53334911D01*
X156828295Y-53245140D01*
X156482350Y-53222424D01*
X156138620Y-53267634D01*
X155810315Y-53379034D01*
X155605921Y-53488286D01*
X155495074Y-53765469D01*
X154618436Y-53765469D01*
X154687780Y-53736746D01*
X154925596Y-53577842D01*
X155127842Y-53375596D01*
X155286746Y-53137780D01*
X155396201Y-52873533D01*
X155452000Y-52593010D01*
X155452000Y-52317650D01*
X166492424Y-52317650D01*
X166537634Y-52661380D01*
X166649034Y-52989685D01*
X166758286Y-53194079D01*
X167035469Y-53304926D01*
X168080395Y-52260000D01*
X168439605Y-52260000D01*
X169484531Y-53304926D01*
X169761714Y-53194079D01*
X169915089Y-52883160D01*
X170004860Y-52548295D01*
X170020004Y-52317650D01*
X171572424Y-52317650D01*
X171617634Y-52661380D01*
X171729034Y-52989685D01*
X171838286Y-53194079D01*
X172115469Y-53304926D01*
X173160395Y-52260000D01*
X173519605Y-52260000D01*
X174564531Y-53304926D01*
X174841714Y-53194079D01*
X174995089Y-52883160D01*
X175084860Y-52548295D01*
X175107576Y-52202350D01*
X175062366Y-51858620D01*
X174950966Y-51530315D01*
X174841714Y-51325921D01*
X174564531Y-51215074D01*
X173519605Y-52260000D01*
X173160395Y-52260000D01*
X172115469Y-51215074D01*
X171838286Y-51325921D01*
X171684911Y-51636840D01*
X171595140Y-51971705D01*
X171572424Y-52317650D01*
X170020004Y-52317650D01*
X170027576Y-52202350D01*
X169982366Y-51858620D01*
X169870966Y-51530315D01*
X169761714Y-51325921D01*
X169484531Y-51215074D01*
X168439605Y-52260000D01*
X168080395Y-52260000D01*
X167035469Y-51215074D01*
X166758286Y-51325921D01*
X166604911Y-51636840D01*
X166515140Y-51971705D01*
X166492424Y-52317650D01*
X155452000Y-52317650D01*
X155452000Y-52306990D01*
X155396201Y-52026467D01*
X155286746Y-51762220D01*
X155127842Y-51524404D01*
X154925596Y-51322158D01*
X154687780Y-51163254D01*
X154618437Y-51134531D01*
X155495074Y-51134531D01*
X155605921Y-51411714D01*
X155916840Y-51565089D01*
X156251705Y-51654860D01*
X156597650Y-51677576D01*
X156941380Y-51632366D01*
X157269685Y-51520966D01*
X157474079Y-51411714D01*
X157584926Y-51134531D01*
X157485864Y-51035469D01*
X167215074Y-51035469D01*
X168260000Y-52080395D01*
X169304926Y-51035469D01*
X172295074Y-51035469D01*
X173340000Y-52080395D01*
X174384926Y-51035469D01*
X174274079Y-50758286D01*
X173963160Y-50604911D01*
X173628295Y-50515140D01*
X173282350Y-50492424D01*
X172938620Y-50537634D01*
X172610315Y-50649034D01*
X172405921Y-50758286D01*
X172295074Y-51035469D01*
X169304926Y-51035469D01*
X169194079Y-50758286D01*
X168883160Y-50604911D01*
X168548295Y-50515140D01*
X168202350Y-50492424D01*
X167858620Y-50537634D01*
X167530315Y-50649034D01*
X167325921Y-50758286D01*
X167215074Y-51035469D01*
X157485864Y-51035469D01*
X156540000Y-50089605D01*
X155495074Y-51134531D01*
X154618437Y-51134531D01*
X154423533Y-51053799D01*
X154143010Y-50998000D01*
X153856990Y-50998000D01*
X153576467Y-51053799D01*
X153312220Y-51163254D01*
X153074404Y-51322158D01*
X152872158Y-51524404D01*
X152713254Y-51762220D01*
X152603799Y-52026467D01*
X152548000Y-52306990D01*
X145052000Y-52306990D01*
X145052000Y-52266990D01*
X144996201Y-51986467D01*
X144886746Y-51722220D01*
X144727842Y-51484404D01*
X144525596Y-51282158D01*
X144287780Y-51123254D01*
X144218437Y-51094531D01*
X145095074Y-51094531D01*
X145205921Y-51371714D01*
X145516840Y-51525089D01*
X145851705Y-51614860D01*
X146197650Y-51637576D01*
X146541380Y-51592366D01*
X146869685Y-51480966D01*
X147074079Y-51371714D01*
X147168929Y-51134531D01*
X150415074Y-51134531D01*
X150525921Y-51411714D01*
X150836840Y-51565089D01*
X151171705Y-51654860D01*
X151517650Y-51677576D01*
X151861380Y-51632366D01*
X152189685Y-51520966D01*
X152394079Y-51411714D01*
X152504926Y-51134531D01*
X151460000Y-50089605D01*
X150415074Y-51134531D01*
X147168929Y-51134531D01*
X147184926Y-51094531D01*
X146140000Y-50049605D01*
X145095074Y-51094531D01*
X144218437Y-51094531D01*
X144023533Y-51013799D01*
X143743010Y-50958000D01*
X143456990Y-50958000D01*
X143176467Y-51013799D01*
X142912220Y-51123254D01*
X142674404Y-51282158D01*
X142472158Y-51484404D01*
X142313254Y-51722220D01*
X142203799Y-51986467D01*
X142148000Y-52266990D01*
X104477000Y-52266990D01*
X104477000Y-51094531D01*
X140015074Y-51094531D01*
X140125921Y-51371714D01*
X140436840Y-51525089D01*
X140771705Y-51614860D01*
X141117650Y-51637576D01*
X141461380Y-51592366D01*
X141789685Y-51480966D01*
X141994079Y-51371714D01*
X142104926Y-51094531D01*
X141060000Y-50049605D01*
X140015074Y-51094531D01*
X104477000Y-51094531D01*
X104477000Y-49927650D01*
X139292424Y-49927650D01*
X139337634Y-50271380D01*
X139449034Y-50599685D01*
X139558286Y-50804079D01*
X139835469Y-50914926D01*
X140880395Y-49870000D01*
X141239605Y-49870000D01*
X142284531Y-50914926D01*
X142561714Y-50804079D01*
X142715089Y-50493160D01*
X142804860Y-50158295D01*
X142820004Y-49927650D01*
X144372424Y-49927650D01*
X144417634Y-50271380D01*
X144529034Y-50599685D01*
X144638286Y-50804079D01*
X144915469Y-50914926D01*
X145960395Y-49870000D01*
X146319605Y-49870000D01*
X147364531Y-50914926D01*
X147641714Y-50804079D01*
X147795089Y-50493160D01*
X147884860Y-50158295D01*
X147897378Y-49967650D01*
X149692424Y-49967650D01*
X149737634Y-50311380D01*
X149849034Y-50639685D01*
X149958286Y-50844079D01*
X150235469Y-50954926D01*
X151280395Y-49910000D01*
X151639605Y-49910000D01*
X152684531Y-50954926D01*
X152961714Y-50844079D01*
X153115089Y-50533160D01*
X153204860Y-50198295D01*
X153220004Y-49967650D01*
X154772424Y-49967650D01*
X154817634Y-50311380D01*
X154929034Y-50639685D01*
X155038286Y-50844079D01*
X155315469Y-50954926D01*
X156360395Y-49910000D01*
X156719605Y-49910000D01*
X157764531Y-50954926D01*
X158041714Y-50844079D01*
X158195089Y-50533160D01*
X158284860Y-50198295D01*
X158307576Y-49852350D01*
X158262366Y-49508620D01*
X158150966Y-49180315D01*
X158041714Y-48975921D01*
X157764531Y-48865074D01*
X156719605Y-49910000D01*
X156360395Y-49910000D01*
X155315469Y-48865074D01*
X155038286Y-48975921D01*
X154884911Y-49286840D01*
X154795140Y-49621705D01*
X154772424Y-49967650D01*
X153220004Y-49967650D01*
X153227576Y-49852350D01*
X153182366Y-49508620D01*
X153070966Y-49180315D01*
X152961714Y-48975921D01*
X152684531Y-48865074D01*
X151639605Y-49910000D01*
X151280395Y-49910000D01*
X150235469Y-48865074D01*
X149958286Y-48975921D01*
X149804911Y-49286840D01*
X149715140Y-49621705D01*
X149692424Y-49967650D01*
X147897378Y-49967650D01*
X147907576Y-49812350D01*
X147862366Y-49468620D01*
X147750966Y-49140315D01*
X147641714Y-48935921D01*
X147364531Y-48825074D01*
X146319605Y-49870000D01*
X145960395Y-49870000D01*
X144915469Y-48825074D01*
X144638286Y-48935921D01*
X144484911Y-49246840D01*
X144395140Y-49581705D01*
X144372424Y-49927650D01*
X142820004Y-49927650D01*
X142827576Y-49812350D01*
X142782366Y-49468620D01*
X142670966Y-49140315D01*
X142561714Y-48935921D01*
X142284531Y-48825074D01*
X141239605Y-49870000D01*
X140880395Y-49870000D01*
X139835469Y-48825074D01*
X139558286Y-48935921D01*
X139404911Y-49246840D01*
X139315140Y-49581705D01*
X139292424Y-49927650D01*
X104477000Y-49927650D01*
X104477000Y-48645469D01*
X140015074Y-48645469D01*
X141060000Y-49690395D01*
X142104926Y-48645469D01*
X145095074Y-48645469D01*
X146140000Y-49690395D01*
X147144926Y-48685469D01*
X150415074Y-48685469D01*
X151460000Y-49730395D01*
X152504926Y-48685469D01*
X155495074Y-48685469D01*
X156540000Y-49730395D01*
X157584926Y-48685469D01*
X157474079Y-48408286D01*
X157163160Y-48254911D01*
X156828295Y-48165140D01*
X156482350Y-48142424D01*
X156138620Y-48187634D01*
X155810315Y-48299034D01*
X155605921Y-48408286D01*
X155495074Y-48685469D01*
X152504926Y-48685469D01*
X152394079Y-48408286D01*
X152083160Y-48254911D01*
X151748295Y-48165140D01*
X151402350Y-48142424D01*
X151058620Y-48187634D01*
X150730315Y-48299034D01*
X150525921Y-48408286D01*
X150415074Y-48685469D01*
X147144926Y-48685469D01*
X147184926Y-48645469D01*
X147074079Y-48368286D01*
X146763160Y-48214911D01*
X146428295Y-48125140D01*
X146082350Y-48102424D01*
X145738620Y-48147634D01*
X145410315Y-48259034D01*
X145205921Y-48368286D01*
X145095074Y-48645469D01*
X142104926Y-48645469D01*
X141994079Y-48368286D01*
X141683160Y-48214911D01*
X141348295Y-48125140D01*
X141002350Y-48102424D01*
X140658620Y-48147634D01*
X140330315Y-48259034D01*
X140125921Y-48368286D01*
X140015074Y-48645469D01*
X104477000Y-48645469D01*
X104477000Y-42718548D01*
X143273000Y-42718548D01*
X143273000Y-42881452D01*
X143304782Y-43041227D01*
X143367123Y-43191731D01*
X143457628Y-43327181D01*
X143572819Y-43442372D01*
X143708269Y-43532877D01*
X143858773Y-43595218D01*
X144018548Y-43627000D01*
X144181452Y-43627000D01*
X144341227Y-43595218D01*
X144491731Y-43532877D01*
X144627181Y-43442372D01*
X144742372Y-43327181D01*
X144832877Y-43191731D01*
X144895218Y-43041227D01*
X144927000Y-42881452D01*
X144927000Y-42718548D01*
X144895218Y-42558773D01*
X144832877Y-42408269D01*
X144742372Y-42272819D01*
X144627181Y-42157628D01*
X144491731Y-42067123D01*
X144341227Y-42004782D01*
X144181452Y-41973000D01*
X144018548Y-41973000D01*
X143858773Y-42004782D01*
X143708269Y-42067123D01*
X143572819Y-42157628D01*
X143457628Y-42272819D01*
X143367123Y-42408269D01*
X143304782Y-42558773D01*
X143273000Y-42718548D01*
X104477000Y-42718548D01*
X104477000Y-41364531D01*
X145215074Y-41364531D01*
X145325921Y-41641714D01*
X145636840Y-41795089D01*
X145971705Y-41884860D01*
X146317650Y-41907576D01*
X146661380Y-41862366D01*
X146989685Y-41750966D01*
X147194079Y-41641714D01*
X147304926Y-41364531D01*
X150295074Y-41364531D01*
X150405921Y-41641714D01*
X150716840Y-41795089D01*
X151051705Y-41884860D01*
X151397650Y-41907576D01*
X151741380Y-41862366D01*
X152069685Y-41750966D01*
X152274079Y-41641714D01*
X152384926Y-41364531D01*
X151340000Y-40319605D01*
X150295074Y-41364531D01*
X147304926Y-41364531D01*
X146260000Y-40319605D01*
X145215074Y-41364531D01*
X104477000Y-41364531D01*
X104477000Y-40197650D01*
X144492424Y-40197650D01*
X144537634Y-40541380D01*
X144649034Y-40869685D01*
X144758286Y-41074079D01*
X145035469Y-41184926D01*
X146080395Y-40140000D01*
X146439605Y-40140000D01*
X147484531Y-41184926D01*
X147761714Y-41074079D01*
X147915089Y-40763160D01*
X148004860Y-40428295D01*
X148020004Y-40197650D01*
X149572424Y-40197650D01*
X149617634Y-40541380D01*
X149729034Y-40869685D01*
X149838286Y-41074079D01*
X150115469Y-41184926D01*
X151160395Y-40140000D01*
X151519605Y-40140000D01*
X152564531Y-41184926D01*
X152841714Y-41074079D01*
X152918436Y-40918548D01*
X157673000Y-40918548D01*
X157673000Y-41081452D01*
X157704782Y-41241227D01*
X157767123Y-41391731D01*
X157857628Y-41527181D01*
X157972819Y-41642372D01*
X158108269Y-41732877D01*
X158258773Y-41795218D01*
X158418548Y-41827000D01*
X158581452Y-41827000D01*
X158741227Y-41795218D01*
X158891731Y-41732877D01*
X159027181Y-41642372D01*
X159105022Y-41564531D01*
X162815074Y-41564531D01*
X162925921Y-41841714D01*
X163236840Y-41995089D01*
X163571705Y-42084860D01*
X163917650Y-42107576D01*
X164261380Y-42062366D01*
X164589685Y-41950966D01*
X164794079Y-41841714D01*
X164904926Y-41564531D01*
X167895074Y-41564531D01*
X168005921Y-41841714D01*
X168316840Y-41995089D01*
X168651705Y-42084860D01*
X168997650Y-42107576D01*
X169341380Y-42062366D01*
X169669685Y-41950966D01*
X169874079Y-41841714D01*
X169984926Y-41564531D01*
X168940000Y-40519605D01*
X167895074Y-41564531D01*
X164904926Y-41564531D01*
X163860000Y-40519605D01*
X162815074Y-41564531D01*
X159105022Y-41564531D01*
X159142372Y-41527181D01*
X159232877Y-41391731D01*
X159295218Y-41241227D01*
X159327000Y-41081452D01*
X159327000Y-40918548D01*
X159295218Y-40758773D01*
X159232877Y-40608269D01*
X159142372Y-40472819D01*
X159067203Y-40397650D01*
X162092424Y-40397650D01*
X162137634Y-40741380D01*
X162249034Y-41069685D01*
X162358286Y-41274079D01*
X162635469Y-41384926D01*
X163680395Y-40340000D01*
X164039605Y-40340000D01*
X165084531Y-41384926D01*
X165361714Y-41274079D01*
X165515089Y-40963160D01*
X165604860Y-40628295D01*
X165620004Y-40397650D01*
X167172424Y-40397650D01*
X167217634Y-40741380D01*
X167329034Y-41069685D01*
X167438286Y-41274079D01*
X167715469Y-41384926D01*
X168760395Y-40340000D01*
X169119605Y-40340000D01*
X170164531Y-41384926D01*
X170441714Y-41274079D01*
X170595089Y-40963160D01*
X170684860Y-40628295D01*
X170707576Y-40282350D01*
X170662366Y-39938620D01*
X170550966Y-39610315D01*
X170441714Y-39405921D01*
X170164531Y-39295074D01*
X169119605Y-40340000D01*
X168760395Y-40340000D01*
X167715469Y-39295074D01*
X167438286Y-39405921D01*
X167284911Y-39716840D01*
X167195140Y-40051705D01*
X167172424Y-40397650D01*
X165620004Y-40397650D01*
X165627576Y-40282350D01*
X165582366Y-39938620D01*
X165470966Y-39610315D01*
X165361714Y-39405921D01*
X165084531Y-39295074D01*
X164039605Y-40340000D01*
X163680395Y-40340000D01*
X162635469Y-39295074D01*
X162358286Y-39405921D01*
X162204911Y-39716840D01*
X162115140Y-40051705D01*
X162092424Y-40397650D01*
X159067203Y-40397650D01*
X159027181Y-40357628D01*
X158891731Y-40267123D01*
X158741227Y-40204782D01*
X158581452Y-40173000D01*
X158418548Y-40173000D01*
X158258773Y-40204782D01*
X158108269Y-40267123D01*
X157972819Y-40357628D01*
X157857628Y-40472819D01*
X157767123Y-40608269D01*
X157704782Y-40758773D01*
X157673000Y-40918548D01*
X152918436Y-40918548D01*
X152995089Y-40763160D01*
X153084860Y-40428295D01*
X153107576Y-40082350D01*
X153062366Y-39738620D01*
X152950966Y-39410315D01*
X152841714Y-39205921D01*
X152615531Y-39115469D01*
X162815074Y-39115469D01*
X163860000Y-40160395D01*
X164904926Y-39115469D01*
X164794079Y-38838286D01*
X164483160Y-38684911D01*
X164148295Y-38595140D01*
X163802350Y-38572424D01*
X163458620Y-38617634D01*
X163130315Y-38729034D01*
X162925921Y-38838286D01*
X162815074Y-39115469D01*
X152615531Y-39115469D01*
X152564531Y-39095074D01*
X151519605Y-40140000D01*
X151160395Y-40140000D01*
X150115469Y-39095074D01*
X149838286Y-39205921D01*
X149684911Y-39516840D01*
X149595140Y-39851705D01*
X149572424Y-40197650D01*
X148020004Y-40197650D01*
X148027576Y-40082350D01*
X147982366Y-39738620D01*
X147870966Y-39410315D01*
X147761714Y-39205921D01*
X147484531Y-39095074D01*
X146439605Y-40140000D01*
X146080395Y-40140000D01*
X145035469Y-39095074D01*
X144758286Y-39205921D01*
X144604911Y-39516840D01*
X144515140Y-39851705D01*
X144492424Y-40197650D01*
X104477000Y-40197650D01*
X104477000Y-38915469D01*
X145215074Y-38915469D01*
X146260000Y-39960395D01*
X147304926Y-38915469D01*
X147194079Y-38638286D01*
X146883160Y-38484911D01*
X146548295Y-38395140D01*
X146202350Y-38372424D01*
X145858620Y-38417634D01*
X145530315Y-38529034D01*
X145325921Y-38638286D01*
X145215074Y-38915469D01*
X104477000Y-38915469D01*
X104477000Y-37456990D01*
X147348000Y-37456990D01*
X147348000Y-37743010D01*
X147403799Y-38023533D01*
X147513254Y-38287780D01*
X147672158Y-38525596D01*
X147874404Y-38727842D01*
X148112220Y-38886746D01*
X148376467Y-38996201D01*
X148656990Y-39052000D01*
X148943010Y-39052000D01*
X149223533Y-38996201D01*
X149418436Y-38915469D01*
X150295074Y-38915469D01*
X151340000Y-39960395D01*
X152384926Y-38915469D01*
X152274079Y-38638286D01*
X151963160Y-38484911D01*
X151628295Y-38395140D01*
X151282350Y-38372424D01*
X150938620Y-38417634D01*
X150610315Y-38529034D01*
X150405921Y-38638286D01*
X150295074Y-38915469D01*
X149418436Y-38915469D01*
X149487780Y-38886746D01*
X149725596Y-38727842D01*
X149927842Y-38525596D01*
X150086746Y-38287780D01*
X150196201Y-38023533D01*
X150252000Y-37743010D01*
X150252000Y-37656990D01*
X164948000Y-37656990D01*
X164948000Y-37943010D01*
X165003799Y-38223533D01*
X165113254Y-38487780D01*
X165272158Y-38725596D01*
X165474404Y-38927842D01*
X165712220Y-39086746D01*
X165976467Y-39196201D01*
X166256990Y-39252000D01*
X166543010Y-39252000D01*
X166823533Y-39196201D01*
X167018436Y-39115469D01*
X167895074Y-39115469D01*
X168940000Y-40160395D01*
X169984926Y-39115469D01*
X169874079Y-38838286D01*
X169563160Y-38684911D01*
X169228295Y-38595140D01*
X168882350Y-38572424D01*
X168538620Y-38617634D01*
X168210315Y-38729034D01*
X168005921Y-38838286D01*
X167895074Y-39115469D01*
X167018436Y-39115469D01*
X167087780Y-39086746D01*
X167325596Y-38927842D01*
X167527842Y-38725596D01*
X167686746Y-38487780D01*
X167796201Y-38223533D01*
X167852000Y-37943010D01*
X167852000Y-37656990D01*
X167796201Y-37376467D01*
X167686746Y-37112220D01*
X167527842Y-36874404D01*
X167325596Y-36672158D01*
X167087780Y-36513254D01*
X167018437Y-36484531D01*
X167895074Y-36484531D01*
X168005921Y-36761714D01*
X168316840Y-36915089D01*
X168651705Y-37004860D01*
X168997650Y-37027576D01*
X169341380Y-36982366D01*
X169669685Y-36870966D01*
X169874079Y-36761714D01*
X169984926Y-36484531D01*
X168940000Y-35439605D01*
X167895074Y-36484531D01*
X167018437Y-36484531D01*
X166823533Y-36403799D01*
X166543010Y-36348000D01*
X166256990Y-36348000D01*
X165976467Y-36403799D01*
X165712220Y-36513254D01*
X165474404Y-36672158D01*
X165272158Y-36874404D01*
X165113254Y-37112220D01*
X165003799Y-37376467D01*
X164948000Y-37656990D01*
X150252000Y-37656990D01*
X150252000Y-37456990D01*
X150196201Y-37176467D01*
X150086746Y-36912220D01*
X149927842Y-36674404D01*
X149725596Y-36472158D01*
X149487780Y-36313254D01*
X149418437Y-36284531D01*
X150295074Y-36284531D01*
X150405921Y-36561714D01*
X150716840Y-36715089D01*
X151051705Y-36804860D01*
X151397650Y-36827576D01*
X151741380Y-36782366D01*
X152069685Y-36670966D01*
X152274079Y-36561714D01*
X152304944Y-36484531D01*
X162815074Y-36484531D01*
X162925921Y-36761714D01*
X163236840Y-36915089D01*
X163571705Y-37004860D01*
X163917650Y-37027576D01*
X164261380Y-36982366D01*
X164589685Y-36870966D01*
X164794079Y-36761714D01*
X164904926Y-36484531D01*
X163860000Y-35439605D01*
X162815074Y-36484531D01*
X152304944Y-36484531D01*
X152384926Y-36284531D01*
X151340000Y-35239605D01*
X150295074Y-36284531D01*
X149418437Y-36284531D01*
X149223533Y-36203799D01*
X148943010Y-36148000D01*
X148656990Y-36148000D01*
X148376467Y-36203799D01*
X148112220Y-36313254D01*
X147874404Y-36472158D01*
X147672158Y-36674404D01*
X147513254Y-36912220D01*
X147403799Y-37176467D01*
X147348000Y-37456990D01*
X104477000Y-37456990D01*
X104477000Y-36284531D01*
X145215074Y-36284531D01*
X145325921Y-36561714D01*
X145636840Y-36715089D01*
X145971705Y-36804860D01*
X146317650Y-36827576D01*
X146661380Y-36782366D01*
X146989685Y-36670966D01*
X147194079Y-36561714D01*
X147304926Y-36284531D01*
X146260000Y-35239605D01*
X145215074Y-36284531D01*
X104477000Y-36284531D01*
X104477000Y-35117650D01*
X144492424Y-35117650D01*
X144537634Y-35461380D01*
X144649034Y-35789685D01*
X144758286Y-35994079D01*
X145035469Y-36104926D01*
X146080395Y-35060000D01*
X146439605Y-35060000D01*
X147484531Y-36104926D01*
X147761714Y-35994079D01*
X147915089Y-35683160D01*
X148004860Y-35348295D01*
X148020004Y-35117650D01*
X149572424Y-35117650D01*
X149617634Y-35461380D01*
X149729034Y-35789685D01*
X149838286Y-35994079D01*
X150115469Y-36104926D01*
X151160395Y-35060000D01*
X151519605Y-35060000D01*
X152564531Y-36104926D01*
X152841714Y-35994079D01*
X152995089Y-35683160D01*
X153084860Y-35348295D01*
X153106512Y-35018548D01*
X153973000Y-35018548D01*
X153973000Y-35181452D01*
X154004782Y-35341227D01*
X154067123Y-35491731D01*
X154157628Y-35627181D01*
X154272819Y-35742372D01*
X154408269Y-35832877D01*
X154558773Y-35895218D01*
X154718548Y-35927000D01*
X154881452Y-35927000D01*
X155041227Y-35895218D01*
X155191731Y-35832877D01*
X155327181Y-35742372D01*
X155442372Y-35627181D01*
X155532877Y-35491731D01*
X155595218Y-35341227D01*
X155627000Y-35181452D01*
X155627000Y-35018548D01*
X156273000Y-35018548D01*
X156273000Y-35181452D01*
X156304782Y-35341227D01*
X156367123Y-35491731D01*
X156457628Y-35627181D01*
X156572819Y-35742372D01*
X156708269Y-35832877D01*
X156858773Y-35895218D01*
X157018548Y-35927000D01*
X157181452Y-35927000D01*
X157341227Y-35895218D01*
X157491731Y-35832877D01*
X157627181Y-35742372D01*
X157742372Y-35627181D01*
X157832877Y-35491731D01*
X157895218Y-35341227D01*
X157899907Y-35317650D01*
X162092424Y-35317650D01*
X162137634Y-35661380D01*
X162249034Y-35989685D01*
X162358286Y-36194079D01*
X162635469Y-36304926D01*
X163680395Y-35260000D01*
X164039605Y-35260000D01*
X165084531Y-36304926D01*
X165361714Y-36194079D01*
X165515089Y-35883160D01*
X165604860Y-35548295D01*
X165620004Y-35317650D01*
X167172424Y-35317650D01*
X167217634Y-35661380D01*
X167329034Y-35989685D01*
X167438286Y-36194079D01*
X167715469Y-36304926D01*
X168760395Y-35260000D01*
X169119605Y-35260000D01*
X170164531Y-36304926D01*
X170441714Y-36194079D01*
X170595089Y-35883160D01*
X170684860Y-35548295D01*
X170707576Y-35202350D01*
X170662366Y-34858620D01*
X170550966Y-34530315D01*
X170441714Y-34325921D01*
X170164531Y-34215074D01*
X169119605Y-35260000D01*
X168760395Y-35260000D01*
X167715469Y-34215074D01*
X167438286Y-34325921D01*
X167284911Y-34636840D01*
X167195140Y-34971705D01*
X167172424Y-35317650D01*
X165620004Y-35317650D01*
X165627576Y-35202350D01*
X165582366Y-34858620D01*
X165470966Y-34530315D01*
X165361714Y-34325921D01*
X165084531Y-34215074D01*
X164039605Y-35260000D01*
X163680395Y-35260000D01*
X162635469Y-34215074D01*
X162358286Y-34325921D01*
X162204911Y-34636840D01*
X162115140Y-34971705D01*
X162092424Y-35317650D01*
X157899907Y-35317650D01*
X157927000Y-35181452D01*
X157927000Y-35018548D01*
X157895218Y-34858773D01*
X157832877Y-34708269D01*
X157742372Y-34572819D01*
X157627181Y-34457628D01*
X157491731Y-34367123D01*
X157341227Y-34304782D01*
X157181452Y-34273000D01*
X157018548Y-34273000D01*
X156858773Y-34304782D01*
X156708269Y-34367123D01*
X156572819Y-34457628D01*
X156457628Y-34572819D01*
X156367123Y-34708269D01*
X156304782Y-34858773D01*
X156273000Y-35018548D01*
X155627000Y-35018548D01*
X155595218Y-34858773D01*
X155532877Y-34708269D01*
X155442372Y-34572819D01*
X155327181Y-34457628D01*
X155191731Y-34367123D01*
X155041227Y-34304782D01*
X154881452Y-34273000D01*
X154718548Y-34273000D01*
X154558773Y-34304782D01*
X154408269Y-34367123D01*
X154272819Y-34457628D01*
X154157628Y-34572819D01*
X154067123Y-34708269D01*
X154004782Y-34858773D01*
X153973000Y-35018548D01*
X153106512Y-35018548D01*
X153107576Y-35002350D01*
X153062366Y-34658620D01*
X152950966Y-34330315D01*
X152841714Y-34125921D01*
X152615531Y-34035469D01*
X162815074Y-34035469D01*
X163860000Y-35080395D01*
X164904926Y-34035469D01*
X167895074Y-34035469D01*
X168940000Y-35080395D01*
X169984926Y-34035469D01*
X169874079Y-33758286D01*
X169563160Y-33604911D01*
X169228295Y-33515140D01*
X168882350Y-33492424D01*
X168538620Y-33537634D01*
X168210315Y-33649034D01*
X168005921Y-33758286D01*
X167895074Y-34035469D01*
X164904926Y-34035469D01*
X164794079Y-33758286D01*
X164483160Y-33604911D01*
X164148295Y-33515140D01*
X163802350Y-33492424D01*
X163458620Y-33537634D01*
X163130315Y-33649034D01*
X162925921Y-33758286D01*
X162815074Y-34035469D01*
X152615531Y-34035469D01*
X152564531Y-34015074D01*
X151519605Y-35060000D01*
X151160395Y-35060000D01*
X150115469Y-34015074D01*
X149838286Y-34125921D01*
X149684911Y-34436840D01*
X149595140Y-34771705D01*
X149572424Y-35117650D01*
X148020004Y-35117650D01*
X148027576Y-35002350D01*
X147982366Y-34658620D01*
X147870966Y-34330315D01*
X147761714Y-34125921D01*
X147484531Y-34015074D01*
X146439605Y-35060000D01*
X146080395Y-35060000D01*
X145035469Y-34015074D01*
X144758286Y-34125921D01*
X144604911Y-34436840D01*
X144515140Y-34771705D01*
X144492424Y-35117650D01*
X104477000Y-35117650D01*
X104477000Y-33835469D01*
X145215074Y-33835469D01*
X146260000Y-34880395D01*
X147304926Y-33835469D01*
X150295074Y-33835469D01*
X151340000Y-34880395D01*
X152384926Y-33835469D01*
X152274079Y-33558286D01*
X151963160Y-33404911D01*
X151628295Y-33315140D01*
X151282350Y-33292424D01*
X150938620Y-33337634D01*
X150610315Y-33449034D01*
X150405921Y-33558286D01*
X150295074Y-33835469D01*
X147304926Y-33835469D01*
X147194079Y-33558286D01*
X146883160Y-33404911D01*
X146548295Y-33315140D01*
X146202350Y-33292424D01*
X145858620Y-33337634D01*
X145530315Y-33449034D01*
X145325921Y-33558286D01*
X145215074Y-33835469D01*
X104477000Y-33835469D01*
X104477000Y-25877000D01*
X179923000Y-25877000D01*
X179923001Y-98923000D01*
G37*
G04 #@! TD.AperFunction*
M02*
