M48
; DRILL file {KiCad 5.1.9} date Wed Apr 28 13:54:45 2021
; FORMAT={-:-/ absolute / metric / decimal}
; #@! TF.CreationDate,2021-04-28T13:54:45+02:00
; #@! TF.GenerationSoftware,Kicad,Pcbnew,5.1.9
; #@! TF.FileFunction,Plated,1,4,PTH
FMAT,2
METRIC
T1C0.400
T2C1.000
T3C1.500
T4C1.700
%
G90
G05
T1
X107.5Y-27.5
X107.5Y-30.0
X107.5Y-32.5
X107.5Y-35.0
X107.5Y-45.0
X107.5Y-47.5
X107.5Y-50.0
X107.5Y-52.5
X107.5Y-55.0
X107.5Y-57.5
X107.5Y-60.0
X107.5Y-62.5
X107.5Y-65.0
X107.5Y-67.5
X107.5Y-70.0
X107.5Y-72.5
X107.5Y-75.0
X107.5Y-77.5
X107.5Y-80.0
X107.5Y-82.5
X107.5Y-95.0
X107.5Y-97.5
X109.2Y-86.0
X109.2Y-91.2
X109.4Y-36.8
X109.4Y-42.4
X110.0Y-27.5
X110.0Y-30.0
X110.0Y-32.5
X110.0Y-35.0
X110.0Y-45.0
X110.0Y-47.5
X110.0Y-50.0
X110.0Y-52.5
X110.0Y-55.0
X110.0Y-57.5
X110.0Y-60.0
X110.0Y-62.5
X110.0Y-65.0
X110.0Y-67.5
X110.0Y-70.0
X110.0Y-72.5
X110.0Y-75.0
X110.0Y-77.5
X110.0Y-80.0
X110.0Y-82.5
X110.0Y-85.0
X110.0Y-87.5
X110.0Y-92.5
X110.0Y-95.0
X110.0Y-97.5
X111.0Y-78.6
X112.0Y-71.0
X112.5Y-27.5
X112.5Y-30.0
X112.5Y-32.5
X112.5Y-35.0
X112.5Y-37.5
X112.5Y-42.5
X112.5Y-45.0
X112.5Y-47.5
X112.5Y-50.0
X112.5Y-52.5
X112.5Y-55.0
X112.5Y-57.5
X112.5Y-62.5
X112.5Y-65.0
X112.5Y-67.5
X112.5Y-82.5
X112.5Y-85.0
X112.5Y-87.5
X112.5Y-90.0
X112.5Y-92.5
X112.5Y-95.0
X112.5Y-97.5
X114.6Y-62.2
X115.0Y-27.5
X115.0Y-30.0
X115.0Y-32.5
X115.0Y-35.0
X115.0Y-37.5
X115.0Y-42.5
X115.0Y-45.0
X115.0Y-47.5
X115.0Y-50.0
X115.0Y-52.5
X115.0Y-55.0
X115.0Y-87.5
X115.0Y-90.0
X115.0Y-92.5
X115.0Y-95.0
X115.0Y-97.5
X115.4Y-65.0
X115.4Y-67.6
X115.6Y-76.6
X116.2Y-57.0
X117.215Y-81.385
X117.5Y-27.5
X117.5Y-30.0
X117.5Y-32.5
X117.5Y-35.0
X117.5Y-37.5
X117.5Y-42.5
X117.5Y-45.0
X117.5Y-47.5
X117.5Y-50.0
X117.5Y-52.5
X117.5Y-65.0
X117.5Y-67.5
X117.5Y-90.0
X117.5Y-92.5
X117.5Y-95.0
X117.5Y-97.5
X117.8Y-58.4
X119.0Y-64.2
X120.0Y-27.5
X120.0Y-30.0
X120.0Y-32.5
X120.0Y-35.0
X120.0Y-35.0
X120.0Y-37.5
X120.0Y-42.5
X120.0Y-45.0
X120.0Y-47.5
X120.0Y-50.0
X120.0Y-52.5
X120.0Y-70.0
X120.0Y-90.0
X120.0Y-92.5
X120.0Y-95.0
X120.0Y-97.5
X120.2Y-60.4
X120.2Y-62.4
X121.6Y-56.2
X121.6Y-79.215
X122.5Y-27.5
X122.5Y-30.0
X122.5Y-32.5
X122.5Y-35.0
X122.5Y-37.5
X122.5Y-42.5
X122.5Y-42.5
X122.5Y-45.0
X122.5Y-47.5
X122.5Y-50.0
X122.5Y-52.5
X122.5Y-55.0
X122.5Y-70.0
X122.5Y-90.0
X122.5Y-92.5
X122.5Y-95.0
X122.5Y-97.5
X123.2Y-56.4
X124.4Y-87.2
X124.6Y-82.0
X125.0Y-27.5
X125.0Y-30.0
X125.0Y-32.5
X125.0Y-32.5
X125.0Y-35.0
X125.0Y-37.5
X125.0Y-42.5
X125.0Y-45.0
X125.0Y-47.5
X125.0Y-50.0
X125.0Y-52.5
X125.0Y-55.0
X125.0Y-70.0
X125.0Y-72.5
X125.0Y-90.0
X125.0Y-92.5
X125.0Y-95.0
X125.0Y-97.5
X127.4Y-69.8
X127.5Y-27.5
X127.5Y-30.0
X127.5Y-32.5
X127.5Y-35.0
X127.5Y-37.5
X127.5Y-42.5
X127.5Y-45.0
X127.5Y-47.5
X127.5Y-50.0
X127.5Y-52.5
X127.5Y-55.0
X127.5Y-72.5
X127.5Y-75.0
X127.5Y-82.5
X127.5Y-87.5
X127.5Y-90.0
X127.5Y-92.5
X127.5Y-95.0
X127.5Y-97.5
X128.4Y-76.8
X129.6Y-81.0
X129.8Y-60.4
X130.0Y-27.5
X130.0Y-30.0
X130.0Y-32.5
X130.0Y-35.0
X130.0Y-35.0
X130.0Y-37.5
X130.0Y-42.5
X130.0Y-45.0
X130.0Y-47.5
X130.0Y-50.0
X130.0Y-52.5
X130.0Y-75.0
X130.0Y-87.5
X130.0Y-90.0
X130.0Y-92.5
X130.0Y-95.0
X130.0Y-97.5
X132.5Y-27.5
X132.5Y-30.0
X132.5Y-32.5
X132.5Y-35.0
X132.5Y-37.5
X132.5Y-42.5
X132.5Y-45.0
X132.5Y-47.5
X132.5Y-52.5
X132.5Y-92.5
X132.5Y-95.0
X132.5Y-97.5
X132.8Y-56.6
X133.0Y-60.8
X133.2Y-81.8
X133.8Y-67.8
X134.6Y-74.6
X135.0Y-27.5
X135.0Y-30.0
X135.0Y-32.5
X135.0Y-35.0
X135.0Y-37.5
X135.0Y-42.5
X135.0Y-45.0
X135.0Y-47.5
X135.0Y-52.5
X135.0Y-52.5
X135.0Y-68.0
X135.0Y-72.0
X135.0Y-95.0
X135.0Y-97.5
X135.2Y-50.4
X136.0Y-62.8
X137.5Y-27.5
X137.5Y-30.0
X137.5Y-32.5
X137.5Y-35.0
X137.5Y-37.5
X137.5Y-95.0
X137.5Y-97.5
X138.2Y-82.0
X138.862Y-72.462
X139.0Y-48.0
X139.0Y-74.6
X140.0Y-27.5
X140.0Y-30.0
X140.0Y-32.5
X140.0Y-35.0
X140.0Y-57.5
X140.0Y-64.0
X140.0Y-65.0
X140.0Y-69.4
X140.0Y-95.0
X140.0Y-97.5
X140.1Y-44.2
X140.4Y-78.7
X140.4Y-80.5
X140.8Y-36.7
X141.0Y-48.0
X141.9Y-45.9
X142.0Y-81.0
X142.4Y-38.7
X142.5Y-27.5
X142.5Y-30.0
X142.5Y-32.5
X142.5Y-35.0
X142.5Y-75.0
X142.5Y-77.5
X142.5Y-95.0
X142.5Y-97.5
X142.8Y-67.4
X143.0Y-48.0
X143.0Y-65.4
X143.6Y-64.0
X143.9Y-45.6
X144.1Y-38.7
X144.1Y-42.8
X144.8Y-46.5
X145.0Y-27.5
X145.0Y-30.0
X145.0Y-32.5
X145.0Y-48.0
X145.0Y-95.0
X145.0Y-97.5
X145.9Y-88.5
X146.5Y-62.0
X146.8Y-67.0
X146.8Y-69.0
X146.8Y-71.0
X146.8Y-73.0
X147.0Y-48.0
X147.4Y-84.2
X147.4Y-92.6
X147.5Y-27.5
X147.5Y-30.0
X147.5Y-32.5
X147.5Y-95.0
X147.5Y-97.5
X148.0Y-46.5
X148.25Y-58.0
X148.8Y-67.0
X148.8Y-69.0
X148.8Y-71.0
X148.8Y-73.0
X149.0Y-83.0
X149.25Y-58.0
X149.6Y-60.9
X150.0Y-27.5
X150.0Y-30.0
X150.0Y-32.5
X150.0Y-52.0
X150.0Y-57.0
X150.0Y-95.0
X150.0Y-95.0
X150.0Y-97.5
X150.6Y-64.4
X150.8Y-67.0
X150.8Y-73.0
X151.0Y-83.0
X151.4Y-60.9
X152.0Y-43.6
X152.0Y-46.0
X152.0Y-52.0
X152.0Y-57.0
X152.5Y-27.5
X152.5Y-30.0
X152.5Y-32.5
X152.5Y-95.0
X152.5Y-97.5
X152.8Y-67.0
X152.8Y-69.0
X152.8Y-71.0
X152.8Y-73.0
X153.02Y-39.54
X153.9Y-35.9
X154.0Y-57.0
X154.1Y-44.0
X154.5Y-62.0
X154.6Y-63.6
X154.6Y-69.8
X154.8Y-35.1
X154.8Y-60.4
X154.8Y-73.4
X154.815Y-39.7
X154.9Y-92.6
X155.0Y-27.5
X155.0Y-30.0
X155.0Y-32.5
X155.0Y-95.0
X155.0Y-97.5
X155.4Y-84.8
X155.6Y-35.9
X155.7Y-45.6
X156.0Y-52.0
X156.0Y-57.0
X156.19Y-39.7
X156.8Y-42.9
X156.9Y-46.5
X157.1Y-35.1
X157.5Y-27.5
X157.5Y-30.0
X157.5Y-32.5
X157.5Y-95.0
X157.5Y-97.5
X157.7Y-38.1
X158.0Y-52.0
X158.0Y-63.0
X158.0Y-77.0
X158.0Y-81.0
X158.2Y-85.4
X158.5Y-41.0
X158.6Y-60.2
X158.6Y-92.6
X159.0Y-77.0
X159.0Y-82.0
X159.0Y-84.0
X159.0Y-93.6
X159.4Y-71.6
X160.0Y-27.5
X160.0Y-30.0
X160.0Y-32.5
X160.0Y-35.0
X160.0Y-67.54
X160.0Y-97.5
X160.2Y-63.8
X160.2Y-68.6
X160.2Y-71.0
X160.2Y-72.4
X160.2Y-76.0
X161.0Y-56.9
X161.1Y-49.9
X161.2Y-68.6
X161.2Y-88.6
X161.8Y-71.0
X162.2Y-68.6
X162.5Y-27.5
X162.5Y-30.0
X162.5Y-32.5
X162.5Y-97.5
X162.8Y-71.0
X163.0Y-42.0
X163.8Y-63.8
X163.8Y-67.54
X163.8Y-71.0
X163.8Y-72.4
X163.8Y-76.0
X165.0Y-27.5
X165.0Y-30.0
X165.0Y-32.5
X165.0Y-42.0
X165.0Y-48.0
X165.0Y-50.0
X165.0Y-52.0
X165.0Y-60.2
X165.0Y-77.0
X165.0Y-79.0
X165.0Y-81.0
X165.0Y-87.5
X165.0Y-91.4
X165.0Y-94.0
X165.0Y-97.5
X165.2Y-71.0
X166.0Y-53.0
X166.0Y-63.0
X166.4Y-85.2
X167.0Y-42.0
X167.0Y-48.0
X167.0Y-63.0
X167.0Y-68.0
X167.0Y-70.0
X167.0Y-72.0
X167.0Y-77.0
X167.0Y-79.0
X167.0Y-81.0
X167.0Y-84.4
X167.5Y-27.5
X167.5Y-30.0
X167.5Y-32.5
X167.5Y-92.5
X167.5Y-95.0
X167.5Y-97.5
X168.0Y-49.0
X168.2Y-62.6
X169.0Y-77.0
X169.0Y-79.0
X169.0Y-81.0
X169.6Y-70.0
X169.8Y-50.0
X170.0Y-27.5
X170.0Y-30.0
X170.0Y-32.5
X170.0Y-42.0
X170.0Y-87.5
X170.0Y-92.5
X170.0Y-95.0
X170.0Y-97.5
X170.4Y-70.8
X171.0Y-49.0
X171.0Y-77.0
X171.0Y-79.0
X171.0Y-81.0
X171.4Y-60.2
X171.4Y-91.6
X171.8Y-63.8
X172.0Y-42.0
X172.0Y-48.0
X172.5Y-27.5
X172.5Y-30.0
X172.5Y-32.5
X172.5Y-35.0
X172.5Y-37.5
X172.5Y-40.0
X172.5Y-87.5
X172.5Y-92.5
X172.5Y-95.0
X172.5Y-97.5
X174.0Y-42.0
X174.0Y-48.0
X175.0Y-27.5
X175.0Y-30.0
X175.0Y-32.5
X175.0Y-35.0
X175.0Y-37.5
X175.0Y-40.0
X175.0Y-49.0
X175.0Y-60.4
X175.0Y-91.4
X175.0Y-92.5
X175.0Y-95.0
X175.0Y-97.5
X175.2Y-69.8
X175.2Y-75.8
X175.4Y-42.2
X175.4Y-47.4
X175.4Y-82.2
X175.4Y-87.4
X177.0Y-49.0
X177.5Y-27.5
X177.5Y-30.0
X177.5Y-32.5
X177.5Y-35.0
X177.5Y-37.5
X177.5Y-40.0
X177.5Y-50.0
X177.5Y-52.5
X177.5Y-55.0
X177.5Y-57.5
X177.5Y-60.0
X177.5Y-62.5
X177.5Y-65.0
X177.5Y-67.5
X177.5Y-70.0
X177.5Y-72.5
X177.5Y-75.0
X177.5Y-77.5
X177.5Y-80.0
X177.5Y-90.0
X177.5Y-92.5
X177.5Y-95.0
X177.5Y-97.5
X179.0Y-49.0
T2
X132.18Y-87.26
X132.18Y-89.8
X134.72Y-87.26
X134.72Y-89.8
X137.26Y-87.26
X137.26Y-89.8
X139.8Y-87.26
X139.8Y-89.8
X142.34Y-87.26
X142.34Y-89.8
X150.0Y-86.0
X150.0Y-88.54
X150.0Y-91.08
X152.54Y-86.0
X152.54Y-88.54
X152.54Y-91.08
T3
X143.6Y-52.41
X148.8Y-37.6
X149.8Y-79.0
X154.0Y-52.45
X166.4Y-37.8
X170.8Y-54.8
T4
X141.06Y-49.87
X141.06Y-54.95
X146.14Y-49.87
X146.14Y-54.95
X146.26Y-35.06
X146.26Y-40.14
X147.26Y-76.46
X147.26Y-81.54
X151.34Y-35.06
X151.34Y-40.14
X151.46Y-49.91
X151.46Y-54.99
X152.34Y-76.46
X152.34Y-81.54
X156.54Y-49.91
X156.54Y-54.99
X163.86Y-35.26
X163.86Y-40.34
X168.26Y-52.26
X168.26Y-57.34
X168.94Y-35.26
X168.94Y-40.34
X173.34Y-52.26
X173.34Y-57.34
T0
M30
